<?xml version="1.0" encoding="utf-8"?>
<!-- Generator: Adobe Illustrator 23.0.0, SVG Export Plug-In . SVG Version: 6.00 Build 0)  -->
<svg version="1.1" id="Capa_1" xmlns="http://www.w3.org/2000/svg" xmlns:xlink="http://www.w3.org/1999/xlink" x="0px" y="0px"
	 viewBox="0 0 500.2 499.7" style="enable-background:new 0 0 500.2 499.7;" xml:space="preserve">
<style type="text/css">
	.st0{fill:#FFFFFF;}
</style>
<title>icon-user</title>
<path class="st0" d="M252.6,420.5H111.6c-6.8,0-7,0-6.8-6.9c0.3-20.1-0.9-40.3,0.6-60.4c3-38.2,31.2-70.1,69-78.5
	c9.6-2.1,19.2-2.1,28.8-1.9c1.8,0.2,3.6,0.7,5.2,1.5c29.4,11.8,58.6,11.6,88.1,0.1c10.2-4,21.1-2.3,31.5-0.2
	c42.7,8.5,71.7,43.7,72.1,87.3c0.2,17.7-0.1,35.3,0.1,53c0.1,4.9-1.7,6.2-6.4,6.1C346.9,420.4,299.7,420.5,252.6,420.5z"/>
<path class="st0" d="M252.5,251.6c-42.1,0.8-84.4-32.6-84.5-84.4c-0.1-48.4,38.3-84.5,84.7-84.3c45.8,0.1,84.2,35.7,84.2,84.3
	C337,218.1,295.5,252.2,252.5,251.6z"/>
</svg>
