<svg id="Capa_1" data-name="Capa 1" xmlns="http://www.w3.org/2000/svg" viewBox="0 0 500.16 499.68"><defs><style>.cls-1{fill:#636363;}</style></defs><title>icon-user</title><path class="cls-1" d="M252.58,420.45H111.64c-6.85,0-7,0-6.85-6.94.29-20.15-.93-40.32.63-60.44,3-38.21,31.17-70.1,69-78.54,9.55-2.14,19.17-2.11,28.82-1.86a15.84,15.84,0,0,1,5.23,1.5c29.37,11.75,58.64,11.58,88.14.14,10.22-4,21.11-2.28,31.53-.2,42.66,8.51,71.66,43.71,72.14,87.31.2,17.66-.11,35.32.14,53,.07,4.91-1.67,6.16-6.36,6.14C346.86,420.4,299.72,420.45,252.58,420.45Z"/><path class="cls-1" d="M252.54,251.56c-42.08.76-84.4-32.6-84.46-84.38-.05-48.37,38.3-84.47,84.66-84.35,45.83.12,84.2,35.73,84.21,84.29C337,218.09,295.53,252.2,252.54,251.56Z"/></svg>