<?xml version="1.0" encoding="utf-8"?>
<!-- Generator: Adobe Illustrator 23.0.0, SVG Export Plug-In . SVG Version: 6.00 Build 0)  -->
<svg version="1.1" id="Capa_1" xmlns="http://www.w3.org/2000/svg" xmlns:xlink="http://www.w3.org/1999/xlink" x="0px" y="0px"
	 viewBox="0 0 500.2 499.7" style="enable-background:new 0 0 500.2 499.7;" xml:space="preserve">
<style type="text/css">
	.st0{fill:#FFFFFF;}
</style>
<title>icon-user</title>
<g>
	<path class="st0" d="M400.1,361.5c-0.4-43.6-29.4-78.8-72.1-87.3c-10.4-2.1-21.3-3.8-31.5,0.2c-29.5,11.5-58.7,11.7-88.1-0.1
		c-1.6-0.8-3.4-1.3-5.2-1.5c-9.6-0.2-19.2-0.2-28.8,1.9c-37.8,8.4-66,40.3-69,78.5c-1.5,20.1-0.3,40.3-0.6,60.4
		c-0.2,6.9,0,6.9,6.8,6.9h141c47.1,0,94.3-0.1,141.2,0.1c4.7,0.1,6.5-1.2,6.4-6.1C400,396.8,400.3,379.2,400.1,361.5z"/>
	<path class="st0" d="M252.5,251.6c43,0.6,84.5-33.5,84.4-84.4c0-48.6-38.4-84.2-84.2-84.3c-46.4-0.2-84.8,35.9-84.7,84.3
		C168.1,219,210.4,252.4,252.5,251.6z"/>
</g>
</svg>
