<svg id="Capa_2" data-name="Capa 2" xmlns="http://www.w3.org/2000/svg" viewBox="0 0 1080 1080"><defs><style>.cls-1{opacity:0.5;}.cls-2{fill:#5e5e5e;}.cls-3{fill:#8e8e8e;}.cls-4{fill:#444;}.cls-5{fill:#686868;}.cls-6{fill:#424141;}.cls-7{fill:#ffd41d;}.cls-8{fill:#d6d6d6;}.cls-9{fill:#ffdf57;}.cls-10{fill:#ededed;}.cls-11{fill:#545454;}.cls-12{fill:#6d6d6d;}.cls-13{fill:#e0e2e0;}.cls-14{fill:#fff;}.cls-15{fill:#757575;}.cls-16{fill:#00ffe6;}</style></defs><title>PresentationTemp</title><polygon class="cls-1" points="30.5 776.17 72.33 774.52 260.55 904.41 30.5 776.17"/><polygon class="cls-1" points="300.57 541.19 169.86 601.96 464.53 723.5 300.57 541.19"/><polygon class="cls-2" points="258.14 618.01 260.44 341.69 568.87 163.96 567.73 434.56 794.96 567.59 784.89 586.41 495.01 755.81 258.14 618.01"/><polygon class="cls-3" points="266.17 609.99 269.61 347.42 568.62 176.69 567.73 434.56 266.17 609.99"/><polygon class="cls-4" points="494.34 742.99 797.04 567.56 567.73 434.56 266.17 609.99 494.34 742.99"/><polygon class="cls-5" points="512.69 642.09 617.03 582.47 675.5 618.01 572.31 678.78 512.69 642.09"/><polygon class="cls-5" points="320.06 614.57 420.96 674.2 677.59 526.72 573.57 468.52 320.06 614.57"/><polygon class="cls-1" points="551.76 785.33 534.57 775 463.48 817.43 464.62 828.89 611.39 914.89 622.85 908.01 551.76 785.33"/><polygon class="cls-6" points="477.24 827.75 625.15 916.04 697.38 873.61 698.53 863.29 549.47 776.15 477.24 818.58 477.24 827.75"/><path class="cls-2" d="M477.24,818.58l149,89.43s73.38-44.72,72.24-44.72-149.06-87.14-149.06-87.14Z"/><polygon class="cls-3" points="493.29 823.16 556.35 786.47 682.48 858.71 619.41 898.84 493.29 823.16"/><polygon class="cls-1" points="745.7 665 673.05 700.91 884.8 823.09 994.19 758.29 745.7 665"/><polygon class="cls-7" points="729.9 681.21 729.9 701.85 908.77 807.34 1036.04 733.96 1036.04 731.66 909.91 803.9 909.91 787.85 1036.04 714.47 1036.04 712.17 909.91 785.55 729.9 681.21"/><polygon class="cls-8" points="910.26 792.13 1036.04 720.2 1036.04 728.22 910.26 800.67 910.26 792.13"/><polygon class="cls-9" points="729.9 681.21 866.34 613.57 1036.04 712.17 909.91 785.55 729.9 681.21"/><polygon class="cls-10" points="1036.04 720.2 1031.16 717.36 909.91 787.85 909.91 792.43 1036.04 720.2"/><polygon class="cls-9" points="1036.04 731.66 1033.54 729.67 909.91 800.46 909.91 803.9 1036.04 731.66"/><polygon class="cls-11" points="741.16 667.48 743.22 644.77 921.95 749.21 1047.43 676.56 1046.2 681.1 922.78 751.27 923.33 768.4 1049.5 695.55 1049.09 700.09 922.78 771.5 741.16 667.48"/><polygon class="cls-12" points="867.88 572.13 743.22 644.77 921.95 749.21 1047.43 676.56 867.88 572.13"/><polygon class="cls-13" points="1048.95 684.81 1048.95 692.79 923.19 766.54 922.91 757.19 1048.95 684.81"/><polygon class="cls-10" points="1045.1 681.65 1048.91 684.88 923.02 757.15 922.78 751.27 1045.1 681.65"/><polygon class="cls-12" points="1049.5 695.55 1047.3 693.76 923.19 766.54 923.19 768.37 1049.5 695.55"/><polygon class="cls-14" points="31.05 770.67 260.55 904.41 428.41 810.85 194.51 676.01 31.05 770.67"/><polygon class="cls-15" points="176.93 841.46 173.04 838.64 309.26 761.32 313.97 763.31 176.93 841.46"/><polygon class="cls-16" points="192.14 795.78 209.09 805.76 221.37 798.33 204.76 788.21 192.14 795.78"/><polygon class="cls-16" points="188.56 776.24 202.32 768.81 236.44 789.66 223.44 797.4 188.56 776.24"/><polygon class="cls-16" points="216.83 774.9 238.5 788.52 250.2 781.2 228.7 767.99 216.83 774.9"/><polygon class="cls-16" points="208.1 752.85 252.13 780.16 265.61 772.67 219.65 745.7 208.1 752.85"/><polygon class="cls-15" points="188.22 848.89 184.33 846.07 320.54 768.75 325.26 770.74 188.22 848.89"/><polygon class="cls-15" points="202.34 857.37 198.45 854.56 334.67 777.23 339.38 779.22 202.34 857.37"/></svg>