<?xml version="1.0" encoding="utf-8"?>
<!-- Generator: Adobe Illustrator 23.0.0, SVG Export Plug-In . SVG Version: 6.00 Build 0)  -->
<svg version="1.1" id="Capa_1" xmlns="http://www.w3.org/2000/svg" xmlns:xlink="http://www.w3.org/1999/xlink" x="0px" y="0px"
	 viewBox="0 0 576 512" style="enable-background:new 0 0 576 512;" xml:space="preserve">
<style type="text/css">
	.st0{fill:#FFFFFF;}
</style>
<polygon class="st0" points="95.2,300 94,301 94,300 "/>
<polygon class="st0" points="479,300 479,300 479,300 "/>
<polygon class="st0" points="480.2,301 479,301 479,300 "/>
<polygon class="st0" points="21.9,240.8 0.3,259 0,259 "/>
<polygon class="st0" points="132.4,230 98,259 97.5,259 132.4,230 "/>
<polygon class="st0" points="579,259 576.5,259 577.5,257.8 "/>
<polygon class="st0" points="94,300 95.2,300 94,301 "/>
<polygon class="st0" points="132.4,230 98,259 40.3,307.7 39.8,307.1 97.5,259 132.4,230 "/>
<polygon class="st0" points="479,300 479,300 479,300 "/>
<polygon class="st0" points="480.2,301 479,301 479,300 "/>
<polygon class="st0" points="577.9,257.3 577.5,257.8 492.9,187.3 493.2,187 "/>
<g>
	<polygon class="st0" points="429.2,259 287.1,142 145,259 95.2,300 94,301 94,482 241,482 241,352 337,352 337,482 479,482 
		479,300 479,300 	"/>
	<polygon class="st0" points="488,183.3 488,29 407,29 407,115.8 289.5,18 92.1,182.3 21.9,240.8 0.3,259 -0.4,259.6 39.8,307.1 
		132.4,230 288.5,100 479.5,259 536.9,306.8 576.5,259 577.5,257.8 	"/>
</g>
<polygon class="st0" points="92.1,182.3 21.9,240.8 91.7,181.8 "/>
<polygon class="st0" points="132.4,230 98,259 40.3,307.7 39.8,307.1 97.5,259 132.4,230 "/>
</svg>
