<?xml version="1.0" encoding="utf-8"?>
<!-- Generator: Adobe Illustrator 23.0.0, SVG Export Plug-In . SVG Version: 6.00 Build 0)  -->
<svg version="1.1" id="Capa_1" xmlns="http://www.w3.org/2000/svg" xmlns:xlink="http://www.w3.org/1999/xlink" x="0px" y="0px"
	 viewBox="0 0 1920 1080" style="enable-background:new 0 0 1920 1080;" xml:space="preserve">
<style type="text/css">
	.st0{opacity:0.5;enable-background:new    ;}
	.st1{fill:#5E5E5E;}
	.st2{fill:#8E8E8E;}
	.st3{fill:#444444;}
	.st4{fill:#686868;}
	.st5{fill:#424141;}
	.st6{fill:#FFD41D;}
	.st7{fill:#D6D6D6;}
	.st8{fill:#FFDF57;}
	.st9{fill:#EDEDED;}
	.st10{fill:#545454;}
	.st11{fill:#6D6D6D;}
	.st12{fill:#E0E2E0;}
	.st13{fill:#FFFFFF;}
	.st14{fill:#757575;}
	.st15{fill:#00FFE6;}
</style>
<g>
	<title>PresentationTemp</title>
	<polygon class="st0" points="516.2,734.2 558,732.5 746.2,862.4 	"/>
	<polygon class="st0" points="786.3,499.2 655.6,560 950.2,681.5 	"/>
	<polygon class="st1" points="743.8,576 746.1,299.7 1054.6,122 1053.4,392.6 1280.7,525.6 1270.6,544.4 980.7,713.8 	"/>
	<polygon class="st2" points="751.9,568 755.3,305.4 1054.3,134.7 1053.4,392.6 	"/>
	<polygon class="st3" points="980,701 1282.7,525.6 1053.4,392.6 751.9,568 	"/>
	<polygon class="st4" points="998.4,600.1 1102.7,540.5 1161.2,576 1058,636.8 	"/>
	<polygon class="st4" points="805.8,572.6 906.7,632.2 1163.3,484.7 1059.3,426.5 	"/>
	<polygon class="st0" points="1037.5,743.3 1020.3,733 949.2,775.4 950.3,786.9 1097.1,872.9 1108.5,866 	"/>
	<polygon class="st5" points="962.9,785.8 1110.9,874 1183.1,831.6 1184.2,821.3 1035.2,734.2 962.9,776.6 	"/>
	<path class="st1" d="M962.9,776.6l149,89.4c0,0,73.4-44.7,72.2-44.7S1035,734.2,1035,734.2L962.9,776.6z"/>
	<polygon class="st2" points="979,781.2 1042,744.5 1168.2,816.7 1105.1,856.8 	"/>
	<polygon class="st0" points="1231.4,623 1158.8,658.9 1370.5,781.1 1479.9,716.3 	"/>
	<polygon class="st6" points="1215.6,639.2 1215.6,659.8 1394.5,765.3 1521.7,692 1521.7,689.7 1395.6,761.9 1395.6,745.8 
		1521.7,672.5 1521.7,670.2 1395.6,743.5 	"/>
	<polygon class="st7" points="1396,750.1 1521.7,678.2 1521.7,686.2 1396,758.7 	"/>
	<polygon class="st8" points="1215.6,639.2 1352,571.6 1521.7,670.2 1395.6,743.5 	"/>
	<polygon class="st9" points="1521.7,678.2 1516.9,675.4 1395.6,745.8 1395.6,750.4 	"/>
	<polygon class="st8" points="1521.7,689.7 1519.2,687.7 1395.6,758.5 1395.6,761.9 	"/>
	<polygon class="st10" points="1226.9,625.5 1228.9,602.8 1407.6,707.2 1533.1,634.6 1531.9,639.1 1408.5,709.3 1409,726.4 
		1535.2,653.5 1534.8,658.1 1408.5,729.5 	"/>
	<polygon class="st11" points="1353.6,530.1 1228.9,602.8 1407.6,707.2 1533.1,634.6 	"/>
	<polygon class="st12" points="1534.6,642.8 1534.6,650.8 1408.9,724.5 1408.6,715.2 	"/>
	<polygon class="st9" points="1530.8,639.7 1534.6,642.9 1408.7,715.2 1408.5,709.3 	"/>
	<polygon class="st11" points="1535.2,653.5 1533,651.8 1408.9,724.5 1408.9,726.4 	"/>
	<polygon class="st13" points="516.7,728.7 746.2,862.4 914.1,768.8 680.2,634 	"/>
	<polygon class="st14" points="662.6,799.5 658.7,796.6 795,719.3 799.7,721.3 	"/>
	<polygon class="st15" points="677.8,753.8 694.8,763.8 707.1,756.3 690.5,746.2 	"/>
	<polygon class="st15" points="674.3,734.2 688,726.8 722.1,747.7 709.1,755.4 	"/>
	<polygon class="st15" points="702.5,732.9 724.2,746.5 735.9,739.2 714.4,726 	"/>
	<polygon class="st15" points="693.8,710.8 737.8,738.2 751.3,730.7 705.4,703.7 	"/>
	<polygon class="st14" points="673.9,806.9 670,804.1 806.2,726.8 811,728.7 	"/>
	<polygon class="st14" points="688,815.4 684.2,812.6 820.4,735.2 825.1,737.2 	"/>
</g>
</svg>
