<?xml version="1.0" encoding="utf-8"?>
<!-- Generator: Adobe Illustrator 23.0.0, SVG Export Plug-In . SVG Version: 6.00 Build 0)  -->
<svg version="1.1" id="Capa_1" xmlns="http://www.w3.org/2000/svg" xmlns:xlink="http://www.w3.org/1999/xlink" x="0px" y="0px"
	 viewBox="0 0 320 512" style="enable-background:new 0 0 320 512;" xml:space="preserve">
<path d="M279,288h-93.1h-47.4H41h-9.3c-8.1,0-14.7,6.6-14.7,14.7v26.5c0,3.9,1.6,7.7,4.4,10.5l112.9,111c2.8,2.7,6.5,4.2,10.3,4.2
	h12.9c0.3,0,0.7,0,1,0c1.1,0.1,2.2,0.1,3.3,0c0.3,0,0.7,0,1,0h17.1c4,0,7.7-1.6,10.5-4.4l108.6-110.8c2.7-2.8,4.2-6.5,4.2-10.3
	v-26.7c0-8.1-6.6-14.7-14.7-14.7H279z"/>
</svg>
