<?xml version="1.0" encoding="utf-8"?>
<!-- Generator: Adobe Illustrator 23.0.0, SVG Export Plug-In . SVG Version: 6.00 Build 0)  -->
<svg version="1.1" id="Capa_1" xmlns="http://www.w3.org/2000/svg" xmlns:xlink="http://www.w3.org/1999/xlink" x="0px" y="0px"
	 viewBox="0 0 496 512" style="enable-background:new 0 0 496 512;" xml:space="preserve">
<style type="text/css">
	.st0{fill:#FFFFFF;}
</style>
<g>
	<path class="st0" d="M345.2,196.5l-11.7,17.6c22.1,25.7,35.4,59.1,35.4,95.7c0,81.2-65.7,146.9-146.9,146.9S75.1,391,75.1,309.8
		S140.8,162.9,222,162.9c14.7,0,28.9,2.2,42.4,6.2l13.8-20.7L254,114.3c-10.4-1.7-21-2.6-31.9-2.6c-109.4,0-198,88.7-198,198
		s88.7,198,198,198s198-88.7,198-198c0-37.7-10.5-73-28.8-103L345.2,196.5z"/>
	<path class="st0" d="M201.9,262.8l36-54c-5.2-0.8-10.5-1.2-15.9-1.2c-56.4,0-102.2,45.8-102.2,102.2c0,56.4,45.7,102.2,102.2,102.2
		s102.2-45.8,102.2-102.2c0-20.8-6.2-40.2-16.9-56.3l-34.4,51.6c0.1,1.5,0.2,3.1,0.2,4.7c0,28.2-22.9,51.1-51.1,51.1
		s-51.1-22.9-51.1-51.1C170.9,288.8,183.7,270.6,201.9,262.8z"/>
	<path class="st0" d="M294.6,148.3l-8.3,12.4l-0.5-0.2l-36.8,56l-28.2,42.3L197,294.5c-3.7,5.5-5,12.1-3.7,18.6
		c1.3,6.5,5.1,12.1,10.6,15.8l4.8,3.2c11.4,7.6,26.8,4.5,34.4-6.9l24.9-37.3c0,0,0-0.1,0-0.1l0,0c0,0,0,0.1,0,0.1l21.9-33l34-50.8
		c0,0,0,0,0,0l1.3-1.9l10.5-15.8l-0.1,0l3.4-5.1l40.9,9.2l33.2,7.5l58.8-88.3L313.8,4.3L255,92.5l18.6,26.1L294.6,148.3z"/>
</g>
</svg>
