<?xml version="1.0" encoding="utf-8"?>
<!-- Generator: Adobe Illustrator 23.0.0, SVG Export Plug-In . SVG Version: 6.00 Build 0)  -->
<svg version="1.1" id="Capa_1" xmlns="http://www.w3.org/2000/svg" xmlns:xlink="http://www.w3.org/1999/xlink" x="0px" y="0px"
	 viewBox="0 0 512 512" style="enable-background:new 0 0 512 512;" xml:space="preserve">
<style type="text/css">
	.st0{fill:#FFFFFF;}
</style>
<g>
	<path class="st0" d="M409.5,233.5c-3.2-6.5-11.4-8.7-17.4-4.7l-84.7,56.5l-85.3-113.7c-5.1-6.8-15.5-6.3-19.9,1l-37.3,62.2
		l-5.5,9.1L141,274.7h-0.5L50.1,421.3H206h293.4L409.5,233.5z"/>
	<path class="st0" d="M212,136l96.7,129.5l0.2-0.4l0.8,1.1l105.6-70.4c1.6-1.1,3.8-0.7,4.9,0.9l13.2,17.9c1.7,2.2,5.1,1.9,6.2-0.7
		l21.2-48.5l8.3-19.1l0.1-0.3c1.1-2.6-1-5.4-3.7-5l-14.7,1.6l-58.9,6.6c-2.8,0.3-4.2,3.5-2.5,5.7l11.9,16.1c1.2,1.7,0.8,4-0.9,5.2
		l-80.7,53.8c-1.6,1.1-3.7,0.7-4.9-0.8l-92.1-120.6L210,92.1c-1.5-2-4.6-1.9-6,0.3l-11,18.1L13.1,406.8c-1,1.7-0.5,3.9,1.2,5
		l14.7,8.9c1.7,1,3.9,0.5,5-1.2l172-283.2C207.4,134.1,210.5,133.9,212,136z"/>
</g>
</svg>
