<?xml version="1.0" encoding="utf-8"?>
<!-- Generator: Adobe Illustrator 23.0.0, SVG Export Plug-In . SVG Version: 6.00 Build 0)  -->
<svg version="1.1" id="Capa_1" xmlns="http://www.w3.org/2000/svg" xmlns:xlink="http://www.w3.org/1999/xlink" x="0px" y="0px"
	 viewBox="0 0 1920 1080" style="enable-background:new 0 0 1920 1080;" xml:space="preserve">
<style type="text/css">
	.st0{fill:#F4B73B;}
	.st1{fill:#DB9B28;}
	.st2{fill:#282828;}
	.st3{fill:#353535;}
	.st4{opacity:0.7;}
	.st5{opacity:0.9;fill:#282828;enable-background:new    ;}
	.st6{opacity:0.85;fill:#1E1E1E;enable-background:new    ;}
	.st7{fill:#6D6D6D;}
	.st8{fill:#A0A0A0;}
	.st9{fill:#F41137;}
	.st10{fill:#990028;}
	.st11{fill:#89002A;}
	.st12{fill:#7C7C7C;}
	.st13{fill:#FFFFFF;}
	.st14{fill:#FF1F30;}
	.st15{fill:#0B63FF;}
	.st16{fill:#0559D1;}
	.st17{fill:#0053B7;}
	.st18{fill:#2C82FF;}
	.st19{fill:#F4CC08;}
	.st20{fill:#E8BD0A;}
	.st21{fill:#D10DD1;}
	.st22{fill:#FC10EB;}
	.st23{fill:#E00BDB;}
	.st24{fill:#B70ABC;}
	.st25{fill:#DBB309;}
	.st26{fill:#FFE527;}
	.st27{fill:none;}
</style>
<title>DocentesPresentacion</title>
<g>
	<g id="Capa_4">
		<polygon class="st0" points="769,489.2 791.3,488.3 805.8,882.4 784.9,882.4 		"/>
		<polygon class="st0" points="1608,457 1576.2,822.8 1595.7,822.8 1624.4,456.3 		"/>
		<polygon class="st1" points="800.8,747 1496.3,701 1508.3,462 791.3,488.3 		"/>
		<polygon class="st0" points="1576.2,822.8 1482.8,702.7 1499.4,461.3 1608,457 		"/>
		<polygon class="st2" points="1662.9,454.9 732.9,490.6 732.9,472.8 745.3,465 1644.3,437 1662.9,439.1 		"/>
		<polygon class="st3" points="1459.4,362.9 1662.9,439.1 732.9,472.8 745.8,380.4 		"/>
		<g class="st4">
			<polygon class="st2" points="769,489.2 769.8,508.4 1622.9,472.8 1624.4,456.3 			"/>
			<polygon class="st2" points="793.8,555 1495.2,523.8 1499.4,461.3 791.3,488.3 			"/>
			<polygon class="st2" points="1576.2,822.8 1305.7,769.5 802.9,805.1 800.6,747 1482.8,702.7 			"/>
			<polygon class="st2" points="784.9,882.4 342.9,765.7 290.1,768.3 270.9,765.7 374,630.3 773.9,610.2 			"/>
			<polygon class="st5" points="1576.2,822.8 1482.8,702.7 1499.4,461.3 1608,457 			"/>
		</g>
		<polyline class="st6" points="1101.3,413.1 1050.1,410.4 1053.8,389.5 1092.4,388.3 1101.3,413.1 		"/>
		<polygon class="st7" points="1116.4,388 1075.4,388 1096.1,412.4 1132.9,406 		"/>
		<polygon class="st8" points="1101.6,326 1247.4,323.2 1236.8,405.5 1095.3,409.2 		"/>
		<polygon class="st8" points="1236.4,408.3 1096.1,412.4 1095.3,409.2 1236.8,405.5 		"/>
		<polygon class="st6" points="1296.9,405.2 1239.3,399.2 1248.6,378.6 1303.2,381.6 		"/>
		<polygon class="st6" points="1067.1,414.6 1070.8,419.2 965.8,422.5 952.3,394.3 972.3,394.1 		"/>
		<path class="st9" d="M987.5,385.3c0.6,0,90.1-2.5,90.1-2.5l0.8,31.5l-90.8,2.9v-7.8l86.4-2.4l-0.6-15.3l-86,2L987.5,385.3z"/>
		<polygon class="st10" points="973.4,366.9 987.5,385.3 987.5,393.7 972.8,374.7 		"/>
		<polygon class="st10" points="973.4,388.2 973.8,388.6 987.8,409.5 987.8,417.2 972.3,394.1 		"/>
		<polygon class="st11" points="981,388.4 973.4,388.2 987.8,409.5 996.8,409 		"/>
		<polygon class="st12" points="995.3,393.3 996.8,409 981,388.4 979.5,383.9 987.5,393.7 		"/>
		<polygon class="st13" points="1073.6,391.7 995.3,393.3 996.8,409 1074.3,407 		"/>
		<polygon class="st14" points="1077.6,382.9 1056.8,364.5 973.4,366.9 987.5,385.3 		"/>
		<polygon class="st15" points="1296.8,396.8 1296.9,405.2 1384.4,405.2 1384.4,360.4 1298,359.4 1298,368.2 1380.8,368.8 
			1379.5,397.4 		"/>
		<polygon class="st16" points="1282.3,378.2 1296.8,396.8 1296.9,405.2 1281.4,384.7 		"/>
		<polygon class="st17" points="1282.3,378.2 1288.7,378.2 1304.8,396.8 1296.8,396.8 		"/>
		<polygon class="st13" points="1305.2,368.2 1304.8,396.8 1379.5,397.4 1380.8,368.8 		"/>
		<polygon class="st16" points="1298,368.2 1283.8,350.4 1291.7,352.6 1298,359.4 		"/>
		<polygon class="st12" points="1290.3,358.8 1288.7,378.2 1304.8,396.8 1305.2,368.2 1298,368.2 		"/>
		<polygon class="st18" points="1384.4,360.4 1378.2,355.7 1314.2,359.4 		"/>
		<polygon class="st19" points="1313.8,351 1314.2,359.4 1390.8,355.1 1391.8,325 1382.8,325 1382.8,326.3 1315.2,328.3 
			1315.8,336.9 1387.8,333.2 1386.3,347.5 		"/>
		<polygon class="st20" points="1262,336.9 1313.8,351 1314.2,359.4 1262.3,343.4 		"/>
		<polygon class="st12" points="1269,324 1268.9,335.9 1320.5,350.8 1321,336.7 1315.8,336.9 		"/>
		<polygon class="st20" points="1262.4,315.6 1315.2,328.3 1315.8,336.9 1263,322.4 		"/>
		<polygon class="st21" points="1266.9,285.4 1266.5,292.9 1301.7,306.8 1301.9,297.4 		"/>
		<polygon class="st22" points="1344.4,284.4 1266.9,285.4 1301.9,297.4 1384.3,297.2 		"/>
		<path class="st23" d="M1301.7,306.8c0.6,0,78.3-2,78.3-2l-0.6,14.9l-79.1,0.6l-0.4,9l83-3.1l1.4-29l-82.4,0.2L1301.7,306.8z"/>
		<polygon class="st21" points="1265.5,307.5 1300.3,320.3 1299.8,329.3 1265.9,315 		"/>
		<polygon class="st13" points="1306.7,320.3 1307.3,306.7 1379.9,304.8 1379.3,319.7 		"/>
		<polygon class="st12" points="1273.9,295.8 1273.4,306.8 1306.7,320.3 1307.3,306.7 1301.7,306.8 		"/>
		<polygon class="st24" points="1265.5,307.5 1273.4,306.8 1306.7,320.3 1300.3,320.3 		"/>
		<polygon class="st25" points="1320.4,350.9 1313.7,351.1 1261.9,337 1268.9,335.9 		"/>
		<polygon class="st17" points="1291.7,352.6 1298,359.4 1314.3,359.5 		"/>
		<polygon class="st26" points="1262.4,315.6 1265.9,315 1274.5,318.5 		"/>
		<polygon class="st13" points="1321,336.7 1387.8,333.2 1386.3,347.5 1320.5,350.8 		"/>
		<polygon class="st26" points="1391.8,325 1383.2,322 1382.8,326.3 		"/>
	</g>
	<rect x="-1.9" y="0.2" class="st27" width="1921" height="1082.9"/>
</g>
</svg>
