<svg id="Capa_1" data-name="Capa 1" xmlns="http://www.w3.org/2000/svg" viewBox="0 0 1920 1080"><defs><style>.cls-1{fill:#3f3f3f;}.cls-2{fill:#b7b7b7;}.cls-3{fill:#333;}.cls-4{fill:#262626;}.cls-5{fill:#ff1f30;}.cls-6{fill:#0b63ff;}.cls-7{fill:#f4cc08;}.cls-8{fill:none;}.cls-9{fill:#d3d3d3;}</style></defs><title>NodoSistema</title><path class="cls-1" d="M1605.07,421.28c0,82.48-72.18,149.35-161.23,149.35-66.52,0-123.61-37.29-148.24-90.53-1-2.08-1.9-4.22-2.76-6.36a4.47,4.47,0,0,1-.19-.46l3.26-.49c.51-1.56.91-3,1.25-4.45,2.23-9.18,1.33-16.14-.13-29.24-1.5-13.51-7.67-21.76-9.08-23.49l-5.26.86a1.55,1.55,0,0,1,0-.22c2.85-80.15,73.9-144.33,161.14-144.33C1532.89,271.92,1605.07,338.79,1605.07,421.28Z"/><path class="cls-1" d="M675.09,553c-13.68,65.63-78.82,101.84-110.23,121C493,670.75,435.7,614.71,435.7,546c0-70.77,60.79-128.14,135.78-128.14a143,143,0,0,1,32.65,3.74C629.84,438.23,689.87,482,675.09,553Z"/><path class="cls-1" d="M864.74,850.33c-.52,73.23-36.34,108.33-54.47,134.08a154.06,154.06,0,0,1-72.62,19.69c-85.17,1.51-153-67.67-151.44-154.31C587.8,763.37,658,692.56,742.69,691.44c3.78-.05,7.53,0,11.25.27,19.28,9.13,56.87,22.75,79.47,53.62.65.9,13.37,14.07,14,15C862.48,781.87,865,816.08,864.74,850.33Z"/><path class="cls-1" d="M1289.05,328.53c-29.77,41.75-86.49,40.49-124.32,36.57A126.47,126.47,0,0,1,1131,349.71a1.31,1.31,0,0,1-.27-.19l5-5.46a18.41,18.41,0,0,0,.22-3.81c0-.2,0-.4,0-.61s0-.42,0-.64a5.36,5.36,0,0,0,0-.55,26.63,26.63,0,0,0-.46-3.19c0-.25-.1-.51-.17-.76s-.12-.51-.18-.78c-.14-.53-.28-1.05-.46-1.6-.07-.22-.14-.42-.21-.62a1.46,1.46,0,0,0-.12-.33,7.73,7.73,0,0,0-.3-.84c-.17-.46-.36-.94-.58-1.41s-.44-.95-.68-1.45a.45.45,0,0,0-.06-.12c-.17-.35-.36-.72-.58-1.1s-.44-.8-.68-1.19c-.32-.54-.68-1.08-1-1.63l-.51-.71q-.54-.77-1.17-1.53c-.26-.32-.53-.64-.82-1-.1-.12-.2-.26-.32-.38s-.42-.47-.65-.71l-.33-.36c-.39-.42-.82-.83-1.24-1.23s-.89-.84-1.36-1.26c0,0,0-.05-.09-.07-.49-.44-1-.88-1.57-1.32-.29-.24-.6-.48-.89-.7s-.61-.46-.93-.69c-13.66-9.95-21.44-7.56-24.63-5.54l-3,3.16a1.64,1.64,0,0,0-.14-.22,131.85,131.85,0,0,1-19.84-74.63c2.36-77.68,67.55-141.9,144.72-142.24,54.45-.24,99.27,31.43,118.8,77.26,1.57,13.25,10.17,29.42,4.15,56.23C1334.14,256.07,1312.36,295.84,1289.05,328.53Z"/><path class="cls-1" d="M791.08,302.36c-.22.61-20.76,13.07-21,13.67-.15.39-13.84,34.94-14,35.33-16.8,41.77-60.59,26-99,36.36C609.65,369.8,574.17,324,572.32,270.13c-2.42-70.13,53-124.29,121.93-120.62a125.8,125.8,0,0,1,57.91,17.77C762.6,191.09,810.73,248.88,791.08,302.36Z"/><path class="cls-1" d="M1341.9,776.88a143.83,143.83,0,0,1-94.09,34.75c-79.21,0-143.41-63.44-143.41-141.71a140.19,140.19,0,0,1,7.8-46.23c.12-.36.26-.72.39-1.07l2.82,1.35s11.66-14.25,16.8-23.67c5-9.17,9.63-20.08,10.19-21.4l-3-1.72a.58.58,0,0,1,.1-.12c.44-.51.88-1,1.34-1.49a143.73,143.73,0,0,1,107-47.37c62.85,0,116.24,39.94,135.61,95.52.5,14,7,31.18,3.29,53.95-2.26,13.87-12.48,38.73-16,54.33C1366.87,749.07,1358.26,759,1341.9,776.88Z"/><path class="cls-1" d="M1067.56,535.51c-1,2.6-5.34,7.37-6.49,10-6.62,15.09-14.15,29.8-25.5,39-26.34,21.33-67.38,29.61-103.5,30-4.8,0-10.75-6.79-15.5-7,.1-.14.18-.29.29-.43a12.77,12.77,0,0,0,2.22-7.25c0-.27,0-.54,0-.81s-.06-.61-.11-.92a9.62,9.62,0,0,0-.22-1.17,1,1,0,0,0-.07-.29,7.86,7.86,0,0,0-.27-1,2.22,2.22,0,0,0-.1-.31.26.26,0,0,1,0-.08,5.39,5.39,0,0,0-.27-.73.47.47,0,0,0-.06-.15,3.11,3.11,0,0,0-.22-.53s0,0,0,0l-.49-1a.4.4,0,0,1-.07-.13c-.26-.45-.51-.89-.78-1.33s-.46-.71-.72-1.07a2.17,2.17,0,0,0-.22-.34,1.43,1.43,0,0,0-.15-.18c-.25-.34-.51-.68-.78-1-.59-.71-1.22-1.39-1.88-2l-.8-.74,0,0c-.26-.22-.51-.44-.78-.65s-.56-.46-.84-.66-.52-.41-.79-.59l0,0-.85-.56c-.28-.19-.59-.37-.88-.54s-.58-.33-.88-.48l-.85-.42c-.29-.14-.58-.26-.86-.38-23.36-13.52-29.17-3-32.9.85l-3.5,3-7.82,3.86a138.24,138.24,0,0,1-28.15-36h0q-1.56-2.88-3-5.84-1-2.12-2-4.28a3,3,0,0,1-.17-.41.42.42,0,0,0-.07-.13c-.34-.75-.66-1.53-1-2.29s-.73-1.78-1.09-2.68l-.05-.16a.72.72,0,0,1-.09-.2c-.35-.9-.69-1.82-1-2.73s-.7-2-1-2.92c-.19-.56-.38-1.11-.55-1.67l-.45-1.42q-.93-2.91-1.68-5.87c-.43-1.58-.82-3.19-1.16-4.81-.19-.73-.34-1.46-.49-2.19a10.18,10.18,0,0,1-.2-1c-.14-.63-.26-1.25-.38-1.88l-.3-1.73c-.14-.75-.26-1.51-.38-2.26a3.62,3.62,0,0,1-.06-.46v0c-.17-1.11-.33-2.21-.46-3.31-.1-.7-.19-1.41-.24-2.11s-.15-1.32-.22-2c-.22-2.12-.37-4.28-.48-6.43-.11-2.31-.17-4.64-.17-7a137.6,137.6,0,0,1,27.7-83c.51-.68,1-1.35,1.56-2s1.19-1.51,1.8-2.25l.36-.45c.64-.78,1.27-1.54,1.93-2.29s1.4-1.61,2.13-2.41q3.22-3.58,6.72-7,1.94-1.85,4-3.63c.82-.73,1.65-1.44,2.48-2.15,1.07-.92,2.15-1.82,3.26-2.7a135.11,135.11,0,0,1,15.61-10.76v0A136,136,0,0,1,1008.33,362c14.74,12.56,34.62,28.55,48.24,55.06,1.57,3.07,3.09,7.76,4.5,11C1073.79,457.21,1082.82,495.05,1067.56,535.51Z"/><path class="cls-2" d="M695.18,501.89l-9.91.62a12.39,12.39,0,0,1,2.46-.62Z"/><path class="cls-2" d="M707,554.44a.17.17,0,0,1,0,.07h-1.11Z"/><path class="cls-2" d="M795.83,700.42l-.46.79-.71-.74.27-.38C795.23,700.18,795.52,700.3,795.83,700.42Z"/><polygon class="cls-2" points="804.62 331.89 804.6 331.9 804.04 331.48 804.62 331.89"/><path class="cls-2" d="M1079.84,498.94a16.15,16.15,0,0,1-1-1.93A17.71,17.71,0,0,0,1079.84,498.94Z"/><path class="cls-3" d="M917.13,592.7c-.26-.45-.51-.89-.78-1.33s-.46-.71-.72-1.07a6.15,6.15,0,0,0-.37-.52c-.25-.34-.51-.68-.78-1-.59-.71-1.22-1.39-1.88-2l-.8-.74,0,0c-.26-.22-.51-.44-.78-.65s-.56-.46-.84-.66-.52-.41-.79-.59l0,0-.85-.56c-.28-.19-.59-.37-.88-.54s-.58-.33-.88-.48l-.85-.42c-.29-.14-.58-.26-.86-.38-23.36-13.52-33.35-8.35-37.09-4.46a9.45,9.45,0,0,0-1.95,2.77l-1.71,3.48-3.47,5.92-6.38,10.91-3,5.09-50.69,86.71-2.31,3.19-3.48,4.82-.27.38.71.74c3.55,3.6,20,19.44,43.89,27.82l13.87-24.23,46.6-81.45L909,607.19l8.22-14.36A.4.4,0,0,1,917.13,592.7Z"/><path class="cls-3" d="M827.48,542.81a.42.42,0,0,0-.07-.13c-.34-.75-.66-1.53-1-2.29s-.75-1.78-1.09-2.68l-.05-.16a.72.72,0,0,1-.09-.2c-.35-.9-.69-1.82-1-2.73s-.7-2-1-2.92c-.19-.56-.38-1.11-.55-1.67l-.45-1.42q-.93-2.91-1.68-5.87c-.43-1.58-.82-3.19-1.16-4.81-.19-.73-.34-1.46-.49-2.19a10.18,10.18,0,0,1-.2-1c-.14-.63-.26-1.25-.38-1.88l-.3-1.73c-.14-.75-.26-1.51-.38-2.26a3.62,3.62,0,0,1-.06-.46v0c-.17-1.11-.33-2.21-.46-3.31-.1-.7-.19-1.41-.24-2.11s-.15-1.32-.22-2c-.22-2.12-.37-4.28-.48-6.43L739,499.21l-40.08,2.46-3.7.22-9.91.62h0c-4.5,1.54-13.26,6.89-9.41,24.84,2.55,11.87,6.78,18.66,10.37,22.47l51.8-2.41,89.63-4.19A3,3,0,0,1,827.48,542.81Z"/><polyline class="cls-2" points="705.84 554.51 706.96 554.44 716.48 553.9"/><path class="cls-3" d="M808.85,342.71l55.75,39.62c-.83.71-1.66,1.42-2.48,2.15q-2,1.78-4,3.63-3.49,3.38-6.72,7c-.73.8-1.43,1.6-2.13,2.41s-1.29,1.51-1.93,2.29l-.36.45c-.61.74-1.22,1.49-1.8,2.25s-1.05,1.34-1.56,2a138.43,138.43,0,0,0-9.3,14.06l-53.31-42.08-4.83-3.82-2.58-2-6.42-5.06-8.69-7.3s-2.92-12.49,9-26.06c4.77-5.47,9.59-8.05,13.65-9.17l1.12.81Z"/><path class="cls-3" d="M1135.3,334.5c0-.25-.12-.51-.18-.78-.14-.53-.28-1.05-.46-1.6-.07-.22-.14-.42-.21-.62a1.46,1.46,0,0,0-.12-.33,7.73,7.73,0,0,0-.3-.84c-.17-.46-.36-.94-.58-1.41s-.44-.95-.68-1.45a.45.45,0,0,0-.06-.12c-.17-.35-.36-.72-.58-1.1s-.44-.8-.68-1.19c-.32-.54-.68-1.08-1-1.63l-.51-.71q-.54-.77-1.17-1.53c-.26-.32-.53-.64-.82-1-.1-.12-.2-.26-.32-.38s-.42-.47-.65-.71l-.33-.36c-.39-.42-.82-.83-1.24-1.23s-.89-.84-1.36-1.26c0,0,0-.05-.09-.07-.51-.44-1-.88-1.57-1.32-.29-.24-.6-.48-.89-.7s-.61-.46-.93-.69c-13.66-9.95-21.44-7.56-24.63-5.54a7.14,7.14,0,0,0-1.71,1.39l-1.46,1.55-18.5,19.64,18.64-19.42-18.64,19.42L1060,345.43h0v0L1035.4,371l-4,4.21c.27.19.52.37.78.58l-.29.39a2.26,2.26,0,0,1,.15.22l.2.29,1.31,1.83c.09.12.19.24.27.37l1.14,1.55c.14.18.29.37.42.57,1.77,2.36,4.08,5.42,6.71,8.71.74.92,1.51,1.87,2.29,2.82l1.8,2.15.91,1.07,1,1.11,1.83,2.08c.12.14.24.27.35.41.46.49.9,1,1.36,1.48s1.14,1.22,1.73,1.83,1,1,1.45,1.49c1.63,1.65,3.25,3.19,4.85,4.55l1.14,1c.46.37.9.73,1.35,1.07l17.44-17.92,29.53-30.38,3.29-3.4,23.13-23.78C1135.42,335,1135.37,334.75,1135.3,334.5Z"/><polygon class="cls-2" points="1120.55 360.52 1117.4 363.95 1117.31 363.88 1120.55 360.52"/><path class="cls-3" d="M1297.16,468.34c-26.79,4-132.7,19.91-186.64,28-14.29,2.14-24.91,3.72-29.48,4.38h0c-.18-.22-.35-.45-.52-.68a3.3,3.3,0,0,1-.26-.39c-.15-.21-.29-.43-.42-.65a16.15,16.15,0,0,1-1-1.93l-.31-.66a27.5,27.5,0,0,1-1.34-3.7c-.15-.45-.27-.9-.41-1.38s-.25-1-.37-1.53-.19-.79-.27-1.2-.12-.63-.19-1c-.14-.64-.25-1.32-.37-2s-.26-1.57-.39-2.41q-.11-.71-.21-1.44c-.08-.59-.15-1.22-.23-1.85-1.52-12,2.32-26.7,3.22-29.9l5.75-.94,6.33-1,46.56-7.61L1273.4,418l9.29-1.52,5.26-.86c1.41,1.73,7.58,10,9.08,23.49C1298.49,452.2,1299.39,459.16,1297.16,468.34Z"/><path class="cls-3" d="M1142.4,578.9c-.56,1.32-5.18,12.23-10.19,21.4-5.14,9.42-16.8,23.67-16.8,23.67l-2.82-1.35-.13-.07-13.07-7.16c-11.66-6.37-24.07-13.09-35.39-19.11-2.37-1.28-4.7-2.52-7-3.7-3.63-1.92-7.11-3.75-10.35-5.42-.49-.25-1-.51-1.46-.74,2.12-4.76,14.39-31.3,28.48-44.9l3.67,1.85,9.09,4.62.8.41,12,6.11L1121.37,567l18,10.18Z"/><path class="cls-4" d="M812.72,338l-3-2.24-5.15-3.87-.56-.42.58.41a114,114,0,0,0,4.87-11.41,119.76,119.76,0,0,0,7.18-43.89c-1-45.64-26.78-86.83-64.51-109.31,10.44,23.81,39.08,81.77,19.42,135.25-.22.61-4.2,9.55-4.43,10.14-.16.39-.31.79-.46,1.18-16.8,41.76-71.2,63.47-109.61,73.87a124.59,124.59,0,0,0,44.06,8.1,114.87,114.87,0,0,0,72.3-25.05,1.57,1.57,0,0,1,.21-.17l-6.42-5.06-8.69-7.3s-2.92-12.49,9-26.06c4.77-5.47,9.59-8.05,13.65-9.17l1.12.81,26.58,18.89,55.75,39.62c1.07-.92,2.15-1.82,3.26-2.7Z"/><path class="cls-4" d="M698.88,501.67c-15.42-39.49-50.88-69.84-94.75-80.05,25.71,16.61,70.62,56.67,55.84,127.66-13.68,65.63-63.7,105.57-95.11,124.73,2.19.1,4.39.15,6.62.15,63,0,116-40.53,131.33-95.5A123.06,123.06,0,0,0,707,554.51h-1.11l1.12-.07,9.52-.54,21.44-1.21,91.7-5.19q-1-2.12-2-4.28L738,547.41l-51.8,2.41c-3.59-3.81-7.82-10.6-10.37-22.47-3.85-18,4.91-23.3,9.41-24.84h0l9.91-.62"/><path class="cls-4" d="M1391.22,669.92a140.66,140.66,0,0,1-49.32,107c39.21-55.4,42.69-120.61,41.52-153.16A140,140,0,0,1,1391.22,669.92Z"/><path class="cls-4" d="M1346.74,232.11c-4.48,74.86-67.53,136.22-141.65,138.12a132.3,132.3,0,0,1-40.36-5.13c47,1.51,97.64-8.69,127.41-50.44,45.21-63.41,47.5-116,44.26-143.36A133.71,133.71,0,0,1,1346.74,232.11Z"/><path class="cls-4" d="M1136,340.25c0-.2,0-.4,0-.61s0-.42,0-.64a5.36,5.36,0,0,0,0-.55,26.63,26.63,0,0,0-.46-3.19L1112.34,359l-3.29,3.4-29.53,30.38-17.44,17.92c-.45-.34-.89-.7-1.35-1.07l-1.14-1c-1.6-1.36-3.22-2.9-4.85-4.55-.48-.49-1-1-1.45-1.49s-1.17-1.22-1.73-1.83-.9-1-1.36-1.48c-.11-.14-.23-.27-.35-.41l-1.83-2.08-1-1.11-.91-1.07-1.8-2.15c-.8-1-1.56-1.9-2.29-2.82-2.63-3.29-4.94-6.35-6.71-8.71-.13-.2-.28-.39-.42-.57l-1.14-1.55c-.08-.13-.18-.25-.27-.37l-1.31-1.83-.2-.29a2.26,2.26,0,0,0-.15-.22l.29-.39c-.26-.21-.51-.39-.78-.58a136.44,136.44,0,0,0-23-13.24c12.41,11.34,31.33,31.31,44.95,57.82,1.57,3.08,3.09,6.23,4.49,9.47,12.73,29.2,18.2,65.21,2.94,105.67q-1.47,3.9-3.19,7.84a94.84,94.84,0,0,1-27.39,36.14c-26.34,21.33-63.09,28.44-99.2,28.83-4.81,0-9.61,0-14.36-.18.1-.14.18-.29.29-.43a12.77,12.77,0,0,0,2.22-7.25c0-.27,0-.54,0-.81s-.06-.61-.11-.92a9.62,9.62,0,0,0-.22-1.17,1,1,0,0,0-.07-.29,7.86,7.86,0,0,0-.27-1,2.22,2.22,0,0,0-.1-.31.26.26,0,0,1,0-.08,5.39,5.39,0,0,0-.27-.73.47.47,0,0,0-.06-.15,3.11,3.11,0,0,0-.22-.53s0,0,0,0l-.49-1L909,607.19l-9.25,16.16-46.6,81.45L839.26,729c-23.85-8.38-40.34-24.22-43.89-27.82l-.71-.74.27-.38a146.89,146.89,0,0,0-41-8.38c19.28,9.13,50.65,27.53,73.25,58.4.65.9,1.31,1.8,1.94,2.73,15.07,21.54,25.79,48.95,25.54,83.2-.53,73.23-26.27,122.62-44.4,148.37A162.75,162.75,0,0,0,893.47,845a153,153,0,0,0-31.93-96.54,149.76,149.76,0,0,0-15.49-17,5,5,0,0,0-.48-.44c4.11-6.93,7.3-12,9.69-15.7L860,707l.53-.92,45.84-80.24,4.23-7.4a130.1,130.1,0,0,0,15.12,4,136.16,136.16,0,0,0,120.31-34.66.75.75,0,0,0,.14-.12l.49-.46c-.49-.25-1-.51-1.46-.74,2.12-4.76,14.39-31.3,28.48-44.9l3.67,1.85c.15-.33.3-.67.44-1s.22-.5.32-.73a137.78,137.78,0,0,0,9.67-35.12c.12-.78.21-1.58.31-2.37a5,5,0,0,0,.07-.65l-3.62.53c-.37-.26-.71-.53-1-.82,0,0,0,0,0,0-.27-.22-.53-.46-.78-.7a15.65,15.65,0,0,1-1.65-1.8h0c-.18-.22-.35-.45-.52-.68a3.3,3.3,0,0,1-.26-.39c-.15-.21-.29-.43-.42-.65a16.15,16.15,0,0,1-1-1.93l-.31-.66a27.5,27.5,0,0,1-1.34-3.7c-.15-.45-.27-.9-.41-1.38s-.25-1-.37-1.53-.19-.79-.27-1.2-.12-.63-.19-1c-.14-.64-.25-1.32-.37-2s-.26-1.57-.39-2.41q-.11-.71-.21-1.44c-.08-.59-.15-1.22-.23-1.85-1.52-12,2.32-26.7,3.22-29.9l5.75-.94a3.51,3.51,0,0,0-.13-.49,136.85,136.85,0,0,0-15.18-33.88,1.34,1.34,0,0,0-.18-.28c.12,0,.22.08.34.12l7.77-8.07,9.91-10.26L1116.28,365l1-1.07,3.24-3.36h0l.07-.09,10.1-10.91,5-5.46A18.41,18.41,0,0,0,1136,340.25Z"/><path class="cls-4" d="M1297.16,468.34c-.34,1.41-.74,2.89-1.25,4.45l-3.26.49-11.19,1.65-172.87,25.54-12.44,1.83-8,1.19-3.62.53c-.37-.26-.71-.53-1-.82,0,0,0,0,0,0-.27-.22-.53-.46-.78-.7a15.65,15.65,0,0,1-1.65-1.8c4.57-.66,15.19-2.24,29.48-4.38C1164.46,488.25,1270.37,472.36,1297.16,468.34Z"/><path class="cls-5" d="M1251.77,228.79h-42.1l28,28a2.85,2.85,0,0,0,3.94.13,42.49,42.49,0,0,0,13-25,2.83,2.83,0,0,0-2.85-3.16Z"/><path class="cls-6" d="M1249,217.29a42.69,42.69,0,0,0-39.59-39.6,2.86,2.86,0,0,0-3,2.88v39.7h39.7a2.85,2.85,0,0,0,2.87-3Z"/><path class="cls-7" d="M1197.87,228.79V186.68a2.85,2.85,0,0,0-3.16-2.85,42.56,42.56,0,0,0-36.56,43.6c.78,22.74,20.35,41.38,43.1,41.1a42.34,42.34,0,0,0,24-7.82,2.82,2.82,0,0,0,.28-4.27Z"/><path class="cls-6" d="M1466.18,396.67h-69.41a5.78,5.78,0,0,0-5.78,5.78v52.06a5.78,5.78,0,0,0,5.78,5.78h69.41a5.78,5.78,0,0,0,5.78-5.78V402.45A5.78,5.78,0,0,0,1466.18,396.67Zm-57.84,11.57a5.78,5.78,0,1,1-5.78,5.78A5.78,5.78,0,0,1,1408.34,408.24Zm52.05,40.48h-57.83v-5.78l11.56-11.57,5.79,5.79L1443,414l17.35,17.35Z"/><rect class="cls-8" x="1487.87" y="416.91" width="8.68" height="8.68" rx="1.63"/><rect class="cls-8" x="1424.24" y="379.32" width="8.68" height="8.68" rx="1.63"/><rect class="cls-8" x="1487.87" y="398.12" width="8.68" height="8.68" rx="1.63"/><rect class="cls-8" x="1487.87" y="379.32" width="8.68" height="8.68" rx="1.63"/><path class="cls-5" d="M1500.88,367.75h-81a5.78,5.78,0,0,0-5.79,5.78v17.36H1443V379.32h34.7v57.84h23.14a5.78,5.78,0,0,0,5.78-5.79V373.53A5.78,5.78,0,0,0,1500.88,367.75Zm-68,18.62a1.62,1.62,0,0,1-1.63,1.62h-5.42a1.62,1.62,0,0,1-1.63-1.62v-5.43a1.63,1.63,0,0,1,1.63-1.62h5.42a1.63,1.63,0,0,1,1.63,1.62ZM1496.54,424a1.63,1.63,0,0,1-1.62,1.63h-5.43a1.62,1.62,0,0,1-1.62-1.63v-5.42a1.62,1.62,0,0,1,1.62-1.63h5.43a1.63,1.63,0,0,1,1.62,1.63Zm0-18.8a1.63,1.63,0,0,1-1.62,1.63h-5.43a1.62,1.62,0,0,1-1.62-1.63v-5.42a1.61,1.61,0,0,1,1.62-1.62h5.43a1.62,1.62,0,0,1,1.62,1.62Zm0-18.79a1.62,1.62,0,0,1-1.62,1.62h-5.43a1.61,1.61,0,0,1-1.62-1.62v-5.43a1.62,1.62,0,0,1,1.62-1.62h5.43a1.63,1.63,0,0,1,1.62,1.62Z"/><path class="cls-5" d="M663.48,300l-9.94-2.89a2,2,0,0,1-1.34-2.43L674.45,218a2,2,0,0,1,2.43-1.33l9.94,2.88a2,2,0,0,1,1.34,2.43l-22.25,76.64A2,2,0,0,1,663.48,300ZM644.9,281.66,652,274.1a2,2,0,0,0-.13-2.81l-14.77-13,14.77-13a1.94,1.94,0,0,0,.13-2.8l-7.09-7.57a2,2,0,0,0-2.77-.08l-23.49,22a1.94,1.94,0,0,0,0,2.85l23.49,22a1.94,1.94,0,0,0,2.77-.08Zm53.33.1,23.49-22a2,2,0,0,0,0-2.86l-23.49-22a2,2,0,0,0-2.77.08l-7.09,7.56a2,2,0,0,0,.13,2.8l14.77,13-14.77,13a2,2,0,0,0-.13,2.81l7.09,7.56a2,2,0,0,0,2.77.1Z"/><path class="cls-6" d="M1296.67,645.33A18.52,18.52,0,1,0,1273,663.11c-.14,3.72-1,6.59-2.55,8.54-3.56,4.44-11.41,5.18-19.72,6-6.52.6-13.28,1.25-18.81,3.91V648.18a18.52,18.52,0,1,0-11.11,0v46.13a18.55,18.55,0,1,0,12.22.41,8.12,8.12,0,0,1,3.45-3.1c3.75-1.9,9.35-2.41,15.29-3,9.77-.9,20.83-1.95,27.36-10,3.24-4,4.88-9.21,5-15.71a18.6,18.6,0,0,0,12.59-17.57Zm-70.36-18.51a3.71,3.71,0,1,1-3.7,3.7A3.72,3.72,0,0,1,1226.31,626.82Zm0,88.87A3.71,3.71,0,1,1,1230,712,3.72,3.72,0,0,1,1226.31,715.69Zm51.84-74.06a3.71,3.71,0,1,1-3.7,3.7A3.72,3.72,0,0,1,1278.15,641.63Z"/><path class="cls-7" d="M569.28,506.05l13.3,14.4a1.65,1.65,0,0,1,0,2.2l-32.19,34.87-13.68,1.65a3,3,0,0,1-3.17-3.43l1.52-14.82,32.19-34.87a1.35,1.35,0,0,1,2,0Zm23.88-3.66L586,494.6a5.46,5.46,0,0,0-8.14,0l-5.21,5.65a1.66,1.66,0,0,0,0,2.21l13.29,14.4a1.37,1.37,0,0,0,2,0l5.22-5.65A6.63,6.63,0,0,0,593.16,502.39ZM566.54,548v16.25H519.37V513.2h33.88a1.75,1.75,0,0,0,1.25-.56l5.9-6.38a2,2,0,0,0-1.26-3.28H517c-3.91,0-7.08,3.44-7.08,7.67v56.2c0,4.23,3.17,7.66,7.08,7.66H568.9c3.91,0,7.08-3.43,7.08-7.66v-25.2a1.76,1.76,0,0,0-3-1.35l-5.89,6.38A2,2,0,0,0,566.54,548Z"/><path class="cls-7" d="M731.12,842.69,705.76,836a6.36,6.36,0,0,1-5-6c0-3.44,3.1-6.22,6.93-6.22h15.57a15.55,15.55,0,0,1,8,2.21,4,4,0,0,0,4.58-.42l8.17-7.16a3.21,3.21,0,0,0-.43-5.17A35.62,35.62,0,0,0,723.32,807V796.87a3.59,3.59,0,0,0-3.75-3.37h-7.52a3.6,3.6,0,0,0-3.76,3.37V807h-.58c-15,0-27,11.53-25.6,25.21,1,9.71,9.25,17.62,19.68,20.36l24.07,6.32a6.4,6.4,0,0,1,5,6c0,3.43-3.1,6.22-6.93,6.22H708.34a15.47,15.47,0,0,1-8-2.22,4,4,0,0,0-4.58.42l-8.17,7.17a3.2,3.2,0,0,0,.42,5.16,35.67,35.67,0,0,0,20.31,6.33v10.12a3.6,3.6,0,0,0,3.76,3.37h7.52a3.59,3.59,0,0,0,3.75-3.37V887.89c10.95-.19,21.21-6,24.82-15.33,5.05-13-3.43-26.3-17-29.87Z"/><path class="cls-9" d="M925.84,454.32c0,2.12,0,5.3.11,9.56s.1,7.44.1,9.56c0,.36,0,.59-.16.68a3.34,3.34,0,0,1-.45.1,16.52,16.52,0,0,1-3.05.22,14.1,14.1,0,0,1-3.26-.22.75.75,0,0,1-.51-.83c0,.29,0-1.29.16-4.74q.32-10.92.31-14.33,0-2.9-.12-8.65c-.08-3.84-.12-6.73-.12-8.65,0-.39.13-.59.4-.59s.91,0,1.64.08,1.28.08,1.64.08.9,0,1.6-.08,1.24-.08,1.61-.08.5.2.5.59c0,1.92-.06,4.81-.2,8.65S925.84,452.39,925.84,454.32Z"/><path class="cls-9" d="M952.86,437.26q0,3.08-.16,9.23c-.11,4.1-.17,7.19-.17,9.25V473.5q0,.72-.51.72c-.28,0-.7,0-1.27.06s-1,.05-1.27.05a10.87,10.87,0,0,1-1.36-.11,12.93,12.93,0,0,0-1.37-.1c-.21,0-.46-.3-.75-.89q-1.28-2.61-5.68-11.59-1.22-2.5-3.68-7.38a1,1,0,0,0-.27-.32,1,1,0,0,0-.14.59c0,2.09,0,5.21.12,9.38s.11,7.29.11,9.37c0,.63-.16.94-.47.94h-6.07c-.33,0-.5-.27-.5-.83q0-2.91.18-8.78c.12-3.92.18-6.85.18-8.81s0-5.16-.16-9.27-.17-7.19-.17-9.24c0-.39.23-.59.68-.59a17.16,17.16,0,0,0,2.51-.22,12.2,12.2,0,0,0,1.39-.35,5.52,5.52,0,0,1,1.38-.24c.14,0,.36.31.65.92l6.54,13.76q.87,1.86,2.64,5.44c.29.56.54.84.76.84s.22-.7.22-2.1c0-1.89-.06-4.73-.2-8.52s-.2-6.63-.2-8.54c0-.66.12-1,.37-1,.7,0,1.76-.05,3.17-.14s2.47-.13,3.17-.13C952.75,436.43,952.86,436.71,952.86,437.26Z"/><path class="cls-9" d="M979.19,473.36c0,.49-.14.73-.49.73a9.08,9.08,0,0,1-1.92-.59,19.77,19.77,0,0,1-2-.81,13.65,13.65,0,0,1-7,2.21q-5.41,0-8.89-5.55t-3.43-13.82q0-8.53,3.33-14.17,3.44-5.82,8.92-5.82a8.92,8.92,0,0,1,5,1.56,11.67,11.67,0,0,1,4,4.85,2.65,2.65,0,0,1,.3.92,12.16,12.16,0,0,1-1.57,3.86c-1,2-1.72,3-2,3a4.45,4.45,0,0,1-.81-1.11,8.77,8.77,0,0,0-1.75-2.05,4.54,4.54,0,0,0-2.94-1.1q-2.64,0-4.17,3a14.93,14.93,0,0,0-1.44,6.92,13.72,13.72,0,0,0,1.49,6.95,4.81,4.81,0,0,0,4.36,2.64,7.84,7.84,0,0,0,4-1.37c0-.6-.14-2.1-.32-4.53-.15-1.87-.23-3.37-.23-4.52,0-.35.08-.55.23-.62a.51.51,0,0,1,.28-.06,11.81,11.81,0,0,1,1.54.15,11.63,11.63,0,0,0,1.55.15q.56,0,1.68-.12t1.68-.12c.29,0,.44.29.44.88,0,.87,0,2.17-.1,3.91s-.09,3.05-.09,3.91q0,3.46.33,10.4Z"/><path class="cls-9" d="M901.39,511.83a14.9,14.9,0,0,1-3,9.37,11.46,11.46,0,0,1-6.4,4.4l-.23,0c-.27,0-.86-1.26-1.78-3.78a21.57,21.57,0,0,1-1.39-4.62.36.36,0,0,1,.26-.38,14.15,14.15,0,0,0,3.37-1.51,4.92,4.92,0,0,0,1.82-4.15,8.25,8.25,0,0,0-1.19-3.9c-1.38-2.45-2.13-3.8-2.24-4.07a15.41,15.41,0,0,1-1.21-6.2,11.76,11.76,0,0,1,3-8.19,11.18,11.18,0,0,1,5.94-3.5l.3,0c.17,0,.31.22.42.65q.45,2,2.12,7.11a1.12,1.12,0,0,1,.05.27c0,.31-.1.46-.31.46a2.71,2.71,0,0,1-.48-.08,2.6,2.6,0,0,0-.5-.08,3.08,3.08,0,0,0-2.21.89,3.63,3.63,0,0,0-1.14,2.85,9.08,9.08,0,0,0,1.26,4l2.33,4.53A15.14,15.14,0,0,1,901.39,511.83Z"/><path class="cls-9" d="M910.67,511.86c0,1.31,0,3.26.05,5.86s0,4.53,0,5.83a.6.6,0,0,1-.44.67,13.2,13.2,0,0,1-2.68.16,13.38,13.38,0,0,1-2.7-.16.64.64,0,0,1-.47-.35,4.78,4.78,0,0,1,0-.81c0-1.24,0-3.1.06-5.59s0-4.36,0-5.61q0-7.65-.39-12.18,0-.44,0-.57c0-.36.16-.53.47-.53a10,10,0,0,1,1.5.16,11.68,11.68,0,0,0,1.52.16,13.1,13.1,0,0,0,1.52-.14,12.55,12.55,0,0,1,1.53-.13q.42,0,.42.54c0,.07,0,.24,0,.51Q910.66,504.93,910.67,511.86Zm.45-20q0,4.7-3.43,4.69a3,3,0,0,1-2.44-1.19,6.2,6.2,0,0,1,0-6.95,3,3,0,0,1,2.41-1.24,2.94,2.94,0,0,1,2.36,1.27A5.35,5.35,0,0,1,911.12,491.84Z"/><path class="cls-9" d="M924.3,502.43a1.62,1.62,0,0,1-.26.72,2.87,2.87,0,0,0-1-.18,2.36,2.36,0,0,0-1.74.7,3,3,0,0,0-.84,2.29,5,5,0,0,0,.89,2.39,28.26,28.26,0,0,1,1.67,2.94,11,11,0,0,1,.89,4.39,13.26,13.26,0,0,1-.35,2.91,6.57,6.57,0,0,1-1,2.48,12.67,12.67,0,0,1-3,2.91,6.44,6.44,0,0,1-3.45,1.24c-.23,0-.76-1-1.57-2.92a15.35,15.35,0,0,1-1.22-3.57.27.27,0,0,1,.2-.3l2.47-.7a2.56,2.56,0,0,0,1.54-2.48,5.77,5.77,0,0,0-.89-2.75c-1.07-1.81-1.62-2.77-1.67-2.88a10.07,10.07,0,0,1,1.77-11,7,7,0,0,1,5.1-2.51c.19,0,.65,1,1.39,2.9A18.33,18.33,0,0,1,924.3,502.43Z"/><path class="cls-9" d="M938.55,516.33c0,.54,0,1.35-.13,2.45s-.14,1.9-.14,2.41a2.81,2.81,0,0,1-.1,1,2.29,2.29,0,0,1-.58.62,7.57,7.57,0,0,1-5,1.92q-5.07,0-5.07-6,0-1.77.09-5.34c.06-2.38.09-4.17.09-5.35,0-.79-.3-1.19-.89-1.19h-.23l-.23,0c-.44,0-.67-.24-.67-.73,0-.29,0-.73.05-1.32s0-1,0-1.32,0-.95,0-1.72-.05-1.35-.05-1.73.38-.55,1.13-.59c.42,0,.64-.2.68-.54a31.42,31.42,0,0,0,.07-3.23c0-2.32-.07-3.42-.07-3.31,0-2.09.13-3.13.38-3.13a4.35,4.35,0,0,1,1.35.32,8.75,8.75,0,0,0,1.39.41l2.7.51c.29,0,.44.19.44.46,0,.72,0,1.8-.12,3.26s-.11,2.55-.11,3.28q0,1.32.51,1.32c.4,0,1,0,1.85-.08s1.46-.08,1.88-.08c.26,0,.38.14.38.41s0,1-.08,1.86-.09,1.44-.09,1.85,0,1.06,0,1.89,0,1.46,0,1.89-.17.56-.5.56-.63,0-1.18,0-.94,0-1.17,0h-1.32c-.17,0-.26.4-.26,1.19v1.91c0,.86,0,1.5,0,1.91a10,10,0,0,0,.33,3.13,1.82,1.82,0,0,0,1.86,1.15,4,4,0,0,0,1.25-.3,3.78,3.78,0,0,1,1.15-.31C938.42,515.74,938.55,515.93,938.55,516.33Z"/><path class="cls-9" d="M956.44,509.59c0,1.82-.38,2.85-1.14,3.1-.13,0-1.34.24-3.63.59-1.38.24-3.43.52-6.17.84a3.76,3.76,0,0,0,3.81,3.42,5,5,0,0,0,3.13-1.29l1.34-1.3A9.09,9.09,0,0,1,955,517.7a13.7,13.7,0,0,1,.87,3.15,1.47,1.47,0,0,1-.26.62A7.21,7.21,0,0,1,949,525a7.83,7.83,0,0,1-6.73-3.74q-2.62-3.79-2.62-10.16A19.73,19.73,0,0,1,942,501c1.62-2.73,3.75-4.1,6.42-4.1,2.24,0,4.15,1.26,5.71,3.77A16.62,16.62,0,0,1,956.44,509.59ZM950.31,508a5.61,5.61,0,0,0-.77-2.94,2.2,2.2,0,0,0-1.84-1.26c-.74,0-1.35.47-1.83,1.43a6.83,6.83,0,0,0-.66,3.09c0,.49.16.73.49.73a20.69,20.69,0,0,0,4-.62C950.11,508.29,950.31,508.15,950.31,508Z"/><path class="cls-9" d="M986.37,523.22c0,.63-.17,1-.52,1a16.71,16.71,0,0,1-2.6.11,12.43,12.43,0,0,1-2.66-.16c-.35-.11-.53-.55-.53-1.32s0-2.06.06-3.7,0-2.88,0-3.71c0-3.14,0-5.38-.07-6.7q-.11-3.21-2-3.21a2.19,2.19,0,0,0-1.64,1.06,4.33,4.33,0,0,0-.9,2.36q-.08,1.13-.07,6.63c0,.84,0,2.12,0,3.84s.05,3,.05,3.86c0,.59-.17.89-.51.89h-5.31c-.32,0-.49-.37-.49-1.1s0-2.11.06-3.8,0-3,0-3.83c0-.66,0-1.67,0-3s0-2.37,0-3.05c0-2.57-.64-3.85-1.91-3.85a2.45,2.45,0,0,0-1.67.92,3,3,0,0,0-1,2.1q0,2.44,0,7.32c0,3.25,0,5.69,0,7.3a2,2,0,0,1-.11.84q-.11.16-.54.21a18.86,18.86,0,0,1-2.49.11,21.66,21.66,0,0,1-2.51-.16c-.28,0-.44-.1-.5-.19a2.45,2.45,0,0,1-.07-.81q0-2.15,0-6.45t0-6.45c0-2.94-.14-6.26-.42-9.94,0-.22,0-.38,0-.49a.68.68,0,0,1,.25-.61,4.06,4.06,0,0,1,1.45-.41q1.32-.18,1.56-.24l1.39-.57a3.65,3.65,0,0,1,1.38-.37c.23,0,.34.62.35,1.87a5.81,5.81,0,0,0,.14,1.87,1.92,1.92,0,0,0,.41-.38,17.9,17.9,0,0,1,2.49-2.58,4.78,4.78,0,0,1,2.92-1,4.23,4.23,0,0,1,2.88,1.11,5.89,5.89,0,0,1,1.84,3.47,9.4,9.4,0,0,1,2.55-3.26,5.12,5.12,0,0,1,3.18-1.32,4.8,4.8,0,0,1,3.76,1.64,7.75,7.75,0,0,1,1.65,5.31c0,.95,0,2.38,0,4.3s-.05,3.34-.05,4.29c0,1.14,0,2.84.05,5.11S986.37,522.09,986.37,523.22Z"/><path class="cls-9" d="M1007.31,510.75c0,1.38.06,3.44.16,6.17s.16,4.78.16,6.14c0,.72-.21,1.11-.61,1.16a45.88,45.88,0,0,1-5,.24c-.22,0-.37-.51-.45-1.55s-.16-1.55-.27-1.57a1.86,1.86,0,0,0-.37.46q-2,3-4.2,3-3.42,0-5.66-4.15a19,19,0,0,1-2.12-9.27q0-6.21,2.19-10t6.24-3.93q2.75,0,4.34,3c0,.09.09.14.12.14s.23-.44.36-1.31.3-1.3.49-1.3a10.26,10.26,0,0,1,2.47.56,18.36,18.36,0,0,1,2.48.92.48.48,0,0,1,.27.43c0,.07,0,.26-.06.56A91.3,91.3,0,0,0,1007.31,510.75Zm-5.64.16a7,7,0,0,0-.94-3.78,2.74,2.74,0,0,0-4.88,0,7.06,7.06,0,0,0-.93,3.8,6.85,6.85,0,0,0,1,3.75,2.8,2.8,0,0,0,2.38,1.56,2.84,2.84,0,0,0,2.44-1.49A7,7,0,0,0,1001.67,510.91Z"/></svg>