<?xml version="1.0" encoding="utf-8"?>
<!-- Generator: Adobe Illustrator 23.0.0, SVG Export Plug-In . SVG Version: 6.00 Build 0)  -->
<svg version="1.1" id="Capa_1" xmlns="http://www.w3.org/2000/svg" xmlns:xlink="http://www.w3.org/1999/xlink" x="0px" y="0px"
	 viewBox="0 0 1080 1080" style="enable-background:new 0 0 1080 1080;" xml:space="preserve">
<style type="text/css">
	.st0{fill:#353535;}
	.st1{fill:#282828;}
	.st2{fill:#EFEFEF;}
	.st3{opacity:0.7;fill:#282828;enable-background:new    ;}
	.st4{opacity:0.7;}
	.st5{fill:#F2F2F2;}
	.st6{fill:#CECECE;}
	.st7{fill:#F4CC08;}
	.st8{fill:#919191;}
	.st9{fill:#0B63FF;}
	.st10{fill:#FF1F30;}
	.st11{fill:#FC10EB;}
	.st12{fill:none;}
</style>
<g>
	<polygon class="st0" points="181.4,290.8 192,287.1 207.9,289.4 207.9,798.1 197.2,800.1 186.3,790.8 	"/>
	<title>mural</title>
	<polygon class="st1" points="231.6,288.4 192,287.1 197.2,800.1 236.8,796.5 	"/>
	<polygon class="st0" points="886.4,723.3 908.2,731 918.6,729.4 931.1,308.1 919.5,306.6 896.1,308.6 	"/>
	<polygon class="st1" points="936.9,727.8 908.2,731 919.5,306.6 948.2,307.4 	"/>
	<polygon class="st2" points="236.4,728.2 904.6,674.4 913.4,327.6 232,314.3 	"/>
	<polygon class="st3" points="236.4,759.7 295.9,723.3 904.6,674.4 887.2,689.9 886.4,723.3 880.8,712.8 277.2,768.6 236.8,796.5 	
		"/>
	<polygon class="st3" points="236.4,728.2 241.7,727.8 238.1,314.5 232,314.3 	"/>
	<g class="st4">
		<polygon class="st1" points="402.5,471 312.5,472.8 311.3,357 401.8,357.7 		"/>
	</g>
	<polygon class="st5" points="399.9,470.3 309.9,472.1 308.7,356.2 399.3,357 	"/>
	<polygon class="st6" points="392.1,373.2 317.4,372.9 317.3,365.9 392,366.3 	"/>
	<polygon class="st6" points="391.7,384.3 317,384.1 317,377.1 391.6,377.3 	"/>
	<polygon class="st6" points="391.3,394.8 316.6,394.9 316.6,387.9 391.2,387.9 	"/>
	<polygon class="st6" points="391.3,405.3 316.7,405.6 316.6,398.6 391.3,398.5 	"/>
	<polygon class="st6" points="391.5,421.7 317,422.3 316.9,415.3 391.4,414.9 	"/>
	<polygon class="st6" points="391,432.8 316.6,433.6 316.5,426.6 391,425.9 	"/>
	<polygon class="st6" points="390.6,443.2 316.2,444.3 316.1,437.3 390.6,436.5 	"/>
	<polygon class="st6" points="390.7,453.8 316.2,454.9 316.2,448 390.7,446.9 	"/>
	<g class="st4">
		<polygon class="st1" points="407.4,603.9 318.3,608.7 317.2,494.7 406.8,492.3 		"/>
	</g>
	<polygon class="st5" points="404.8,603.3 315.6,608.1 314.5,494 404.2,491.7 	"/>
	<polygon class="st7" points="398.6,510.5 322,512.8 321.9,505.9 398.6,503.7 	"/>
	<polygon class="st6" points="398.2,521.3 321.6,523.8 321.6,517 398.2,514.5 	"/>
	<polygon class="st6" points="397.9,531.7 321.2,534.4 321.2,527.6 397.8,525 	"/>
	<polygon class="st6" points="397.9,542.2 321.3,545.1 321.3,538.2 397.9,535.4 	"/>
	<polygon class="st6" points="397.9,558.2 321.5,561.5 321.5,554.6 397.9,551.5 	"/>
	<polygon class="st6" points="397.5,569.1 321.1,572.6 321.1,565.7 397.5,562.4 	"/>
	<polygon class="st6" points="397.1,579.5 320.7,583.1 320.7,576.3 397.1,572.7 	"/>
	<polygon class="st6" points="397.1,589.8 320.9,593.7 320.8,586.8 397.1,583 	"/>
	<g class="st4">
		<polygon class="st1" points="520.2,495.2 435.7,497.5 435.4,385.4 520.3,385.6 		"/>
	</g>
	<polygon class="st5" points="517.8,494.6 433.2,496.8 432.9,384.7 517.9,384.9 	"/>
	<polygon class="st6" points="477.3,403.2 439.4,403.4 439.4,396.6 477.3,396.5 	"/>
	<polygon class="st6" points="477,414.1 439.2,414.2 439.2,407.5 477,407.4 	"/>
	<polygon class="st6" points="476.8,424.4 439,424.7 439,417.9 476.8,417.7 	"/>
	<polygon class="st6" points="511.6,434.2 439,435.1 439,428.3 511.6,427.6 	"/>
	<polygon class="st6" points="511.6,450.1 439,451.2 439,444.5 511.6,443.5 	"/>
	<polygon class="st6" points="511.1,460.7 438.7,462 438.6,455.3 511.1,454.1 	"/>
	<polygon class="st6" points="510.7,470.9 438.2,472.4 438.2,465.7 510.7,464.3 	"/>
	<polygon class="st6" points="510.7,481.1 438.3,482.7 438.2,476 510.7,474.5 	"/>
	<polygon class="st8" points="511.8,423.3 480.7,423.6 480.6,397.3 511.8,397.2 	"/>
	<g class="st4">
		<polygon class="st1" points="877.9,589.5 809.1,593.4 810.8,493.3 880,491.2 		"/>
	</g>
	<polygon class="st5" points="876.1,589 807,592.9 808.7,492.6 878,490.7 	"/>
	<polygon class="st6" points="871.7,571.7 812.7,574.8 812.8,568.8 871.9,565.8 	"/>
	<polygon class="st6" points="871.6,580.8 812.5,584.1 812.7,578.1 871.6,574.9 	"/>
	<polygon class="st8" points="862.3,561 820.6,563 821.5,508.8 863.4,507.4 	"/>
	<g class="st4">
		<polygon class="st1" points="774.3,482.3 700.8,484.1 701.9,379.6 775.9,379.8 		"/>
	</g>
	<polygon class="st5" points="772.3,481.6 698.6,483.5 699.8,378.9 773.8,379.1 	"/>
	<polygon class="st6" points="768.9,396.7 705.6,396.7 705.7,390.4 769,390.4 	"/>
	<g class="st4">
		<polygon class="st1" points="677.6,583.9 558.8,590.1 559.3,413.3 679.2,412.6 		"/>
	</g>
	<polygon class="st5" points="674.3,583 555.2,589.2 555.8,412.2 675.9,411.5 	"/>
	<g class="st4">
		<polygon class="st1" points="781.5,610.4 708.8,615 710,512.1 783.1,509.7 		"/>
	</g>
	<polygon class="st5" points="779.5,610 706.6,614.4 707.9,511.5 781.1,509.1 	"/>
	<polygon class="st6" points="774.9,523.8 714.6,526 714.7,519.8 775,517.7 	"/>
	<polygon class="st6" points="774.4,533.7 714,536 714.1,529.8 774.5,527.5 	"/>
	<polygon class="st6" points="773.9,543 713.6,545.6 713.7,539.4 774,536.9 	"/>
	<polygon class="st6" points="773.7,552.4 713.4,555.1 713.5,549 773.8,546.3 	"/>
	<polygon class="st6" points="773.5,567 713.3,569.9 713.3,563.8 773.6,560.9 	"/>
	<polygon class="st6" points="773,576.8 712.8,579.9 712.9,573.8 773.1,570.7 	"/>
	<polygon class="st6" points="772.5,586.2 712.2,589.4 712.3,583.3 772.6,580.1 	"/>
	<polygon class="st6" points="772.3,595.5 712.2,599 712.2,592.7 772.4,589.4 	"/>
	<g class="st4">
		<polygon class="st1" points="875.5,462.4 805.9,463.8 807.7,362.1 877.6,362.7 		"/>
	</g>
	<polygon class="st5" points="873.6,461.8 803.9,463.2 805.6,361.4 875.6,362 	"/>
	<polygon class="st6" points="869.6,376.3 811.9,376 812,369.8 869.8,370.2 	"/>
	<polygon class="st6" points="869.1,386 811.4,385.9 811.6,379.7 869.2,380 	"/>
	<polygon class="st6" points="868.5,395.3 810.9,395.3 811,389.2 868.7,389.3 	"/>
	<polygon class="st6" points="868.4,404.6 810.7,404.8 810.9,398.6 868.5,398.5 	"/>
	<polygon class="st9" points="722.9,451.2 712.2,451.4 712.4,432.6 723.1,432.5 	"/>
	<polygon class="st7" points="736.7,450.7 726.1,450.8 726.4,425.5 737,425.3 	"/>
	<polygon class="st10" points="749.1,450.2 738.5,450.3 738.8,419.8 749.5,419.7 	"/>
	<polygon class="st11" points="762.6,449.3 752.1,449.5 752.7,408.4 763.2,408.3 	"/>
	<polygon class="st6" points="765.9,466.6 702.8,467.9 702.9,461.7 766,460.4 	"/>
	<g class="st4">
		<polygon class="st1" points="516.4,630.6 432.4,635.9 432,525.4 516.5,522.5 		"/>
	</g>
	<polygon class="st5" points="514,630.1 429.9,635.3 429.5,524.8 514.2,521.9 	"/>
	<polygon class="st6" points="508.8,540.6 436.5,543.4 436.5,536.7 508.8,534.1 	"/>
	<polygon class="st6" points="506.5,614.5 434.5,618.6 434.4,612 506.5,607.9 	"/>
	<path class="st7" d="M495.5,576.8l-21.5,1l14.4,13.1c0.5,0.5,1.5,0.5,2,0c3.5-3.4,5.9-7.8,6.6-12.6c0.1-0.7-0.5-1.4-1.2-1.5
		C495.7,576.8,495.6,576.8,495.5,576.8L495.5,576.8z"/>
	<path class="st10" d="M494.1,571.2c-0.8-10.5-9.4-18.4-20.2-18.7c-0.9,0-1.6,0.6-1.6,1.5v19.7l20.3-0.9
		C493.4,572.7,494.1,572,494.1,571.2L494.1,571.2L494.1,571.2z"/>
	<path class="st9" d="M468.1,578.1v-20.9c0-0.8-0.6-1.4-1.4-1.4c-0.1,0-0.2,0-0.2,0c-10.9,2-19.3,11.5-18.9,22.5
		c0.5,11.3,10.6,20,22.3,19.3c4.4-0.3,8.7-1.9,12.2-4.5c0.6-0.5,0.8-1.3,0.3-1.9c-0.1-0.1-0.1-0.2-0.2-0.2L468.1,578.1z"/>
	<path class="st9" d="M636.1,467.8c-1.2-0.4-2.2-0.9-3.1-1.6l-5.7,8.2c1,0.5,2,1.2,2.9,2L636.1,467.8z"/>
	<path class="st9" d="M606.6,498.4l-10.2,9.8c0.9,0.7,1.8,1.6,2.4,2.6l10.3-9.8C608.2,500.2,607.4,499.3,606.6,498.4z"/>
	<path class="st9" d="M647.4,457.9c0.1-4.4-3.4-8-7.7-8c-0.1,0-0.2,0-0.2,0c-4.5,0.2-8.1,3.8-8.2,8.3c-0.1,4.4,3.4,8,7.8,8
		c0.1,0,0.2,0,0.3,0C643.8,466.1,647.3,462.4,647.4,457.9z"/>
	<path class="st9" d="M631.3,458.2c0-4.5,3.7-8.2,8.2-8.3c4.4-0.1,8,3.4,8,7.8c0,0.1,0,0.2,0,0.2c-0.1,4.5-3.6,8.2-8.1,8.3
		c-4.4,0.1-8-3.4-8-7.7C631.3,458.4,631.3,458.3,631.3,458.2z"/>
	<path class="st9" d="M590.2,508.4c-4.6,0.2-8.3,3.9-8.3,8.6c-0.1,4.4,3.4,8,7.8,8c0.2,0,0.3,0,0.5,0c4.6-0.2,8.2-4,8.3-8.5
		c0.1-4.4-3.4-8-7.8-8C590.5,508.4,590.4,508.4,590.2,508.4z"/>
	<path class="st9" d="M590.2,524.9c-4.4,0.2-8-3.2-8.3-7.6c0-0.2,0-0.3,0-0.5c0.1-4.6,3.7-8.3,8.3-8.6c4.4-0.2,8,3.2,8.2,7.6
		c0,0.2,0,0.2,0,0.4C598.3,520.9,594.8,524.7,590.2,524.9z"/>
	<path class="st9" d="M642.7,502.3c-1.8,0.1-3.6,0.6-5,1.7l-6.2-6l-1.4-1.4c1.9-2.5,3-5.5,3-8.6c0.2-7.4-5.8-13.5-13.1-13.6
		c-0.2,0-0.4,0-0.5,0c-3.5,0.1-6.9,1.5-9.4,4l-1.6-1.3l-5-4.2c0.8-1.4,1.2-2.9,1.2-4.5c0.1-5-3.9-9-8.9-9.1c-0.1,0-0.2,0-0.3,0
		c-5.1,0.2-9.3,4.4-9.4,9.5c-0.1,5,3.9,9,8.9,9.1c0.2,0,0.2,0,0.4,0c2.1-0.1,4.2-0.9,5.9-2.2l5.1,4.2l1.6,1.3
		c-1.4,2.3-2.2,4.8-2.2,7.5c-0.2,7.3,5.8,13.4,13.1,13.6c0.2,0,0.5,0,0.6,0c3-0.1,5.9-1.2,8.3-3l1.4,1.4l6.2,6
		c-1,1.6-1.6,3.4-1.6,5.1c-0.1,4.8,3.7,8.7,8.5,8.9c0.2,0,0.3,0,0.5,0c5.1-0.2,9-4.4,9-9.4c0.2-4.8-3.7-8.8-8.4-8.9
		C643.1,502.3,642.9,502.3,642.7,502.3z M619.3,495.2c-3.4,0.1-6.2-2.6-6.3-5.9c0-0.1,0-0.2,0-0.3c0-3.6,2.9-6.5,6.4-6.6
		c3.4-0.1,6.2,2.6,6.3,6c0,0.1,0,0.2,0,0.2C625.6,492.2,622.8,495,619.3,495.2z"/>
	<polygon class="st7" points="657.3,441.2 573.9,442.3 574,431 657.5,430.1 	"/>
	<polygon class="st6" points="652.4,541.4 573.9,544.6 573.9,536.8 652.5,533.7 	"/>
	<polygon class="st6" points="651.8,553.7 573.4,557.1 573.4,549.3 651.9,546.1 	"/>
	<polygon class="st12" points="905.6,673.5 236.4,728.2 230.6,314.4 913.3,326.9 	"/>
</g>
</svg>
