<?xml version="1.0" encoding="utf-8"?>
<!-- Generator: Adobe Illustrator 23.0.0, SVG Export Plug-In . SVG Version: 6.00 Build 0)  -->
<svg version="1.1" id="Capa_1" xmlns="http://www.w3.org/2000/svg" xmlns:xlink="http://www.w3.org/1999/xlink" x="0px" y="0px"
	 viewBox="0 0 1920 1080" style="enable-background:new 0 0 1920 1080;" xml:space="preserve">
<style type="text/css">
	.st0{opacity:0.7;fill:#1E1E1E;enable-background:new    ;}
	.st1{fill:#262626;}
	.st2{fill:#161616;}
	.st3{fill:#2D2D2D;}
	.st4{fill:#F41137;}
	.st5{fill:#990028;}
	.st6{fill:#FFFFFF;}
	.st7{opacity:0.3;fill:#1E1E1E;enable-background:new    ;}
	.st8{fill:#E8E8E8;}
	.st9{fill:#1E1E1E;}
	.st10{fill:#E00BDB;}
	.st11{fill:#FF1F30;}
	.st12{fill:#F4CC08;}
	.st13{fill:#0B63FF;}
	.st14{fill:#383838;}
	.st15{fill:#D6D6D6;}
	.st16{opacity:0.33;fill:#D6D6D6;enable-background:new    ;}
	.st17{fill:#CCCCCC;}
	.st18{fill:none;}
</style>
<g>
	<g>
		<polygon class="st0" points="847,683.9 893.2,731.9 931.3,729.9 873.3,678.6 		"/>
		<polygon class="st1" points="909.8,731.5 1394.5,716.9 1397.5,701.9 1379.5,696.9 918.5,712.2 910.3,715 		"/>
		<path class="st2" d="M867.1,673.8c0.7,0.7,7.9,1.4,9.7,3.2c8.3,7.9,24.5,23.9,32.9,32c2.6,2.5,0.6,6,0.6,6l-0.5,16.5l-43.1-42.1
			L867.1,673.8z"/>
		<polygon class="st1" points="1374.5,634.7 1373.4,649.7 1531.9,648.7 1531.9,633.7 1520.3,628.8 1381.8,629.7 		"/>
		<polygon class="st2" points="1373.4,649.7 1352.3,619.7 1353.4,604.6 1363.7,608.4 1380,630.2 1374.5,634.7 		"/>
		<polygon class="st1" points="921.3,651.7 923.3,640.7 908.7,636.7 798,639 788.9,643.7 788.9,654.7 		"/>
		<polygon class="st2" points="760.8,611.7 760.8,622.7 788.9,654.7 788.9,643.7 790.6,636.2 771.2,617.7 		"/>
		<polygon class="st1" points="745.8,683.9 497.1,743 496.1,718.9 495.5,714 727.1,663 745.8,663.8 		"/>
		<polygon class="st2" points="327.7,686.9 330.7,710.9 497.1,743 496.1,718.9 493.5,707 339.8,682.5 		"/>
		<title>pricnpal</title>
		<polygon class="st0" points="1720.7,715 1630.2,706.9 1551.9,663.8 1634.1,661.8 		"/>
		<path class="st3" d="M1491.5,670.8c0,0-12.7-1.1-24.5,1.5c-6.9,1.4-13.3,4.2-16.8,9.1c-0.8,1.1-1.4,2.1-1.8,3.4
			c-1.6,3.4,9.8,12.3,13.8,15.2c0.8,0.6,1.3,1,1.3,1s18.1,7.2,35.5,8.2c10,0.6,19.7-1,25.6-7.2
			C1528.6,681.9,1491.5,670.8,1491.5,670.8z"/>
		<polygon class="st0" points="330.7,710.9 34.9,665.8 210.3,622.7 117.1,609.6 575.3,588.6 761.8,588.6 1135.8,588.6 1353.4,607.6 
			1352.3,619.7 1370.2,645.3 1345.4,645.7 1337.4,628.7 914.2,632.7 886.1,608.7 760.8,611.7 760.8,622.7 771.9,635.2 614.4,642 		
			"/>
		<polygon class="st1" points="1782.6,235.7 1141.8,236.7 1137.9,548.4 1762.5,550.5 		"/>
		<polygon class="st3" points="496.1,718.9 327.7,686.9 581.4,636.7 745.8,663.8 		"/>
		<polygon class="st2" points="268.5,469.3 266.5,477.3 323.7,685.8 327.7,686.9 		"/>
		<polygon class="st3" points="1316.3,658.8 867.1,673.8 910.3,715 1397.5,701.9 		"/>
		<polygon class="st3" points="1501.8,605.6 1531.9,633.7 1374.5,634.7 1353.4,604.6 		"/>
		<polygon class="st3" points="923.3,640.7 788.9,643.7 760.8,611.7 886.1,608.7 		"/>
		<polygon class="st4" points="1885.8,668.8 1731.4,673.8 1729.4,702.9 1880.7,696.9 1879.8,708.9 1720.4,715 1724.4,659.7 
			1735.8,656.6 1868.8,654.2 1885.8,657.8 		"/>
		<path class="st5" d="M1720.4,715c-2,0-86.2-43.1-86.2-43.1l3-52.1l87.3,40.1L1720.4,715z"/>
		<path class="st5" d="M1880.7,696.9c-2,0-42.1-18.1-42.1-18.1l26.1,18.6L1880.7,696.9z"/>
		<polygon class="st6" points="1866,670 1864.7,697.4 1729.4,702.9 1731.4,673.8 		"/>
		<path class="st0" d="M1529.9,631.8c4.1-1,79.2-2,79.2-2l-95.3-13L1529.9,631.8z"/>
		<polygon class="st7" points="1362.8,617.9 1515.8,618.8 1501.8,605.6 1353.4,604.6 		"/>
		<polygon class="st7" points="907.3,626.7 776.9,629.7 760.8,611.7 886.1,608.7 		"/>
		<path class="st0" d="M1499.3,709.1c-17.4-1-35.5-8.2-35.5-8.2l-1.3-1c-4-2.9-15.4-11.8-13.8-15.2c0.4-1.3,1.1-2.3,1.7-3.4
			c3.5-4.8,9.9-7.6,16.8-9.1C1471.9,700.4,1488.1,707.6,1499.3,709.1z"/>
		<path class="st0" d="M1462.4,700v0.4c0,0-59.8-12.5-13.7-18.5c0.6-0.1,1.3-0.3,1.7-0.4c-0.8,1.1-1.4,2.2-1.7,3.4
			C1446.9,688.2,1458.4,697.1,1462.4,700z"/>
		<polygon class="st1" points="830.9,569.5 832.1,633.7 866.1,632.7 862.4,568.5 		"/>
		<polygon class="st7" points="831.1,574.2 831.4,597 863.6,596.4 862.1,573.2 		"/>
		<polygon class="st1" points="1423.6,618.6 1425.8,546.3 1462.4,545.8 1458.6,618.6 		"/>
		<polygon class="st7" points="1425.6,549.5 1424.4,590.9 1460.1,590.8 1462.7,549.5 		"/>
		<polygon class="st2" points="832.1,633.7 829.7,629.5 828.2,574.1 831.1,574.2 		"/>
		<polygon class="st7" points="831.4,597 828.8,595.6 828.2,574.1 831.1,574.2 		"/>
		<polygon class="st2" points="1423.6,618.6 1419.3,612.8 1420.5,549.3 1425.6,549.5 		"/>
		<polygon class="st7" points="1419.5,589 1424.4,590.9 1425.6,549.5 1420.5,549.3 		"/>
		<polygon class="st7" points="1362.8,617.9 1361.5,632.8 1352.3,619.7 1353.4,604.6 		"/>
		<polygon class="st7" points="776.9,629.7 776.9,640.7 760.8,622.7 760.8,611.7 		"/>
		<polygon class="st8" points="1341,683.2 1318.4,683.9 1295.8,671.8 1317.7,671 		"/>
		<polygon class="st8" points="1367.7,697 1344.4,697.7 1320.6,684.9 1343.3,684.3 		"/>
		<polygon class="st8" points="908.5,684 890.2,684.6 884.9,679.6 903,679.1 		"/>
		<polygon class="st8" points="930.4,683.3 911.9,683.9 906.4,678.9 924.7,678.3 		"/>
		<polygon class="st8" points="952.6,682.5 933.9,683.2 928.2,678.1 946.7,677.5 		"/>
		<polygon class="st8" points="975,681.8 956.1,682.4 950.1,677.4 968.8,676.7 		"/>
		<polygon class="st8" points="997.7,681 978.6,681.7 972.3,676.6 991.2,676 		"/>
		<polygon class="st8" points="1020.9,680.2 1001.7,680.9 995.1,675.8 1014.2,675.2 		"/>
		<polygon class="st8" points="1044,679.4 1024.5,680.1 1017.8,675 1037.1,674.3 		"/>
		<polygon class="st8" points="1067.4,678.7 1047.7,679.3 1040.7,674.2 1060.2,673.5 		"/>
		<polygon class="st8" points="1091,677.9 1071.1,678.6 1063.8,673.5 1083.5,672.8 		"/>
		<polygon class="st8" points="1115.4,677 1095.2,677.7 1087.7,672.6 1107.6,671.9 		"/>
		<polygon class="st8" points="1139.4,676.3 1119.1,676.9 1111.3,671.8 1131.4,671 		"/>
		<polygon class="st8" points="915.2,690.1 896.5,690.6 891.1,685.6 909.6,684.9 		"/>
		<polygon class="st8" points="937.4,689.4 918.7,690 913,684.8 931.6,684.3 		"/>
		<polygon class="st8" points="959.9,688.6 940.9,689.3 935.1,684.2 953.8,683.5 		"/>
		<polygon class="st8" points="982.6,687.9 963.4,688.5 957.3,683.4 976.3,682.7 		"/>
		<polygon class="st8" points="1005.5,687.2 986.1,687.8 979.8,682.6 999,681.9 		"/>
		<polygon class="st8" points="1029.1,686.4 1009.5,687.1 1002.8,681.9 1022.2,681.2 		"/>
		<polygon class="st8" points="1052.4,685.6 1032.7,686.3 1025.8,681.1 1045.4,680.4 		"/>
		<polygon class="st8" points="1076.2,684.9 1056.2,685.5 1049.1,680.3 1068.8,679.6 		"/>
		<polygon class="st8" points="1100.1,684.2 1079.9,684.7 1072.5,679.5 1092.4,678.9 		"/>
		<polygon class="st8" points="1149.3,682.5 1104.4,684 1096.6,678.8 1141,677.2 		"/>
		<polygon class="st8" points="944.5,695.7 903.1,696.9 897.6,691.7 938.5,690.3 		"/>
		<polygon class="st8" points="967.3,695 948.1,695.6 942.1,690.2 961,689.7 		"/>
		<polygon class="st8" points="990.3,694.2 970.9,694.8 964.6,689.6 983.8,688.9 		"/>
		<polygon class="st8" points="1013.5,693.5 993.9,694.1 987.5,688.8 1006.8,688.2 		"/>
		<polygon class="st8" points="1037.5,692.8 1017.6,693.4 1010.8,688 1030.4,687.4 		"/>
		<polygon class="st8" points="1061.2,692.1 1041.1,692.7 1034.1,687.4 1053.9,686.7 		"/>
		<polygon class="st8" points="1085.3,691.3 1065,692 1057.6,686.6 1077.6,685.9 		"/>
		<polygon class="st8" points="1109.5,690.5 1089,691.2 1081.4,685.8 1101.7,685.1 		"/>
		<polygon class="st8" points="1134.6,689.8 1113.8,690.4 1105.9,685 1126.4,684.4 		"/>
		<polygon class="st8" points="1159.4,689.1 1138.4,689.7 1130.2,684.3 1150.9,683.6 		"/>
		<polygon class="st8" points="928.9,702.7 909.9,703.3 904.3,697.9 923.1,697.3 		"/>
		<polygon class="st8" points="951.8,702 932.6,702.6 926.7,697.2 945.7,696.6 		"/>
		<polygon class="st8" points="974.8,701.3 955.4,701.9 949.2,696.5 968.5,695.9 		"/>
		<polygon class="st8" points="998.2,700.7 978.5,701.3 972.1,695.8 991.5,695.3 		"/>
		<polygon class="st8" points="1021.7,700 1001.9,700.6 995.2,695.2 1014.9,694.5 		"/>
		<polygon class="st8" points="1046,699.3 1025.9,699.9 1018.9,694.4 1038.8,693.8 		"/>
		<polygon class="st8" points="1070.1,698.5 1049.7,699.1 1042.5,693.7 1062.6,693 		"/>
		<polygon class="st8" points="1094.4,697.9 1073.9,698.5 1066.3,693 1086.7,692.4 		"/>
		<polygon class="st8" points="1119,697.2 1098.3,697.8 1090.5,692.3 1111,691.6 		"/>
		<polygon class="st8" points="1169.6,695.7 1123.5,697 1115.4,691.5 1161,690.2 		"/>
		<polygon class="st8" points="935.9,709.1 916.6,709.7 910.8,704.1 929.9,703.7 		"/>
		<polygon class="st8" points="959.1,708.5 939.6,709 933.5,703.5 952.8,703 		"/>
		<polygon class="st8" points="982.5,707.8 962.8,708.4 956.5,702.9 976,702.3 		"/>
		<polygon class="st8" points="1104.1,704.4 986.2,707.7 979.7,702.2 1096.1,698.8 		"/>
		<polygon class="st8" points="1128.7,703.8 1107.7,704.3 1099.6,698.7 1120.5,698.2 		"/>
		<polygon class="st8" points="1154.5,703.1 1133.1,703.7 1124.8,698 1146,697.4 		"/>
		<polygon class="st8" points="1180,702.3 1158.5,703 1149.8,697.3 1171.2,696.6 		"/>
		<polygon class="st8" points="1164.2,675.4 1143.7,676.1 1135.5,670.8 1155.8,670.2 		"/>
		<polygon class="st8" points="1188.8,674.5 1168.1,675.3 1159.7,670.1 1180.2,669.3 		"/>
		<polygon class="st8" points="1213.7,673.7 1192.8,674.4 1184.1,669.2 1204.9,668.4 		"/>
		<polygon class="st8" points="1174.4,681.8 1153.5,682.4 1145.2,677.1 1165.9,676.3 		"/>
		<polygon class="st8" points="1199.4,680.9 1178.3,681.6 1169.7,676.3 1190.5,675.6 		"/>
		<polygon class="st8" points="1224.6,680.1 1203.3,680.8 1194.4,675.5 1215.5,674.7 		"/>
		<polygon class="st8" points="1184.8,688.2 1163.6,688.9 1155.1,683.4 1176.1,682.8 		"/>
		<polygon class="st8" points="1210.2,687.4 1188.8,688.1 1180,682.6 1201.1,681.9 		"/>
		<polygon class="st8" points="1235.8,686.7 1214.2,687.4 1205,681.9 1226.5,681.2 		"/>
		<polygon class="st8" points="1195.5,694.9 1174.1,695.6 1165.3,690 1186.5,689.3 		"/>
		<polygon class="st8" points="1221.3,694.1 1199.5,694.8 1190.5,689.2 1211.9,688.5 		"/>
		<polygon class="st8" points="1247.2,693.3 1225.3,694 1216,688.4 1237.7,687.7 		"/>
		<polygon class="st8" points="1238.3,672.7 1217.1,673.5 1208.2,668.1 1229.2,667.5 		"/>
		<polygon class="st8" points="1263.8,671.8 1242.4,672.6 1233,667.3 1254.3,666.6 		"/>
		<polygon class="st8" points="1289.5,670.9 1267.8,671.7 1258.2,666.4 1279.7,665.7 		"/>
		<polygon class="st8" points="1249.6,679.1 1228.1,679.8 1218.9,674.4 1240.2,673.7 		"/>
		<polygon class="st8" points="1275.4,678.3 1253.7,679 1244.1,673.5 1265.7,672.9 		"/>
		<polygon class="st8" points="1301.5,677.4 1279.5,678.2 1269.7,672.8 1291.4,672 		"/>
		<polygon class="st8" points="1261.2,685.7 1239.3,686.4 1230,680.9 1251.5,680.2 		"/>
		<polygon class="st8" points="1287.4,684.9 1265.3,685.6 1255.5,680 1277.3,679.3 		"/>
		<polygon class="st8" points="1313.9,684.1 1291.5,684.7 1281.5,679.2 1303.5,678.6 		"/>
		<polygon class="st8" points="1273,692.5 1250.8,693 1241.1,687.4 1263.1,686.8 		"/>
		<polygon class="st8" points="1299.6,691.7 1277.2,692.3 1267.2,686.7 1289.3,686 		"/>
		<polygon class="st8" points="1326.5,690.8 1303.8,691.5 1293.5,685.8 1315.9,685.1 		"/>
		<polygon class="st8" points="1315.8,670 1293.9,670.7 1283.9,665.4 1305.6,664.7 		"/>
		<polygon class="st8" points="1312.4,698.6 1263,700 1253,694.2 1301.9,692.9 		"/>
		<polygon class="st8" points="1339.8,697.9 1316.7,698.5 1306.2,692.7 1328.9,692.1 		"/>
		<polygon class="st8" points="382.4,685 364.2,688.8 349.5,686 367.9,682.2 		"/>
		<polygon class="st8" points="404,680.5 385.9,684.3 371.2,681.6 389.4,677.8 		"/>
		<polygon class="st8" points="425.3,676.1 407.3,679.8 392.8,677.1 410.7,673.4 		"/>
		<polygon class="st8" points="446.3,671.7 428.6,675.4 414,672.7 431.8,669 		"/>
		<polygon class="st8" points="467.2,667.4 449.6,671 435,668.3 452.6,664.8 		"/>
		<polygon class="st8" points="488.2,663 470.9,666.6 456.2,664 473.7,660.4 		"/>
		<polygon class="st8" points="508.7,658.8 491.4,662.4 476.8,659.7 494.1,656.2 		"/>
		<polygon class="st8" points="529,654.5 511.9,658.1 497.3,655.5 514.4,652 		"/>
		<polygon class="st8" points="548.9,650.4 532.1,653.9 517.5,651.3 534.4,647.9 		"/>
		<polygon class="st8" points="569.2,646.1 552.5,649.6 537.9,647.1 554.7,643.6 		"/>
		<polygon class="st8" points="588.9,642.1 572.4,645.5 557.8,642.9 574.3,639.6 		"/>
		<polygon class="st8" points="400,688.3 381.7,692.2 367,689.4 385.2,685.5 		"/>
		<polygon class="st8" points="421.5,683.8 403.4,687.5 388.7,684.8 406.8,681.1 		"/>
		<polygon class="st8" points="442.8,679.3 424.8,683.1 410.1,680.3 428.1,676.6 		"/>
		<polygon class="st8" points="463.9,674.9 446.1,678.7 431.4,676 449.1,672.2 		"/>
		<polygon class="st8" points="484.8,670.6 467.2,674.2 452.4,671.5 470,667.9 		"/>
		<polygon class="st8" points="505.7,666.1 488.3,669.8 473.6,667.2 491,663.5 		"/>
		<polygon class="st8" points="526.2,661.9 509,665.4 494.2,662.8 511.5,659.3 		"/>
		<polygon class="st8" points="546.4,657.6 529.4,661.2 514.7,658.6 531.7,655 		"/>
		<polygon class="st8" points="566.4,653.4 549.5,656.9 534.9,654.3 551.7,650.9 		"/>
		<polygon class="st8" points="606.4,645.1 570,652.7 555.3,650.1 591.7,642.6 		"/>
		<polygon class="st8" points="439.2,687.2 399.4,695.6 384.6,692.7 424.3,684.4 		"/>
		<polygon class="st8" points="460.5,682.6 442.6,686.4 427.8,683.7 445.7,679.8 		"/>
		<polygon class="st8" points="481.6,678.2 463.8,681.9 449,679.1 466.8,675.5 		"/>
		<polygon class="st8" points="502.4,673.7 484.9,677.5 470.1,674.7 487.7,671 		"/>
		<polygon class="st8" points="523.5,669.3 506,673 491.2,670.4 508.6,666.7 		"/>
		<polygon class="st8" points="543.8,665.1 526.7,668.6 511.9,666 529.1,662.4 		"/>
		<polygon class="st8" points="564.1,660.7 547,664.4 532.3,661.7 549.3,658.1 		"/>
		<polygon class="st8" points="584.1,656.5 567.3,660 552.4,657.4 569.3,654 		"/>
		<polygon class="st8" points="604.4,652.2 587.7,655.7 572.9,653.2 589.6,649.6 		"/>
		<polygon class="st8" points="624,648.1 607.4,651.5 592.7,649 609.3,645.6 		"/>
		<polygon class="st8" points="435.5,695 417.3,698.9 402.3,696 420.6,692.2 		"/>
		<polygon class="st8" points="457.1,690.4 438.9,694.3 423.9,691.5 442.1,687.6 		"/>
		<polygon class="st8" points="478.3,685.9 460.4,689.8 445.5,687 463.3,683.1 		"/>
		<polygon class="st8" points="499.4,681.5 481.7,685.2 466.7,682.4 484.5,678.7 		"/>
		<polygon class="st8" points="520.2,676.9 502.7,680.7 487.8,678 505.3,674.2 		"/>
		<polygon class="st8" points="541.2,672.5 523.8,676.3 508.9,673.5 526.3,669.9 		"/>
		<polygon class="st8" points="561.6,668.1 544.4,671.8 529.5,669.1 546.7,665.5 		"/>
		<polygon class="st8" points="581.9,663.9 564.8,667.5 549.9,664.9 566.9,661.2 		"/>
		<polygon class="st8" points="601.8,659.6 585,663.2 570.1,660.5 587,656.9 		"/>
		<polygon class="st8" points="641.7,651.1 605.4,658.8 590.6,656.3 626.8,648.5 		"/>
		<polygon class="st8" points="453.2,698.4 435,702.3 419.8,699.4 438.1,695.5 		"/>
		<polygon class="st8" points="474.7,693.7 456.6,697.6 441.5,694.8 459.7,690.9 		"/>
		<polygon class="st8" points="496,689.2 478.1,693 462.9,690.2 480.9,686.4 		"/>
		<polygon class="st8" points="599.7,666.9 499.3,688.5 484.2,685.7 584.7,664.3 		"/>
		<polygon class="st8" points="619.4,662.6 602.6,666.3 587.6,663.6 604.5,660 		"/>
		<polygon class="st8" points="639.7,658.3 623,661.9 608,659.3 624.7,655.7 		"/>
		<polygon class="st8" points="659.3,654.1 642.8,657.6 627.7,655 644.3,651.5 		"/>
		<polygon class="st8" points="647.5,679.9 568.7,697.3 517.5,687.8 596.3,670.8 		"/>
		<polygon class="st9" points="1750.9,536.6 1151.7,536.3 1156.8,251.5 1766.3,253.3 		"/>
		<path class="st10" d="M1405.6,347.4l-38.4-0.1l24.8,24.5c1,1,2.5,1,3.6,0.1c6.6-5.6,11-13.3,12.5-21.8c0.2-1.4-0.8-2.6-2-2.7
			C1405.9,347.4,1405.7,347.3,1405.6,347.4L1405.6,347.4z"/>
		<path class="st11" d="M1403.4,337.2c-0.8-18.6-15.7-33.5-35.1-34.8c-1.4-0.1-2.7,1.1-2.8,2.5l0,0l-1.1,34.8l36.3,0.1
			C1402.2,339.9,1403.3,338.8,1403.4,337.2L1403.4,337.2L1403.4,337.2z"/>
		<path class="st12" d="M1356.4,347.3l1.1-37c0-1.4-1.1-2.5-2.4-2.5c-0.1,0-0.3,0-0.4,0c-19.4,2.6-34.7,18.8-34.6,38.1
			c0.2,19.9,17.6,36.2,38.3,36c7.8-0.1,15.5-2.4,22.1-6.8c1.2-0.8,1.4-2.2,0.7-3.3c-0.1-0.1-0.2-0.3-0.3-0.4L1356.4,347.3z"/>
		<path class="st11" d="M1705.1,350.4h4.6c1.4-0.1,2.6-1.2,2.8-2.6l2.4-47.1c0-1.4-1.2-2.6-2.5-2.6h-4.6c-1.4,0.1-2.6,1.2-2.8,2.6
			l-2.4,47.1C1702.6,349.2,1703.6,350.4,1705.1,350.4z"/>
		<path class="st12" d="M1665,350.4h4.6c1.4-0.1,2.6-1.2,2.8-2.6l1.9-40.5c0-1.4-1.2-2.6-2.5-2.6h-4.6c-1.4,0.1-2.6,1.2-2.8,2.6
			l-1.9,40.5C1662.5,349.1,1663.7,350.3,1665,350.4z"/>
		<path class="st13" d="M1685.1,350.4h4.6c1.4-0.1,2.6-1.2,2.8-2.6l1.4-27.4c0-1.4-1.2-2.5-2.5-2.6h-4.6c-1.4,0.1-2.6,1.2-2.8,2.6
			l-1.4,27.5C1682.6,349.1,1683.6,350.3,1685.1,350.4z"/>
		<path class="st14" d="M1725.2,360.2l-93.3-0.2l3-65.4c0.1-1.7-1.3-3.2-3-3.3c-0.1,0-0.1,0-0.2,0h-3.4c-1.8,0-3.4,1.4-3.5,3.3
			l-3.2,68.7c-0.2,3.5,2.5,6.4,6,6.6c0.1,0,0.3,0,0.4,0l96.6,0.2c1.8,0,3.4-1.4,3.5-3.3l0.2-3.3c0.1-1.7-1.3-3.2-2.9-3.3
			C1725.3,360.2,1725.3,360.2,1725.2,360.2z"/>
		<path class="st13" d="M1645,350.3h4.6c1.4-0.1,2.6-1.2,2.8-2.6l0.7-14.4c0-1.4-1.2-2.5-2.5-2.6h-4.6c-1.4,0.1-2.6,1.2-2.8,2.6
			l-0.7,14.4C1642.5,349.1,1643.6,350.2,1645,350.3z"/>
		<path class="st14" d="M1643.9,501.4c1.3-0.1,2.2,0.9,2.3,2v0.1l-0.4,7.2c-0.2,1.3-1.3,2.2-2.5,2.2H1544c-1.3,0.1-2.3-0.9-2.3-2.1
			v-0.1l2.7-65.6c0.1-1.3,1.3-2.2,2.5-2.2h8.2c1.3-0.1,2.3,0.9,2.3,2.1v0.1l-2.3,56.2L1643.9,501.4z"/>
		<path class="st10" d="M1619.8,460.5l-17.8,10.3l-16.5-20.8c-1-1.1-2.6-1.2-3.8-0.2c-0.1,0.1-0.3,0.3-0.4,0.4l-18.9,26.4l-0.8,18.9
			l78.3,0.1l-16.7-34.3C1622.6,460.1,1621.1,459.7,1619.8,460.5L1619.8,460.5z"/>
		<path class="st14" d="M1406.9,494.7l-78.5-0.1l1.5-52.6c0-1.5-1.3-2.8-2.7-2.8h-0.1h-5.8c-1.5-0.1-2.9,1.2-3,2.8l-1.6,58.1
			c0,3,2.4,5.5,5.5,5.5c0.1,0,0.1,0,0.2,0l84.2,0.1c1.5,0,2.9-1.2,3-2.8l0.2-5.5c0-1.5-1.2-2.7-2.7-2.8
			C1407,494.7,1407,494.7,1406.9,494.7z"/>
		<path class="st11" d="M1402.7,444.8h-21.5c-3.9,0-6,4.4-3.3,7.1l5.7,5.6l-13.7,12.6l-12.9-12.7c-2.3-2.1-5.9-2.1-8.2,0l-12.8,11.9
			c-1.2,1-1.3,2.7-0.3,3.8c0,0.1,0.1,0.1,0.1,0.2l4,3.9c1.2,1.1,3,1.1,4.2,0l8.6-8l12.9,12.7c2.3,2.1,5.9,2.1,8.2,0l18-16.6l5.7,5.6
			c1.8,1.7,4.6,1.6,6.4-0.2c0.7-0.8,1.2-1.7,1.3-2.7l0.7-20.5c0.1-1.5-1.1-2.8-2.6-2.8C1402.9,444.8,1402.8,444.8,1402.7,444.8z"/>
		<polygon class="st14" points="1269.6,535.5 1149.8,535.5 1154.9,250.7 1276.8,251 		"/>
		<polygon class="st15" points="1765.1,273.8 1155.4,272.3 1155.8,251 1766.3,252.8 		"/>
		<polygon class="st13" points="1504.4,333.1 1429.2,333 1429.5,324 1504.8,324.2 		"/>
		<polygon class="st13" points="1503.8,348 1428.7,347.8 1429,338.9 1504.2,339.1 		"/>
		<polygon class="st13" points="1503.2,362.7 1428.2,362.5 1428.5,353.8 1503.6,353.8 		"/>
		<polygon class="st13" points="1502.6,377.5 1427.7,377.4 1428,368.5 1503,368.6 		"/>
		<polygon class="st13" points="1503.5,308.1 1431.6,307.9 1432.1,294.5 1504,294.7 		"/>
		<polygon class="st13" points="1477.8,473 1426.9,472.9 1427.2,464.2 1478.1,464.2 		"/>
		<polygon class="st13" points="1477.3,487.5 1426.4,487.4 1426.7,478.8 1477.6,478.8 		"/>
		<polygon class="st13" points="1476.7,502 1425.9,502 1426.2,493.3 1477.1,493.3 		"/>
		<polygon class="st13" points="1735.1,449.5 1660.8,449.4 1661.1,440.7 1735.6,440.7 		"/>
		<polygon class="st13" points="1734.3,464.1 1660.1,464.1 1660.5,455.3 1734.8,455.4 		"/>
		<polygon class="st13" points="1733.5,478.7 1659.3,478.6 1659.8,469.9 1734,470 		"/>
		<polygon class="st13" points="1727.5,390.3 1618.1,390.1 1618.4,382.8 1727.8,383 		"/>
		<polygon class="st13" points="1608.7,339.4 1557.6,339.3 1557.9,330.4 1609.1,330.5 		"/>
		<polygon class="st13" points="1608.1,354.1 1556.9,354 1557.3,345.2 1608.4,345.3 		"/>
		<polygon class="st13" points="1607.5,368.9 1556.3,368.8 1556.7,359.9 1607.9,360 		"/>
		<polygon class="st16" points="1265.4,294.6 1164.1,294.3 1164.3,285.4 1265.6,285.6 		"/>
		<polygon class="st16" points="1265,309.4 1163.8,309.3 1164,300.3 1265.2,300.6 		"/>
		<polygon class="st16" points="1264.6,324.4 1163.5,324.2 1163.7,315.2 1264.9,315.5 		"/>
		<polygon class="st16" points="1264.3,339.3 1163.3,339.1 1163.4,330.1 1264.5,330.4 		"/>
		<polygon class="st16" points="1236.4,498.7 1161.2,498.6 1161.4,490 1236.6,490.1 		"/>
		<polygon class="st16" points="1217.6,512.8 1160.9,512.7 1161.1,504.5 1217.8,504.6 		"/>
		<polygon class="st16" points="1235.7,527.9 1160.6,527.8 1160.8,519.1 1235.9,519.2 		"/>
		<polygon class="st1" points="584.4,303.8 589.4,581.6 1114.8,565.5 1119.8,293.8 		"/>
		<polygon class="st9" points="1104.4,550.8 601.8,565.8 599.4,318.9 1107.2,309.6 		"/>
		<polygon class="st10" points="980.3,355.5 729.1,360.5 729.1,352.2 980.4,347.4 		"/>
		<polygon class="st13" points="942.8,371.7 741.9,375.9 741.9,368.1 942.9,364.1 		"/>
		<polygon class="st12" points="905.8,388.4 755.1,391.7 755.1,383.2 905.9,380 		"/>
		<polygon class="st12" points="943.2,401.1 754.7,405.2 754.7,397.9 943.2,393.8 		"/>
		<polygon class="st13" points="980,414.5 741.6,419.9 741.6,411.5 980,406.2 		"/>
		<polygon class="st10" points="905.4,431.7 729.6,435.8 729.6,427.7 905.4,423.6 		"/>
		<polygon class="st10" points="942.9,460.7 730.4,465.9 730.3,457.6 942.9,452.4 		"/>
		<polygon class="st13" points="980.1,472.3 742.3,478.3 742.3,470 980.2,464.1 		"/>
		<polygon class="st12" points="855.3,492.1 755,494.7 755,485.6 855.3,483 		"/>
		<polygon class="st13" points="905.2,504.4 755.5,508.5 755.5,500.8 905.2,496.8 		"/>
		<polygon class="st10" points="966.9,517.3 743,523.4 743,515.6 967,509.5 		"/>
		<polygon class="st12" points="904.8,537 729.8,542.1 729.8,534 904.8,529 		"/>
		<polygon class="st14" points="713.2,562 600.4,565.2 598,318.3 712,316.3 		"/>
		<polygon class="st15" points="1108.3,328.1 597.4,335 597.4,315.8 1107.3,307.9 		"/>
		<polygon class="st1" points="523.2,434.2 268.5,469.3 327.7,686.9 581.4,636.7 		"/>
		<polygon class="st9" points="568.3,616.1 328.9,663.2 281.8,481.6 517.4,447.4 		"/>
		<polygon class="st6" points="525.7,624.6 376.5,654.1 328.6,474.9 475.4,453.6 		"/>
		<polygon class="st15" points="521.2,458.4 284.5,493.6 281.4,481.6 517.9,447.2 		"/>
		<polygon class="st17" points="473,491.8 352.2,510.6 349.5,500.8 470.2,482.2 		"/>
		<polygon class="st17" points="477.1,507.3 356.2,526.7 353.5,516.8 474.3,497.7 		"/>
		<polygon class="st17" points="482.2,523.6 361,543.7 358.3,533.7 479.4,514 		"/>
		<polygon class="st17" points="486.4,539.4 365.1,560 362.4,549.9 483.6,529.6 		"/>
		<polygon class="st17" points="492.9,564.7 371.1,586.3 368.4,576.2 490,554.8 		"/>
		<polygon class="st17" points="497.1,580.6 375.2,602.9 372.5,592.6 494.2,570.7 		"/>
		<polygon class="st17" points="501.2,596.9 379.1,619.8 376.3,609.5 498.3,587 		"/>
		<polygon class="st17" points="506.4,613.7 384.1,637.3 381.3,626.9 503.5,603.8 		"/>
		<polygon class="st17" points="510.2,628.2 387.7,652.3 385.4,643.6 507.7,619.9 		"/>
		<polygon class="st11" points="1637.1,619.7 1724.4,659.7 1885.8,657.8 1782.6,614.7 		"/>
	</g>
	<rect x="-0.3" y="-2.7" class="st18" width="1921" height="1085.8"/>
</g>
</svg>
