<?xml version="1.0" encoding="utf-8"?>
<!-- Generator: Adobe Illustrator 23.0.0, SVG Export Plug-In . SVG Version: 6.00 Build 0)  -->
<svg version="1.1" id="Capa_1" xmlns="http://www.w3.org/2000/svg" xmlns:xlink="http://www.w3.org/1999/xlink" x="0px" y="0px"
	 viewBox="0 0 1920 1080" style="enable-background:new 0 0 1920 1080;" xml:space="preserve">
<style type="text/css">
	.st0{fill:#262626;}
	.st1{opacity:0.7;fill:#1E1E1E;enable-background:new    ;}
	.st2{fill:#3F3F3F;}
	.st3{fill:#2D2D2D;}
	.st4{fill:#161616;}
	.st5{fill:#E00BDB;}
	.st6{fill:#D6D6D6;}
	.st7{fill:#C60CC6;}
	.st8{fill:#969696;}
	.st9{fill:#0B63FF;}
	.st10{fill:#F4CC08;}
	.st11{opacity:0.3;fill:#FFFFFF;enable-background:new    ;}
	.st12{fill:#CCCCCC;}
	.st13{fill:#FF1F30;}
	.st14{fill:#606060;}
	.st15{fill:#757575;}
</style>
<polygon class="st0" points="468.6,346.2 492.5,602 899.2,572.9 891.6,350.4 "/>
<title>presentAccount</title>
<polygon class="st1" points="1029.5,732.5 977,732.5 970.3,794.2 1049.6,805 "/>
<polygon class="st1" points="557.1,773.4 554.7,773.6 519.2,776.2 517.8,759.4 381.5,773.4 427.8,668 328,617.5 866.6,564.4 "/>
<polygon class="st1" points="1182.3,649.4 1134.7,649.8 1137.5,627.3 939.3,628.7 916.9,573.9 1053.2,573.9 1375,623.1 
	1234.5,625.9 "/>
<polygon class="st0" points="1519,559.1 1538,274.5 959,273.1 965.3,557.7 "/>
<polygon class="st2" points="964.7,288.6 970.3,545.8 1514.1,545.8 1531,288.6 "/>
<polygon class="st0" points="1222.7,558.3 1224.6,617.5 1248.5,617.5 1252.7,558.4 "/>
<polygon class="st1" points="1224.6,582.3 1251.3,582.3 1252.7,558.4 1223.2,558.4 "/>
<polygon class="st3" points="1176.8,635.7 1316,635.7 1285.1,599.2 1160,599.2 1167.8,616.2 "/>
<polygon class="st3" points="1003.9,782.1 1447.9,782.1 1386,722.8 1021.4,724 "/>
<polygon class="st1" points="1168.4,616 1299.6,617 1285.1,599.2 1160,599.2 "/>
<polygon class="st3" points="1316,635.7 1316,649.8 1174,649.8 1176.8,635.7 1191,626 1288,624 "/>
<polygon class="st4" points="1160,599.2 1158.6,616 1174,649.8 1176.8,635.7 "/>
<polygon class="st3" points="1003.9,782.1 1005.3,806.8 1443.8,804.7 1447.9,782.1 1411,756 1023,759 "/>
<polygon class="st0" points="457.3,683.5 477,659 968,601 999.8,611.8 1003.3,636.4 460.1,714.4 "/>
<polygon class="st3" points="492.5,602 457.3,683.5 999.8,611.8 898.6,562.6 "/>
<polygon class="st2" points="483.8,357.3 505.1,578.1 887.4,545.8 881.7,360.3 "/>
<polygon class="st5" points="544.5,756.6 562,736 927,677 957.6,689.1 956.9,708.1 545.9,787.5 "/>
<polygon class="st6" points="555.7,745.3 943.6,679.3 939.4,644.3 548.9,703 "/>
<polygon class="st7" points="957.6,689.1 945.7,677.2 555.7,745.3 552.7,728.5 550.9,718.2 544.5,756.6 "/>
<polygon class="st1" points="940.8,663.8 552.9,728.5 548.7,703.2 939.3,644.2 "/>
<path class="st3" d="M1560.5,749c0,0-13.6-3.3-26.8-2.6c-7.6,0.4-15.1,2.3-19.7,6.9c-1,1-1.8,2.1-2.5,3.4
	c-2.4,3.3,8.5,14.9,12.2,18.7l1.2,1.2c0,0,18.4,11,37,15c10.7,2.3,21.5,2.3,28.9-3.4C1598.7,767.3,1560.5,749,1560.5,749z"/>
<path class="st1" d="M1562.3,791.6c-18.6-4-37-15-37-15l-1.2-1.2c-3.7-3.8-14.6-15.4-12.3-18.7c0.7-1.2,1.5-2.4,2.5-3.4
	c4.6-4.7,12.1-6.5,19.7-6.9C1534.3,777.5,1550.4,788,1562.3,791.6z"/>
<path class="st1" d="M1524.1,775.4l-0.1,0.4c0,0-62.4-23.8-11.6-22.4l2-0.1c-1,1-1.8,2.1-2.5,3.4
	C1509.4,760,1520.3,771.5,1524.1,775.4z"/>
<polygon class="st8" points="1404.9,754.4 1388.4,754.5 1370.9,736.5 1386.5,736.5 "/>
<polygon class="st8" points="1427.9,776.8 1410.4,776.9 1390.3,756.2 1406.8,756.1 "/>
<polygon class="st8" points="1049.6,735.5 1031.7,735.5 1033.3,727.5 1050.7,727.5 "/>
<polygon class="st8" points="1070.7,735.5 1052.9,735.5 1053.9,727.5 1071.1,727.5 "/>
<polygon class="st8" points="1091.5,735.5 1073.9,735.5 1074.3,727.5 1091.4,727.6 "/>
<polygon class="st8" points="1112.3,735.5 1094.8,735.5 1094.6,727.6 1111.6,727.6 "/>
<polygon class="st8" points="1132.8,735.5 1115.5,735.5 1114.7,727.6 1131.6,727.6 "/>
<polygon class="st8" points="1153.4,735.5 1136.3,735.5 1135,727.6 1151.7,727.6 "/>
<polygon class="st8" points="1173.6,735.5 1156.6,735.5 1154.8,727.6 1171.3,727.7 "/>
<polygon class="st8" points="1193.6,735.5 1176.8,735.5 1174.4,727.7 1190.8,727.7 "/>
<polygon class="st8" points="1213.4,735.5 1196.7,735.5 1193.8,727.7 1210.1,727.7 "/>
<polygon class="st8" points="1233.5,735.5 1216.9,735.5 1213.5,727.7 1229.6,727.7 "/>
<polygon class="st8" points="1253,735.4 1236.6,735.5 1232.6,727.7 1248.6,727.8 "/>
<polygon class="st8" points="1048.2,745.7 1029.7,745.7 1031.4,737.1 1049.4,737.1 "/>
<polygon class="st8" points="1070.1,745.6 1051.7,745.7 1052.7,737.1 1070.6,737.1 "/>
<polygon class="st8" points="1091.7,745.6 1073.5,745.6 1073.9,737.1 1091.6,737.1 "/>
<polygon class="st8" points="1113.1,745.5 1095,745.6 1094.8,737.1 1112.4,737.1 "/>
<polygon class="st8" points="1134.3,745.5 1116.4,745.5 1115.6,737.1 1133,737 "/>
<polygon class="st8" points="1155.7,745.4 1137.9,745.5 1136.6,737 1153.8,737 "/>
<polygon class="st8" points="1176.5,745.3 1158.9,745.4 1157,737 1174.1,737 "/>
<polygon class="st8" points="1197.2,745.3 1179.8,745.3 1177.2,737 1194.2,737 "/>
<polygon class="st8" points="1217.6,745.3 1200.4,745.3 1197.3,737 1214.1,737 "/>
<polygon class="st8" points="1258.5,745.1 1221.3,745.2 1217.6,737 1253.8,737 "/>
<polygon class="st8" points="1069.4,756.5 1027.6,756.7 1029.4,747.5 1069.9,747.4 "/>
<polygon class="st8" points="1091.8,756.4 1072.9,756.5 1073.4,747.3 1091.7,747.3 "/>
<polygon class="st8" points="1114,756.3 1095.3,756.4 1095.1,747.3 1113.2,747.2 "/>
<polygon class="st8" points="1135.9,756.2 1117.4,756.3 1116.6,747.2 1134.6,747.2 "/>
<polygon class="st8" points="1158.1,756.1 1139.7,756.2 1138.2,747.2 1156,747.1 "/>
<polygon class="st8" points="1179.6,756 1161.5,756.1 1159.3,747.1 1177,747 "/>
<polygon class="st8" points="1201,755.9 1183,756 1180.3,747 1197.8,747 "/>
<polygon class="st8" points="1222.2,755.8 1204.3,755.9 1201,747 1218.4,746.9 "/>
<polygon class="st8" points="1243.6,755.7 1225.9,755.8 1222,746.9 1239.2,746.9 "/>
<polygon class="st8" points="1264.4,755.6 1246.9,755.7 1242.4,746.9 1259.4,746.8 "/>
<polygon class="st8" points="1045.2,768.3 1025.3,768.5 1027.2,758.5 1046.6,758.4 "/>
<polygon class="st8" points="1068.7,768.2 1048.9,768.3 1050.2,758.4 1069.3,758.3 "/>
<polygon class="st8" points="1091.9,768 1072.4,768.1 1072.8,758.3 1091.8,758.2 "/>
<polygon class="st8" points="1114.9,767.8 1095.6,768 1095.3,758.2 1114.1,758.1 "/>
<polygon class="st8" points="1137.7,767.7 1118.5,767.8 1117.6,758.1 1136.2,758 "/>
<polygon class="st8" points="1160.6,767.5 1141.6,767.6 1140,758 1158.5,757.8 "/>
<polygon class="st8" points="1183,767.3 1164.2,767.5 1161.9,757.8 1180.2,757.7 "/>
<polygon class="st8" points="1205.1,767.2 1186.5,767.3 1183.5,757.7 1201.6,757.6 "/>
<polygon class="st8" points="1227,767 1208.6,767.1 1205,757.6 1222.9,757.5 "/>
<polygon class="st8" points="1270.7,766.7 1230.9,767 1226.7,757.5 1265.4,757.3 "/>
<polygon class="st8" points="1043.6,780.7 1022.9,781 1024.9,770.2 1045,770.1 "/>
<polygon class="st8" points="1068,780.5 1047.4,780.7 1048.7,770.1 1068.6,769.9 "/>
<polygon class="st8" points="1092.1,780.3 1071.8,780.5 1072.3,769.9 1091.9,769.7 "/>
<polygon class="st8" points="1209.8,779.1 1095.8,780.2 1095.6,769.7 1206,768.9 "/>
<polygon class="st8" points="1232.2,778.9 1213,779.1 1209.2,768.8 1227.8,768.7 "/>
<polygon class="st8" points="1255.1,778.7 1236.2,778.8 1231.7,768.7 1250.1,768.5 "/>
<polygon class="st8" points="1277.4,778.4 1258.6,778.6 1253.5,768.5 1271.7,768.4 "/>
<polygon class="st8" points="1272.6,735.4 1256.4,735.4 1251.9,727.7 1267.8,727.8 "/>
<polygon class="st8" points="1291.8,735.4 1275.7,735.4 1270.7,727.8 1286.4,727.8 "/>
<polygon class="st8" points="1310.8,735.4 1294.8,735.4 1289.4,727.8 1305,727.8 "/>
<polygon class="st8" points="1278.8,745 1262,745.1 1257.2,736.9 1273.6,736.9 "/>
<polygon class="st8" points="1298.5,745 1281.9,745 1276.6,736.9 1292.8,736.9 "/>
<polygon class="st8" points="1318.1,745 1301.6,745 1295.8,736.9 1311.9,736.9 "/>
<polygon class="st8" points="1285.3,755.4 1268,755.5 1262.9,746.8 1279.8,746.7 "/>
<polygon class="st8" points="1305.8,755.3 1288.6,755.4 1282.9,746.7 1299.7,746.6 "/>
<polygon class="st8" points="1326,755.2 1309,755.3 1302.8,746.6 1319.4,746.6 "/>
<polygon class="st8" points="1292.4,766.5 1274.4,766.6 1269,757.2 1286.4,757.1 "/>
<polygon class="st8" points="1313.5,766.3 1295.7,766.5 1289.7,757.1 1307,757 "/>
<polygon class="st8" points="1334.4,766.2 1316.8,766.3 1310.2,757 1327.3,756.9 "/>
<polygon class="st8" points="1329.3,735.1 1313.4,735.1 1307.5,727.5 1323,727.6 "/>
<polygon class="st8" points="1347.9,735.1 1332.2,735.1 1325.9,727.6 1341.2,727.6 "/>
<polygon class="st8" points="1366.4,735.1 1350.8,735.1 1344.1,727.6 1359.3,727.6 "/>
<polygon class="st8" points="1337.2,744.6 1320.8,744.7 1314.6,736.6 1330.5,736.6 "/>
<polygon class="st8" points="1356.4,744.6 1340.2,744.6 1333.4,736.6 1349.3,736.6 "/>
<polygon class="st8" points="1375.5,744.5 1359.4,744.6 1352.2,736.6 1367.8,736.6 "/>
<polygon class="st8" points="1345.7,754.8 1328.8,754.9 1322.1,746.3 1338.5,746.3 "/>
<polygon class="st8" points="1365.5,754.8 1348.8,754.8 1341.6,746.3 1357.9,746.2 "/>
<polygon class="st8" points="1385.2,754.7 1368.6,754.7 1360.9,746.2 1377,746.2 "/>
<polygon class="st8" points="1354.7,765.7 1337.3,765.8 1330.1,756.6 1347.1,756.5 "/>
<polygon class="st8" points="1375.2,765.6 1357.9,765.7 1350.2,756.5 1367,756.4 "/>
<polygon class="st8" points="1395.5,765.4 1378.4,765.5 1370.1,756.4 1386.8,756.3 "/>
<polygon class="st8" points="1385,735 1369.5,735 1362.3,727.5 1377.4,727.5 "/>
<polygon class="st8" points="1385.8,777.3 1346.6,777.7 1338.9,767.8 1377,767.5 "/>
<polygon class="st8" points="1406.9,777.1 1389.2,777.3 1380.3,767.5 1397.5,767.3 "/>
<polygon class="st8" points="844.7,601.3 639.2,623.4 637.8,617.3 838.9,596.5 "/>
<polygon class="st8" points="915.1,582.2 865.1,587.1 859.3,583 908.4,578.3 "/>
<polygon class="st8" points="899.2,572.9 850.7,577.3 845.4,573.5 893.1,569.4 "/>
<polygon class="st8" points="552,604.5 517.5,607.6 519.2,602.3 552.9,599.3 "/>
<polygon class="st8" points="591.5,600.9 558.5,603.9 559.2,598.7 591.4,595.9 "/>
<polygon class="st8" points="628.4,597.5 596.9,600.4 596.6,595.5 627.4,592.7 "/>
<polygon class="st8" points="663.5,594.3 633.3,597.1 632.3,592.3 661.7,589.7 "/>
<polygon class="st8" points="697.3,591.3 668.4,593.9 666.5,589.3 694.8,586.8 "/>
<polygon class="st8" points="729.7,588.3 702.1,590.8 699.5,586.4 726.6,584 "/>
<polygon class="st8" points="760.8,585.5 734.3,587.9 731.1,583.6 757.1,581.3 "/>
<polygon class="st8" points="790.5,582.8 765,585.1 761.2,581 786.2,578.8 "/>
<polygon class="st8" points="819.1,580.2 794.6,582.4 790.3,578.4 814.4,576.3 "/>
<polygon class="st8" points="847.3,577.6 823.7,579.8 818.9,575.9 842,573.8 "/>
<polygon class="st8" points="592,607.2 515.3,614.5 517.1,608.8 591.8,602 "/>
<polygon class="st8" points="629.6,603.7 597.2,606.7 596.9,601.5 628.6,598.6 "/>
<polygon class="st8" points="665.7,600.2 634.7,603.2 633.6,598.1 663.8,595.3 "/>
<polygon class="st8" points="700.4,596.9 670.7,599.8 668.8,594.9 697.8,592.2 "/>
<polygon class="st8" points="733.7,593.8 705.3,596.5 702.6,591.8 730.4,589.3 "/>
<polygon class="st8" points="765.5,590.8 738.3,593.3 735,588.8 761.6,586.4 "/>
<polygon class="st8" points="795.9,587.9 769.8,590.4 765.8,586 791.4,583.7 "/>
<polygon class="st8" points="825.2,585.1 800.1,587.5 795.6,583.3 820.2,581 "/>
<polygon class="st8" points="853.9,582.4 829.9,584.7 824.8,580.6 848.4,578.4 "/>
<polygon class="st8" points="880.9,579.8 857.8,582 852.3,578.1 875,576 "/>
<polygon class="st8" points="906.8,577.4 884.6,579.5 878.6,575.7 900.5,573.7 "/>
<polygon class="st8" points="549.8,618.4 512.9,622 514.8,615.9 550.7,612.5 "/>
<polygon class="st8" points="591.8,614.2 556.7,617.7 557.5,611.9 591.6,608.6 "/>
<polygon class="st8" points="630.9,610.3 597.5,613.6 597.2,608.1 629.8,604.9 "/>
<polygon class="st8" points="668.1,606.6 636.2,609.8 635,604.4 666.1,601.5 "/>
<polygon class="st8" points="703.7,603.1 673.3,606.1 671.2,601 701,598.1 "/>
<polygon class="st8" points="738,599.7 708.8,602.6 706,597.7 734.5,594.9 "/>
<polygon class="st8" points="770.6,596.5 742.7,599.3 739.2,594.5 766.5,591.9 "/>
<polygon class="st8" points="801.7,593.4 775,596.1 770.8,591.5 797,589 "/>
<polygon class="st8" points="831.7,590.4 806.1,593 801.3,588.5 826.4,586.1 "/>
<polygon class="st8" points="861,587.5 836.5,590 831.1,585.7 855.3,583.4 "/>
<polygon class="st8" points="548.6,625.6 510.5,629.5 512.5,623 549.6,619.3 "/>
<polygon class="st8" points="591.9,621.1 555.7,624.8 556.5,618.7 591.8,615.2 "/>
<polygon class="st8" points="632.2,617 597.8,620.5 597.5,614.6 631.1,611.2 "/>
<polygon class="st8" points="670.5,613 637.6,616.4 636.4,610.7 668.4,607.5 "/>
<polygon class="st8" points="707.1,609.2 675.8,612.5 673.6,607 704.2,604 "/>
<polygon class="st8" points="742.2,605.6 712.3,608.7 709.3,603.4 738.5,600.5 "/>
<polygon class="st8" points="775.6,602.2 747.1,605.1 743.3,600 771.3,597.3 "/>
<polygon class="st8" points="807.5,598.9 780.1,601.7 775.7,596.8 802.5,594.2 "/>
<polygon class="st8" points="838.1,595.7 811.9,598.4 806.9,593.7 832.6,591.2 "/>
<polygon class="st8" points="868.1,592.6 843,595.2 837.4,590.7 862,588.2 "/>
<polygon class="st8" points="896.3,589.7 872.2,592.2 866,587.8 889.7,585.5 "/>
<polygon class="st8" points="923.2,586.9 900.1,589.3 893.4,585.1 916.2,582.8 "/>
<polygon class="st8" points="547.3,633.3 507.9,637.5 510.1,630.6 548.4,626.6 "/>
<polygon class="st8" points="592,628.5 554.7,632.5 555.6,625.9 591.9,622.1 "/>
<polygon class="st8" points="633.6,624 598.1,627.8 597.8,621.5 632.4,617.9 "/>
<polygon class="st8" points="875.5,598 849.9,600.7 844,596 869.1,593.3 "/>
<polygon class="st8" points="904.3,594.9 879.7,597.5 873.2,592.9 897.3,590.4 "/>
<polygon class="st8" points="931.7,591.9 908.1,594.4 901.2,590 924.3,587.6 "/>
<polygon class="st8" points="832.8,628.2 681,647.2 672.3,623.5 812.1,608.1 "/>
<g>
	<polygon class="st2" points="483.9,371.4 883.4,372.7 887.6,545.9 506.3,579.1 	"/>
	<polygon class="st9" points="754.4,398.5 603.1,399.9 602.3,390 753.9,389.2 	"/>
	<polygon class="st10" points="723.6,417.4 615,419.4 614.2,409.6 723,408.1 	"/>
	<polygon class="st5" points="791.1,434.2 627.3,438.7 626.6,428.9 790.7,425.2 	"/>
	<polygon class="st9" points="660.8,456.5 608,458.4 607.2,448.7 660.1,447 	"/>
	<polygon class="st9" points="770,487.9 611.2,496.4 610.4,486.8 769.6,479 	"/>
	<polygon class="st10" points="761.9,506.1 622.8,514.7 622,505.3 761.5,497.2 	"/>
	<polygon class="st5" points="797.7,520.9 624.3,533.2 623.5,523.8 797.4,512.3 	"/>
	<polygon class="st9" points="691.8,546.5 615.8,552.6 615.1,543.2 691.2,537.5 	"/>
	<polygon class="st11" points="484.2,371.4 584.2,371.8 601.5,570.8 506.6,579 	"/>
	<polygon class="st12" points="883.8,372.7 484.2,371.4 482.5,356.3 883.4,360.2 	"/>
</g>
<g>
	<polygon class="st2" points="1515.7,549.2 971.1,546.9 965.2,308.3 1530,308.9 	"/>
	<g>
		<path class="st9" d="M1403.7,393.1h9.2c1.5,0,3.1-1.4,3.2-2.8l1.3-29.9c0.1-1.4-1.4-2.9-3-2.9h-9.2c-1.5,0-3.1,1.4-3.2,2.9
			l-1.2,29.9C1400.7,391.7,1402.2,393.1,1403.7,393.1z"/>
		<path class="st13" d="M1426.7,393.1h9.2c1.5,0,3.1-1.4,3.2-2.8l2.4-51.5c0.1-1.4-1.4-2.9-3-2.9h-9.3c-1.5,0-3.2,1.4-3.2,2.9
			l-2.3,51.5C1423.7,391.7,1425.2,393.1,1426.7,393.1z"/>
		<path class="st9" d="M1357.8,393h9.2c1.5,0,3.1-1.4,3.2-2.8l0.6-15.6c0.1-1.4-1.4-2.9-3-2.9h-9.2c-1.5,0-3.1,1.4-3.2,2.8
			l-0.5,15.6C1354.7,391.6,1356.2,393,1357.8,393z"/>
		<path class="st10" d="M1380.7,393h9.2c1.5,0,3.1-1.4,3.2-2.8l1.8-44.2c0.1-1.4-1.4-2.9-3-2.9h-9.3c-1.5,0-3.1,1.4-3.2,2.9
			l-1.6,44.2C1377.7,391.6,1379.2,393,1380.7,393z"/>
		<path class="st14" d="M1442.1,407.3l-103.2-0.2l2.1-67.6c0.1-2-1.6-3.6-3.7-3.6h-7.7c-2.1,0-3.9,1.6-4,3.6l-2.2,74.7
			c-0.1,3.9,3.2,7,7.4,7l110.6,0.3c2.1,0,3.9-1.6,4-3.5l0.3-7C1445.9,408.9,1444.2,407.3,1442.1,407.3z"/>
	</g>
	<polygon class="st14" points="1117.1,408.6 1039.6,408.4 1038.5,334.3 1116.9,334.4 	"/>
	<polygon class="st15" points="1232.2,347.3 1126.7,347.2 1126.6,335 1232.4,335.1 	"/>
	<polygon class="st15" points="1231.8,371.6 1126.7,371.4 1126.7,359.3 1232,359.5 	"/>
	<polygon class="st15" points="1231.5,395.7 1126.7,395.4 1126.7,383.4 1231.6,383.6 	"/>
	<polygon class="st15" points="1231.1,419.6 1126.7,419.4 1126.7,407.4 1231.3,407.7 	"/>
	<polygon class="st15" points="1230.7,443.4 1040,442.9 1039.9,431 1230.9,431.5 	"/>
	<polygon class="st15" points="1230.4,467.1 1040.3,466.5 1040.2,454.8 1230.5,455.4 	"/>
	<polygon class="st15" points="1230,490.6 1040.7,489.9 1040.5,478.3 1230.2,478.9 	"/>
	<polygon class="st15" points="1229.7,513.9 1041,513.2 1040.8,501.6 1229.8,502.2 	"/>
	<polygon class="st15" points="1436.9,444.3 1332.3,444 1332.7,432.1 1437.4,432.4 	"/>
	<polygon class="st12" points="1530.2,308.6 965.3,308 964.8,289.5 1531.4,290 	"/>
	<polygon class="st15" points="1478.6,470.5 1287.4,469.8 1287.7,458.1 1479.2,458.6 	"/>
	<polygon class="st15" points="1477.3,494.1 1286.8,493.4 1287.1,481.7 1477.9,482.3 	"/>
	<polygon class="st11" points="1000.6,547 971.3,546.9 965.5,307.8 995.9,307.8 	"/>
</g>
</svg>
