<?xml version="1.0" encoding="utf-8"?>
<!-- Generator: Adobe Illustrator 23.0.0, SVG Export Plug-In . SVG Version: 6.00 Build 0)  -->
<svg version="1.1" id="Capa_1" xmlns="http://www.w3.org/2000/svg" xmlns:xlink="http://www.w3.org/1999/xlink" x="0px" y="0px"
	 viewBox="0 0 1457.3 1080" style="enable-background:new 0 0 1457.3 1080;" xml:space="preserve">
<style type="text/css">
	.st0{fill:#F4B73B;}
	.st1{fill:#DB9B28;}
	.st2{fill:#282828;}
	.st3{fill:#353535;}
	.st4{opacity:0.7;}
	.st5{opacity:0.9;fill:#282828;enable-background:new    ;}
	.st6{opacity:0.85;fill:#1E1E1E;enable-background:new    ;}
	.st7{fill:#6D6D6D;}
	.st8{fill:#A0A0A0;}
	.st9{fill:#F41137;}
	.st10{fill:#990028;}
	.st11{fill:#89002A;}
	.st12{fill:#7C7C7C;}
	.st13{fill:#FFFFFF;}
	.st14{fill:#FF1F30;}
	.st15{fill:#0B63FF;}
	.st16{fill:#0559D1;}
	.st17{fill:#0053B7;}
	.st18{fill:#2C82FF;}
	.st19{fill:#F4CC08;}
	.st20{fill:#E8BD0A;}
	.st21{fill:#D10DD1;}
	.st22{fill:#FC10EB;}
	.st23{fill:#E00BDB;}
	.st24{fill:#B70ABC;}
	.st25{fill:#DBB309;}
	.st26{fill:#FFE527;}
</style>
<title>DocentesPresentacion</title>
<g id="Capa_4">
	<polygon class="st0" points="537.7,489.2 559.9,488.3 574.5,882.4 553.6,882.4 	"/>
	<polygon class="st0" points="1376.7,457 1344.8,822.8 1364.3,822.8 1393.1,456.3 	"/>
	<polygon class="st1" points="569.5,747 1265,701 1277,462 559.9,488.3 	"/>
	<polygon class="st0" points="1344.8,822.8 1251.5,702.7 1268.1,461.3 1376.7,457 	"/>
	<polygon class="st2" points="1431.6,454.9 501.6,490.6 501.6,472.8 514,465 1413,437 1431.6,439.1 	"/>
	<polygon class="st3" points="1228.1,362.9 1431.6,439.1 501.6,472.8 514.4,380.4 	"/>
	<g class="st4">
		<polygon class="st2" points="537.7,489.2 538.5,508.4 1391.6,472.8 1393.1,456.3 		"/>
		<polygon class="st2" points="562.4,555 1263.8,523.8 1268.1,461.3 559.9,488.3 		"/>
		<polygon class="st2" points="1344.8,822.8 1074.3,769.5 571.6,805.1 569.3,747 1251.5,702.7 		"/>
		<polygon class="st2" points="553.6,882.4 111.6,765.7 58.8,768.3 39.6,765.7 142.7,630.3 542.6,610.2 		"/>
		<polygon class="st5" points="1344.8,822.8 1251.5,702.7 1268.1,461.3 1376.7,457 		"/>
	</g>
	<polyline class="st6" points="870,413.1 818.8,410.4 822.4,389.5 861.1,388.3 870,413.1 	"/>
	<polygon class="st7" points="885.1,388 844.1,388 864.8,412.4 901.6,406 	"/>
	<polygon class="st8" points="870.3,326 1016.1,323.2 1005.5,405.5 863.9,409.2 	"/>
	<polygon class="st8" points="1005.1,408.3 864.8,412.4 863.9,409.2 1005.5,405.5 	"/>
	<polygon class="st6" points="1065.6,405.2 1008,399.2 1017.2,378.6 1071.8,381.6 	"/>
	<polygon class="st6" points="835.7,414.6 839.4,419.2 734.5,422.5 721,394.3 740.9,394.1 	"/>
	<path class="st9" d="M756.2,385.3c0.6,0,90.1-2.5,90.1-2.5l0.8,31.5l-90.8,2.9v-7.8l86.4-2.4l-0.6-15.3l-86,2L756.2,385.3z"/>
	<polygon class="st10" points="742.1,366.9 756.2,385.3 756.2,393.7 741.5,374.7 	"/>
	<polygon class="st10" points="742.1,388.2 742.4,388.6 756.4,409.5 756.4,417.2 740.9,394.1 	"/>
	<polygon class="st11" points="749.7,388.4 742.1,388.2 756.4,409.5 765.4,409 	"/>
	<polygon class="st12" points="764,393.3 765.4,409 749.7,388.4 748.2,383.9 756.2,393.7 	"/>
	<polygon class="st13" points="842.2,391.7 764,393.3 765.4,409 842.9,407 	"/>
	<polygon class="st14" points="846.3,382.9 825.5,364.5 742.1,366.9 756.2,385.3 	"/>
	<polygon class="st15" points="1065.4,396.8 1065.6,405.2 1153.1,405.2 1153.1,360.4 1066.7,359.4 1066.7,368.2 1149.4,368.8 
		1148.2,397.4 	"/>
	<polygon class="st16" points="1050.9,378.2 1065.4,396.8 1065.6,405.2 1050.1,384.7 	"/>
	<polygon class="st17" points="1050.9,378.2 1057.3,378.2 1073.4,396.8 1065.4,396.8 	"/>
	<polygon class="st13" points="1073.8,368.2 1073.4,396.8 1148.2,397.4 1149.4,368.8 	"/>
	<polygon class="st16" points="1066.7,368.2 1052.4,350.4 1060.3,352.6 1066.7,359.4 	"/>
	<polygon class="st12" points="1058.9,358.8 1057.3,378.2 1073.4,396.8 1073.8,368.2 1066.7,368.2 	"/>
	<polygon class="st18" points="1153.1,360.4 1146.8,355.7 1082.8,359.4 	"/>
	<polygon class="st19" points="1082.4,351 1082.8,359.4 1159.5,355.1 1160.5,325 1151.5,325 1151.5,326.3 1083.8,328.3 
		1084.4,336.9 1156.4,333.2 1155,347.5 	"/>
	<polygon class="st20" points="1030.7,336.9 1082.4,351 1082.8,359.4 1030.9,343.4 	"/>
	<polygon class="st12" points="1037.7,324 1037.6,335.9 1089.2,350.8 1089.7,336.7 1084.4,336.9 	"/>
	<polygon class="st20" points="1031.1,315.6 1083.8,328.3 1084.4,336.9 1031.7,322.4 	"/>
	<polygon class="st21" points="1035.6,285.4 1035.2,292.9 1070.3,306.8 1070.6,297.4 	"/>
	<polygon class="st22" points="1113.1,284.4 1035.6,285.4 1070.6,297.4 1152.9,297.2 	"/>
	<path class="st23" d="M1070.3,306.8c0.6,0,78.3-2,78.3-2l-0.6,14.9l-79.1,0.6l-0.4,9l83-3.1l1.4-29l-82.4,0.2L1070.3,306.8z"/>
	<polygon class="st21" points="1034.2,307.5 1068.9,320.3 1068.5,329.3 1034.6,315 	"/>
	<polygon class="st13" points="1075.3,320.3 1075.9,306.7 1148.6,304.8 1148,319.7 	"/>
	<polygon class="st12" points="1042.6,295.8 1042.1,306.8 1075.3,320.3 1075.9,306.7 1070.3,306.8 	"/>
	<polygon class="st24" points="1034.2,307.5 1042.1,306.8 1075.3,320.3 1068.9,320.3 	"/>
	<polygon class="st25" points="1089.1,350.9 1082.3,351.1 1030.6,337 1037.6,335.9 	"/>
	<polygon class="st17" points="1060.3,352.6 1066.7,359.4 1083,359.5 	"/>
	<polygon class="st26" points="1031.1,315.6 1034.6,315 1043.2,318.5 	"/>
	<polygon class="st13" points="1089.7,336.7 1156.4,333.2 1155,347.5 1089.2,350.8 	"/>
	<polygon class="st26" points="1160.5,325 1151.8,322 1151.5,326.3 	"/>
</g>
</svg>
