<?xml version="1.0" encoding="utf-8"?>
<!-- Generator: Adobe Illustrator 23.0.0, SVG Export Plug-In . SVG Version: 6.00 Build 0)  -->
<svg version="1.1" id="Capa_1" xmlns="http://www.w3.org/2000/svg" xmlns:xlink="http://www.w3.org/1999/xlink" x="0px" y="0px"
	 viewBox="0 0 1920 1080" style="enable-background:new 0 0 1920 1080;" xml:space="preserve">
<style type="text/css">
	.st0{fill:#353535;}
	.st1{fill:#282828;}
	.st2{fill:#EFEFEF;}
	.st3{opacity:0.7;fill:#282828;enable-background:new    ;}
	.st4{opacity:0.7;}
	.st5{fill:#F2F2F2;}
	.st6{fill:#CECECE;}
	.st7{fill:#F4CC08;}
	.st8{fill:#919191;}
	.st9{fill:#0B63FF;}
	.st10{fill:#FF1F30;}
	.st11{fill:#FC10EB;}
	.st12{fill:none;}
</style>
<g>
	<polygon class="st0" points="531.9,221 544.8,216.6 564,219.3 564,835.3 551.1,837.8 537.9,826.5 	"/>
	<title>mural</title>
	<polygon class="st1" points="592.7,218.1 544.8,216.6 551.1,837.8 599,833.4 	"/>
	<polygon class="st0" points="1385.7,744.8 1412.1,754.1 1424.6,752.2 1439.8,242 1425.7,240.2 1397.4,242.6 	"/>
	<polygon class="st1" points="1446.8,750.2 1412.1,754.1 1425.7,240.2 1460.5,241.1 	"/>
	<polygon class="st2" points="598.5,750.7 1407.7,685.6 1418.3,265.6 593.2,249.5 	"/>
	<polygon class="st3" points="598.5,788.8 670.6,744.8 1407.7,685.6 1386.6,704.3 1385.7,744.8 1378.9,732.1 647.9,799.6 599,833.4 
			"/>
	<polygon class="st3" points="598.5,750.7 605,750.2 600.6,249.7 593.2,249.5 	"/>
	<g class="st4">
		<polygon class="st1" points="799.7,439.2 690.7,441.4 689.2,301.2 798.8,302 		"/>
	</g>
	<polygon class="st5" points="796.5,438.4 687.5,440.6 686.1,300.2 795.8,301.2 	"/>
	<polygon class="st6" points="787.1,320.8 696.6,320.4 696.5,312 787,312.5 	"/>
	<polygon class="st6" points="786.6,334.3 696.1,334 696.1,325.5 786.5,325.8 	"/>
	<polygon class="st6" points="786.1,347 695.7,347.1 695.7,338.6 786,338.6 	"/>
	<polygon class="st6" points="786.1,359.7 695.8,360 695.7,351.6 786.1,351.5 	"/>
	<polygon class="st6" points="786.4,379.5 696.1,380.3 696,371.8 786.2,371.3 	"/>
	<polygon class="st6" points="785.7,393 695.7,394 695.5,385.5 785.7,384.6 	"/>
	<polygon class="st6" points="785.3,405.6 695.2,406.9 695,398.4 785.3,397.5 	"/>
	<polygon class="st6" points="785.4,418.4 695.2,419.7 695.2,411.4 785.4,410.1 	"/>
	<g class="st4">
		<polygon class="st1" points="805.6,600.2 697.7,606 696.4,467.9 804.9,465 		"/>
	</g>
	<polygon class="st5" points="802.5,599.5 694.4,605.3 693.1,467.1 801.7,464.3 	"/>
	<polygon class="st7" points="794.9,487.1 702.2,489.9 702.1,481.5 794.9,478.8 	"/>
	<polygon class="st6" points="794.5,500.2 701.7,503.2 701.7,494.9 794.5,491.9 	"/>
	<polygon class="st6" points="794.1,512.7 701.2,516 701.2,507.8 794,504.6 	"/>
	<polygon class="st6" points="794.1,525.5 701.3,529 701.3,520.6 794.1,517.2 	"/>
	<polygon class="st6" points="794.1,544.8 701.6,548.8 701.6,540.5 794.1,536.7 	"/>
	<polygon class="st6" points="793.6,558 701.1,562.3 701.1,553.9 793.6,549.9 	"/>
	<polygon class="st6" points="793.1,570.6 700.6,575 700.6,566.8 793.1,562.4 	"/>
	<polygon class="st6" points="793.1,583.1 700.9,587.8 700.7,579.5 793.1,574.9 	"/>
	<g class="st4">
		<polygon class="st1" points="942.2,468.5 839.9,471.3 839.5,335.6 942.3,335.8 		"/>
	</g>
	<polygon class="st5" points="939.3,467.8 836.8,470.5 836.5,334.7 939.4,335 	"/>
	<polygon class="st6" points="890.3,357.1 844.4,357.4 844.4,349.1 890.3,349 	"/>
	<polygon class="st6" points="889.9,370.3 844.1,370.5 844.1,362.3 889.9,362.2 	"/>
	<polygon class="st6" points="889.6,382.8 843.9,383.2 843.9,374.9 889.6,374.7 	"/>
	<polygon class="st6" points="931.8,394.7 843.9,395.8 843.9,387.5 931.8,386.7 	"/>
	<polygon class="st6" points="931.8,413.9 843.9,415.3 843.9,407.2 931.8,405.9 	"/>
	<polygon class="st6" points="931.2,426.8 843.5,428.3 843.4,420.2 931.2,418.8 	"/>
	<polygon class="st6" points="930.7,439.1 842.9,440.9 842.9,432.8 930.7,431.1 	"/>
	<polygon class="st6" points="930.7,451.5 843,453.4 842.9,445.3 930.7,443.5 	"/>
	<polygon class="st8" points="932,381.5 894.4,381.8 894.2,350 932,349.9 	"/>
	<g class="st4">
		<polygon class="st1" points="1375.4,582.7 1292,587.5 1294.1,466.2 1377.9,463.7 		"/>
	</g>
	<polygon class="st5" points="1373.2,582.1 1289.5,586.9 1291.6,465.4 1375.5,463.1 	"/>
	<polygon class="st6" points="1367.9,561.2 1296.4,564.9 1296.5,557.7 1368.1,554 	"/>
	<polygon class="st6" points="1367.7,572.2 1296.2,576.2 1296.4,568.9 1367.7,565.1 	"/>
	<polygon class="st8" points="1356.5,548.2 1306,550.7 1307.1,485 1357.8,483.3 	"/>
	<g class="st4">
		<polygon class="st1" points="1249.9,452.9 1160.9,455.1 1162.2,328.6 1251.8,328.8 		"/>
	</g>
	<polygon class="st5" points="1247.5,452.1 1158.2,454.4 1159.7,327.7 1249.3,328 	"/>
	<polygon class="st6" points="1243.4,349.3 1166.7,349.3 1166.8,341.6 1243.5,341.6 	"/>
	<g class="st4">
		<polygon class="st1" points="1132.8,576 988.9,583.5 989.5,369.4 1134.7,368.5 		"/>
	</g>
	<polygon class="st5" points="1128.8,574.9 984.6,582.4 985.3,368 1130.7,367.2 	"/>
	<g class="st4">
		<polygon class="st1" points="1258.6,608.1 1170.6,613.6 1172,489 1260.6,486.1 		"/>
	</g>
	<polygon class="st5" points="1256.2,607.6 1167.9,612.9 1169.5,488.3 1258.1,485.4 	"/>
	<polygon class="st6" points="1250.6,503.2 1177.6,505.8 1177.7,498.3 1250.8,495.8 	"/>
	<polygon class="st6" points="1250,515.2 1176.9,518 1177,510.4 1250.1,507.7 	"/>
	<polygon class="st6" points="1249.4,526.4 1176.4,529.6 1176.5,522.1 1249.5,519 	"/>
	<polygon class="st6" points="1249.2,537.8 1176.2,541.1 1176.3,533.7 1249.3,530.4 	"/>
	<polygon class="st6" points="1248.9,555.5 1176,559 1176,551.6 1249.1,548.1 	"/>
	<polygon class="st6" points="1248.3,567.4 1175.4,571.1 1175.6,563.7 1248.5,560 	"/>
	<polygon class="st6" points="1247.7,578.7 1174.7,582.6 1174.8,575.2 1247.8,571.4 	"/>
	<polygon class="st6" points="1247.5,590 1174.7,594.2 1174.7,586.6 1247.6,582.6 	"/>
	<g class="st4">
		<polygon class="st1" points="1372.5,428.8 1288.2,430.5 1290.4,307.4 1375,308.1 		"/>
	</g>
	<polygon class="st5" points="1370.2,428.1 1285.7,429.8 1287.8,306.5 1372.6,307.3 	"/>
	<polygon class="st6" points="1365.3,324.6 1295.4,324.2 1295.6,316.7 1365.6,317.2 	"/>
	<polygon class="st6" points="1364.7,336.3 1294.8,336.2 1295.1,328.7 1364.8,329 	"/>
	<polygon class="st6" points="1364,347.6 1294.2,347.6 1294.3,340.2 1364.2,340.3 	"/>
	<polygon class="st6" points="1363.9,358.8 1294,359.1 1294.2,351.6 1364,351.5 	"/>
	<polygon class="st9" points="1187.7,415.3 1174.7,415.5 1174.9,392.7 1187.9,392.6 	"/>
	<polygon class="st7" points="1204.4,414.7 1191.5,414.8 1191.9,384.1 1204.7,383.9 	"/>
	<polygon class="st10" points="1219.4,414.1 1206.6,414.2 1206.9,377.2 1219.9,377.1 	"/>
	<polygon class="st11" points="1235.7,413 1223,413.2 1223.7,363.4 1236.5,363.3 	"/>
	<polygon class="st6" points="1239.7,433.9 1163.3,435.5 1163.4,428 1239.9,426.4 	"/>
	<g class="st4">
		<polygon class="st1" points="937.6,632.5 835.9,638.9 835.4,505.1 937.7,501.6 		"/>
	</g>
	<polygon class="st5" points="934.7,631.9 832.9,638.2 832.4,504.4 934.9,500.9 	"/>
	<polygon class="st6" points="928.4,523.5 840.8,526.9 840.8,518.8 928.4,515.7 	"/>
	<polygon class="st6" points="925.6,613 838.4,618 838.3,610 925.6,605 	"/>
	<path class="st7" d="M912.3,567.4l-26,1.2l17.4,15.9c0.6,0.6,1.8,0.6,2.4,0c4.2-4.1,7.1-9.4,8-15.3c0.1-0.8-0.6-1.7-1.5-1.8
		C912.5,567.4,912.4,567.4,912.3,567.4L912.3,567.4z"/>
	<path class="st10" d="M910.6,560.6c-1-12.7-11.4-22.3-24.5-22.6c-1.1,0-1.9,0.7-1.9,1.8v23.9l24.6-1.1
		C909.7,562.4,910.6,561.6,910.6,560.6L910.6,560.6L910.6,560.6z"/>
	<path class="st9" d="M879.1,568.9v-25.3c0-1-0.7-1.7-1.7-1.7c-0.1,0-0.2,0-0.2,0c-13.2,2.4-23.4,13.9-22.9,27.2
		c0.6,13.7,12.8,24.2,27,23.4c5.3-0.4,10.5-2.3,14.8-5.4c0.7-0.6,1-1.6,0.4-2.3c-0.1-0.1-0.1-0.2-0.2-0.2L879.1,568.9z"/>
	<path class="st9" d="M1082.6,435.4c-1.5-0.5-2.7-1.1-3.8-1.9l-6.9,9.9c1.2,0.6,2.4,1.5,3.5,2.4L1082.6,435.4z"/>
	<path class="st9" d="M1046.8,472.4l-12.4,11.9c1.1,0.8,2.2,1.9,2.9,3.1l12.5-11.9C1048.8,474.6,1047.8,473.5,1046.8,472.4z"/>
	<path class="st9" d="M1096.2,423.4c0.1-5.3-4.1-9.7-9.3-9.7c-0.1,0-0.2,0-0.2,0c-5.4,0.2-9.8,4.6-9.9,10.1
		c-0.1,5.3,4.1,9.7,9.4,9.7c0.1,0,0.2,0,0.4,0C1091.9,433.3,1096.1,428.8,1096.2,423.4z"/>
	<path class="st9" d="M1076.7,423.7c0-5.4,4.5-9.9,9.9-10.1c5.3-0.1,9.7,4.1,9.7,9.4c0,0.1,0,0.2,0,0.2c-0.1,5.4-4.4,9.9-9.8,10.1
		c-5.3,0.1-9.7-4.1-9.7-9.3C1076.7,424,1076.7,423.9,1076.7,423.7z"/>
	<path class="st9" d="M1027,484.5c-5.6,0.2-10.1,4.7-10.1,10.4c-0.1,5.3,4.1,9.7,9.4,9.7c0.2,0,0.4,0,0.6,0
		c5.6-0.2,9.9-4.8,10.1-10.3c0.1-5.3-4.1-9.7-9.4-9.7C1027.3,484.5,1027.2,484.5,1027,484.5z"/>
	<path class="st9" d="M1027,504.5c-5.3,0.2-9.7-3.9-10.1-9.2c0-0.2,0-0.4,0-0.6c0.1-5.6,4.5-10.1,10.1-10.4c5.3-0.2,9.7,3.9,9.9,9.2
		c0,0.2,0,0.2,0,0.5C1036.8,499.7,1032.5,504.3,1027,504.5z"/>
	<path class="st9" d="M1090.5,477.1c-2.2,0.1-4.4,0.7-6.1,2.1l-7.5-7.3l-1.7-1.7c2.3-3,3.6-6.7,3.6-10.4c0.2-9-7-16.3-15.9-16.5
		c-0.2,0-0.5,0-0.6,0c-4.2,0.1-8.4,1.8-11.4,4.8l-1.9-1.6l-6.1-5.1c1-1.7,1.5-3.5,1.5-5.4c0.1-6.1-4.7-10.9-10.8-11
		c-0.1,0-0.2,0-0.4,0c-6.2,0.2-11.3,5.3-11.4,11.5c-0.1,6.1,4.7,10.9,10.8,11c0.2,0,0.2,0,0.5,0c2.5-0.1,5.1-1.1,7.1-2.7l6.2,5.1
		l1.9,1.6c-1.7,2.8-2.7,5.8-2.7,9.1c-0.2,8.8,7,16.2,15.9,16.5c0.2,0,0.6,0,0.7,0c3.6-0.1,7.1-1.5,10.1-3.6l1.7,1.7l7.5,7.3
		c-1.2,1.9-1.9,4.1-1.9,6.2c-0.1,5.8,4.5,10.5,10.3,10.8c0.2,0,0.4,0,0.6,0c6.2-0.2,10.9-5.3,10.9-11.4c0.2-5.8-4.5-10.7-10.2-10.8
		C1091,477.1,1090.8,477.1,1090.5,477.1z M1062.2,468.5c-4.1,0.1-7.5-3.1-7.6-7.1c0-0.1,0-0.2,0-0.4c0-4.4,3.5-7.9,7.8-8
		c4.1-0.1,7.5,3.1,7.6,7.3c0,0.1,0,0.2,0,0.2C1069.8,464.9,1066.4,468.3,1062.2,468.5z"/>
	<polygon class="st7" points="1108.2,403.2 1007.2,404.5 1007.4,390.8 1108.5,389.7 	"/>
	<polygon class="st6" points="1102.3,524.5 1007.2,528.4 1007.2,518.9 1102.4,515.2 	"/>
	<polygon class="st6" points="1101.6,539.4 1006.6,543.5 1006.6,534.1 1101.7,530.2 	"/>
	<polygon class="st12" points="1408.9,684.5 598.5,750.7 591.5,249.6 1418.2,264.7 	"/>
</g>
<rect x="1" y="2.2" class="st12" width="1918.1" height="1077.1"/>
</svg>
