<?xml version="1.0" encoding="utf-8"?>
<!-- Generator: Adobe Illustrator 23.0.0, SVG Export Plug-In . SVG Version: 6.00 Build 0)  -->
<svg version="1.1" id="Capa_1" xmlns="http://www.w3.org/2000/svg" xmlns:xlink="http://www.w3.org/1999/xlink" x="0px" y="0px"
	 viewBox="0 0 1920 1080" style="enable-background:new 0 0 1920 1080;" xml:space="preserve">
<style type="text/css">
	.st0{opacity:0.7;fill:#1E1E1E;enable-background:new    ;}
	.st1{fill:#262626;}
	.st2{fill:#161616;}
	.st3{fill:#2D2D2D;}
	.st4{fill:#F41137;}
	.st5{fill:#990028;}
	.st6{fill:#FFFFFF;}
	.st7{opacity:0.3;fill:#1E1E1E;enable-background:new    ;}
	.st8{fill:#E8E8E8;}
	.st9{fill:#1E1E1E;}
	.st10{fill:#E00BDB;}
	.st11{fill:#FF1F30;}
	.st12{fill:#F4CC08;}
	.st13{fill:#0B63FF;}
	.st14{fill:#383838;}
	.st15{fill:#D6D6D6;}
	.st16{opacity:0.33;fill:#D6D6D6;enable-background:new    ;}
	.st17{fill:#CCCCCC;}
</style>
<polygon class="st0" points="842,663 889.8,712.8 929.3,710.7 869.2,657.5 "/>
<polygon class="st1" points="907,712.3 1409.2,697.2 1412.3,681.7 1393.6,676.5 916,692.3 907.5,695.2 "/>
<path class="st2" d="M862.8,652.6c0.7,0.7,8.2,1.5,10,3.3c8.6,8.2,25.4,24.8,34.1,33.1c2.7,2.6,0.6,6.2,0.6,6.2l-0.5,17.1
	l-44.6-43.6L862.8,652.6z"/>
<polygon class="st1" points="1388.4,612.1 1387.3,627.6 1551.5,626.6 1551.5,611 1539.5,605.9 1396,606.9 "/>
<polygon class="st2" points="1387.3,627.6 1365.5,596.5 1366.6,580.9 1377.3,584.8 1394.1,607.4 1388.4,612.1 "/>
<polygon class="st1" points="918.9,629.7 921,618.3 905.9,614.1 791.2,616.5 781.8,621.4 781.8,632.8 "/>
<polygon class="st2" points="752.7,588.2 752.7,599.6 781.8,632.8 781.8,621.4 783.5,613.6 763.4,594.4 "/>
<polygon class="st1" points="737.1,663 479.5,724.2 478.5,699.3 477.8,694.2 717.8,641.4 737.1,642.2 "/>
<polygon class="st2" points="304,666.1 307.1,691 479.5,724.2 478.5,699.3 475.8,687 316.5,661.6 "/>
<title>pricnpal</title>
<polygon class="st0" points="1747.1,695.2 1653.3,686.8 1572.2,642.2 1657.4,640.1 "/>
<path class="st3" d="M1509.7,649.5c0,0-13.2-1.1-25.4,1.6c-7.1,1.5-13.8,4.4-17.4,9.4c-0.8,1.1-1.4,2.2-1.9,3.5
	c-1.7,3.5,10.2,12.7,14.3,15.7c0.8,0.6,1.3,1,1.3,1s18.8,7.5,36.8,8.5c10.4,0.6,20.4-1,26.5-7.5
	C1548.1,660.9,1509.7,649.5,1509.7,649.5z"/>
<polygon class="st0" points="307.1,691 0.7,644.3 182.4,599.6 85.8,586.1 560.5,564.3 753.7,564.3 1141.2,564.3 1366.6,584 
	1365.5,596.5 1384,623 1358.3,623.5 1350,605.8 911.6,610 882.5,585.1 752.7,588.2 752.7,599.6 764.2,612.6 601,619.6 "/>
<polygon class="st1" points="1811.2,198.7 1147.4,199.7 1143.3,522.7 1790.4,524.8 "/>
<polygon class="st3" points="478.5,699.3 304,666.1 566.8,614.1 737.1,642.2 "/>
<polygon class="st2" points="242.7,440.7 240.6,449 299.8,665 304,666.1 "/>
<polygon class="st3" points="1328.2,637 862.8,652.6 907.5,695.2 1412.3,681.7 "/>
<polygon class="st3" points="1520.3,581.9 1551.5,611 1388.4,612.1 1366.6,580.9 "/>
<polygon class="st3" points="921,618.3 781.8,621.4 752.7,588.2 882.5,585.1 "/>
<polygon class="st4" points="1918.1,647.4 1758.2,652.6 1756.1,682.7 1912.9,676.5 1911.9,688.9 1746.8,695.2 1750.9,638 
	1762.7,634.7 1900.5,632.3 1918.1,636 "/>
<path class="st5" d="M1746.8,695.2c-2.1,0-89.3-44.7-89.3-44.7l3.1-54l90.4,41.5L1746.8,695.2z"/>
<path class="st5" d="M1912.9,676.5c-2.1,0-43.6-18.7-43.6-18.7l27,19.3L1912.9,676.5z"/>
<polygon class="st6" points="1897.6,648.6 1896.3,677 1756.1,682.7 1758.2,652.6 "/>
<path class="st0" d="M1549.4,609c4.2-1,82.1-2.1,82.1-2.1l-98.7-13.5L1549.4,609z"/>
<polygon class="st7" points="1376.3,594.6 1534.8,595.6 1520.3,581.9 1366.6,580.9 "/>
<polygon class="st7" points="904.4,603.8 769.3,606.9 752.7,588.2 882.5,585.1 "/>
<path class="st0" d="M1517.7,689.1c-18-1-36.8-8.5-36.8-8.5l-1.3-1c-4.1-3-16-12.2-14.3-15.7c0.4-1.3,1.1-2.4,1.8-3.5
	c3.6-5,10.3-7.9,17.4-9.4C1489.4,680.1,1506.1,687.6,1517.7,689.1z"/>
<path class="st0" d="M1479.5,679.7v0.4c0,0-62-13-14.2-19.2c0.6-0.1,1.3-0.3,1.8-0.4c-0.8,1.1-1.4,2.3-1.8,3.5
	C1463.5,667.5,1475.4,676.7,1479.5,679.7z"/>
<polygon class="st1" points="825.3,544.5 826.5,611 861.8,610 857.9,543.5 "/>
<polygon class="st7" points="825.5,549.4 825.8,573 859.2,572.4 857.6,548.3 "/>
<polygon class="st1" points="1439.3,595.4 1441.6,520.5 1479.5,520 1475.6,595.4 "/>
<polygon class="st7" points="1441.4,523.8 1440.1,566.7 1477.1,566.6 1479.8,523.8 "/>
<polygon class="st2" points="826.5,611 824,606.7 822.5,549.3 825.5,549.4 "/>
<polygon class="st7" points="825.8,573 823.1,571.5 822.5,549.3 825.5,549.4 "/>
<polygon class="st2" points="1439.3,595.4 1434.9,589.4 1436.1,523.6 1441.4,523.8 "/>
<polygon class="st7" points="1435.1,564.7 1440.1,566.7 1441.4,523.8 1436.1,523.6 "/>
<polygon class="st7" points="1376.3,594.6 1375,610.1 1365.5,596.5 1366.6,580.9 "/>
<polygon class="st7" points="769.3,606.9 769.3,618.3 752.7,599.6 752.7,588.2 "/>
<polygon class="st8" points="1353.7,662.3 1330.3,663 1306.9,650.5 1329.6,649.7 "/>
<polygon class="st8" points="1381.4,676.6 1357.3,677.3 1332.6,664.1 1356.1,663.4 "/>
<polygon class="st8" points="905.7,663.1 886.7,663.8 881.2,658.6 900,658 "/>
<polygon class="st8" points="928.4,662.4 909.2,663 903.5,657.8 922.5,657.2 "/>
<polygon class="st8" points="951.4,661.6 932,662.3 926.1,657 945.3,656.4 "/>
<polygon class="st8" points="974.6,660.8 955,661.5 948.8,656.3 968.2,655.6 "/>
<polygon class="st8" points="998.1,660 978.3,660.7 971.8,655.5 991.4,654.8 "/>
<polygon class="st8" points="1022.1,659.2 1002.2,659.9 995.4,654.6 1015.2,654 "/>
<polygon class="st8" points="1046.1,658.4 1025.9,659.1 1018.9,653.8 1038.9,653.1 "/>
<polygon class="st8" points="1070.3,657.6 1049.9,658.3 1042.6,653 1062.8,652.3 "/>
<polygon class="st8" points="1094.7,656.8 1074.1,657.5 1066.6,652.2 1087,651.5 "/>
<polygon class="st8" points="1120,655.9 1099.1,656.6 1091.3,651.3 1111.9,650.6 "/>
<polygon class="st8" points="1144.9,655.1 1123.9,655.8 1115.8,650.5 1136.6,649.7 "/>
<polygon class="st8" points="912.6,669.4 893.3,670 887.7,664.8 906.8,664.1 "/>
<polygon class="st8" points="935.6,668.7 916.2,669.3 910.3,664 929.6,663.4 "/>
<polygon class="st8" points="958.9,667.9 939.3,668.6 933.2,663.3 952.6,662.6 "/>
<polygon class="st8" points="982.4,667.2 962.6,667.8 956.2,662.5 975.9,661.8 "/>
<polygon class="st8" points="1006.2,666.4 986.1,667.1 979.5,661.7 999.4,661 "/>
<polygon class="st8" points="1030.6,665.6 1010.3,666.3 1003.4,660.9 1023.5,660.2 "/>
<polygon class="st8" points="1054.8,664.8 1034.4,665.5 1027.2,660.1 1047.5,659.4 "/>
<polygon class="st8" points="1079.4,664.1 1058.7,664.7 1051.3,659.3 1071.7,658.6 "/>
<polygon class="st8" points="1104.2,663.3 1083.3,663.9 1075.6,658.5 1096.2,657.8 "/>
<polygon class="st8" points="1155.1,661.6 1108.6,663.1 1100.6,657.7 1146.6,656.1 "/>
<polygon class="st8" points="943,675.2 900.1,676.5 894.4,671.1 936.8,669.7 "/>
<polygon class="st8" points="966.6,674.5 946.7,675.1 940.5,669.6 960.1,669 "/>
<polygon class="st8" points="990.4,673.7 970.3,674.3 963.8,668.9 983.7,668.2 "/>
<polygon class="st8" points="1014.5,673 994.2,673.6 987.5,668.1 1007.5,667.5 "/>
<polygon class="st8" points="1039.3,672.2 1018.7,672.9 1011.7,667.3 1032,666.7 "/>
<polygon class="st8" points="1063.9,671.5 1043.1,672.1 1035.8,666.6 1056.3,665.9 "/>
<polygon class="st8" points="1088.8,670.7 1067.8,671.4 1060.2,665.8 1080.9,665.1 "/>
<polygon class="st8" points="1113.9,669.9 1092.7,670.6 1084.8,665 1105.8,664.3 "/>
<polygon class="st8" points="1139.9,669.1 1118.4,669.8 1110.2,664.2 1131.4,663.5 "/>
<polygon class="st8" points="1165.6,668.4 1143.9,669 1135.4,663.4 1156.8,662.7 "/>
<polygon class="st8" points="926.8,682.5 907.1,683.1 901.3,677.5 920.8,676.9 "/>
<polygon class="st8" points="950.5,681.8 930.6,682.4 924.5,676.8 944.2,676.2 "/>
<polygon class="st8" points="974.4,681.1 954.3,681.7 947.9,676.1 967.8,675.5 "/>
<polygon class="st8" points="998.6,680.4 978.2,681 971.6,675.4 991.7,674.8 "/>
<polygon class="st8" points="1023,679.7 1002.4,680.3 995.5,674.7 1015.9,674 "/>
<polygon class="st8" points="1048.1,679 1027.3,679.6 1020.1,673.9 1040.7,673.3 "/>
<polygon class="st8" points="1073.1,678.2 1052,678.8 1044.5,673.2 1065.3,672.5 "/>
<polygon class="st8" points="1098.3,677.5 1077,678.1 1069.2,672.4 1090.3,671.8 "/>
<polygon class="st8" points="1123.8,676.8 1102.3,677.4 1094.2,671.7 1115.5,671 "/>
<polygon class="st8" points="1176.2,675.2 1128.4,676.6 1120,670.9 1167.3,669.5 "/>
<polygon class="st8" points="934.1,689.1 914.1,689.7 908.1,684 927.9,683.5 "/>
<polygon class="st8" points="958.1,688.5 937.9,689 931.6,683.3 951.6,682.8 "/>
<polygon class="st8" points="982.3,687.8 961.9,688.4 955.4,682.7 975.6,682.1 "/>
<polygon class="st8" points="1108.3,684.3 986.2,687.7 979.4,682 1100,678.5 "/>
<polygon class="st8" points="1133.8,683.6 1112,684.2 1103.7,678.4 1125.3,677.8 "/>
<polygon class="st8" points="1160.5,682.9 1138.4,683.5 1129.8,677.6 1151.7,677 "/>
<polygon class="st8" points="1187,682.1 1164.7,682.8 1155.7,676.9 1177.8,676.2 "/>
<polygon class="st8" points="1170.6,654.2 1149.3,654.9 1140.9,649.5 1161.9,648.8 "/>
<polygon class="st8" points="1196.1,653.3 1174.6,654.1 1165.9,648.7 1187.2,647.9 "/>
<polygon class="st8" points="1221.9,652.5 1200.2,653.2 1191.2,647.8 1212.7,647 "/>
<polygon class="st8" points="1181.1,660.8 1159.5,661.5 1150.9,656 1172.3,655.2 "/>
<polygon class="st8" points="1207,659.9 1185.2,660.6 1176.3,655.1 1197.8,654.4 "/>
<polygon class="st8" points="1233.2,659.1 1211.1,659.8 1201.9,654.3 1223.7,653.5 "/>
<polygon class="st8" points="1191.9,667.5 1170,668.2 1161.2,662.5 1182.9,661.9 "/>
<polygon class="st8" points="1218.2,666.7 1196.1,667.4 1186.9,661.7 1208.8,661 "/>
<polygon class="st8" points="1244.8,665.9 1222.4,666.6 1212.9,660.9 1235.1,660.2 "/>
<polygon class="st8" points="1203,674.4 1180.8,675.1 1171.7,669.3 1193.7,668.6 "/>
<polygon class="st8" points="1229.7,673.6 1207.2,674.3 1197.8,668.5 1220,667.8 "/>
<polygon class="st8" points="1256.6,672.8 1233.9,673.5 1224.2,667.7 1246.7,667 "/>
<polygon class="st8" points="1247.4,651.4 1225.4,652.2 1216.2,646.7 1237.9,646 "/>
<polygon class="st8" points="1273.8,650.5 1251.6,651.3 1241.9,645.8 1263.9,645.1 "/>
<polygon class="st8" points="1300.4,649.6 1277.9,650.4 1268,644.9 1290.2,644.2 "/>
<polygon class="st8" points="1259.1,658.1 1236.8,658.8 1227.3,653.2 1249.3,652.5 "/>
<polygon class="st8" points="1285.8,657.2 1263.3,657.9 1253.4,652.3 1275.7,651.6 "/>
<polygon class="st8" points="1312.8,656.3 1290,657.1 1279.9,651.5 1302.4,650.7 "/>
<polygon class="st8" points="1271.1,664.9 1248.4,665.6 1238.7,659.9 1261,659.2 "/>
<polygon class="st8" points="1298.2,664.1 1275.3,664.8 1265.2,659 1287.8,658.3 "/>
<polygon class="st8" points="1325.7,663.2 1302.5,663.9 1292.1,658.2 1314.9,657.5 "/>
<polygon class="st8" points="1283.3,671.9 1260.3,672.5 1250.3,666.7 1273,666 "/>
<polygon class="st8" points="1310.9,671.1 1287.6,671.7 1277.3,665.9 1300.2,665.2 "/>
<polygon class="st8" points="1338.7,670.2 1315.2,670.9 1304.5,665 1327.7,664.3 "/>
<polygon class="st8" points="1327.6,648.6 1304.9,649.4 1294.6,643.9 1317.1,643.1 "/>
<polygon class="st8" points="1324.1,678.3 1272.9,679.7 1262.6,673.7 1313.2,672.3 "/>
<polygon class="st8" points="1352.5,677.5 1328.6,678.2 1317.7,672.1 1341.2,671.5 "/>
<polygon class="st8" points="360.7,664.2 341.8,668.1 326.6,665.2 345.6,661.3 "/>
<polygon class="st8" points="383,659.5 364.3,663.4 349.1,660.6 367.9,656.7 "/>
<polygon class="st8" points="405.1,654.9 386.5,658.8 371.4,656 390,652.1 "/>
<polygon class="st8" points="426.9,650.4 408.5,654.2 393.4,651.4 411.8,647.6 "/>
<polygon class="st8" points="448.5,645.9 430.3,649.7 415.2,646.9 433.4,643.2 "/>
<polygon class="st8" points="470.3,641.4 452.3,645.1 437.1,642.4 455.2,638.7 "/>
<polygon class="st8" points="491.5,637 473.6,640.7 458.5,638 476.4,634.3 "/>
<polygon class="st8" points="512.5,632.6 494.8,636.3 479.7,633.6 497.4,630 "/>
<polygon class="st8" points="533.2,628.3 515.7,631.9 500.6,629.3 518.1,625.7 "/>
<polygon class="st8" points="554.2,623.9 536.9,627.5 521.8,624.9 539.2,621.3 "/>
<polygon class="st8" points="574.6,619.7 557.5,623.2 542.4,620.6 559.5,617.1 "/>
<polygon class="st8" points="378.9,667.6 359.9,671.6 344.7,668.7 363.6,664.7 "/>
<polygon class="st8" points="401.2,662.9 382.4,666.8 367.2,664 385.9,660.1 "/>
<polygon class="st8" points="423.2,658.3 404.6,662.2 389.4,659.3 408,655.5 "/>
<polygon class="st8" points="445.1,653.7 426.7,657.6 411.4,654.8 429.8,650.9 "/>
<polygon class="st8" points="466.7,649.2 448.5,653 433.2,650.2 451.4,646.4 "/>
<polygon class="st8" points="488.4,644.6 470.4,648.4 455.1,645.7 473.2,641.9 "/>
<polygon class="st8" points="509.6,640.2 491.8,643.9 476.5,641.2 494.4,637.5 "/>
<polygon class="st8" points="530.6,635.8 512.9,639.5 497.7,636.8 515.3,633.1 "/>
<polygon class="st8" points="551.3,631.4 533.8,635.1 518.6,632.4 536.1,628.8 "/>
<polygon class="st8" points="592.7,622.8 555,630.7 539.8,628 577.5,620.2 "/>
<polygon class="st8" points="419.5,666.4 378.3,675.1 362.9,672.1 404.1,663.5 "/>
<polygon class="st8" points="441.6,661.7 423,665.6 407.7,662.8 426.2,658.8 "/>
<polygon class="st8" points="463.4,657.1 445,661 429.7,658.1 448.1,654.3 "/>
<polygon class="st8" points="485,652.5 466.8,656.4 451.5,653.5 469.7,649.7 "/>
<polygon class="st8" points="506.8,647.9 488.7,651.7 473.4,649 491.4,645.2 "/>
<polygon class="st8" points="527.9,643.5 510.1,647.2 494.8,644.5 512.6,640.7 "/>
<polygon class="st8" points="548.9,639 531.2,642.8 515.9,640 533.6,636.3 "/>
<polygon class="st8" points="569.6,634.6 552.2,638.3 536.8,635.6 554.3,632 "/>
<polygon class="st8" points="590.6,630.2 573.3,633.8 558,631.2 575.3,627.5 "/>
<polygon class="st8" points="611,625.9 593.8,629.5 578.5,626.9 595.7,623.3 "/>
<polygon class="st8" points="415.7,674.5 396.8,678.6 381.3,675.6 400.2,671.6 "/>
<polygon class="st8" points="438,669.8 419.2,673.8 403.7,670.9 422.5,666.9 "/>
<polygon class="st8" points="460,665.1 441.5,669.1 426,666.2 444.5,662.2 "/>
<polygon class="st8" points="481.9,660.5 463.5,664.4 448,661.5 466.4,657.6 "/>
<polygon class="st8" points="503.4,655.8 485.3,659.7 469.8,656.9 488,653 "/>
<polygon class="st8" points="525.2,651.2 507.1,655.1 491.7,652.3 509.7,648.5 "/>
<polygon class="st8" points="546.3,646.7 528.5,650.5 513,647.7 530.9,644 "/>
<polygon class="st8" points="567.3,642.3 549.6,646 534.2,643.3 551.8,639.5 "/>
<polygon class="st8" points="588,637.8 570.5,641.6 555.1,638.8 572.6,635.1 "/>
<polygon class="st8" points="629.3,629 591.7,637 576.3,634.4 613.9,626.4 "/>
<polygon class="st8" points="434,678 415.1,682.1 399.4,679.1 418.4,675 "/>
<polygon class="st8" points="456.3,673.2 437.5,677.2 421.9,674.3 440.7,670.3 "/>
<polygon class="st8" points="478.3,668.5 459.8,672.5 444.1,669.6 462.7,665.6 "/>
<polygon class="st8" points="585.8,645.4 481.8,667.8 466.1,664.9 570.2,642.7 "/>
<polygon class="st8" points="606.2,641 588.8,644.8 573.2,642 590.7,638.3 "/>
<polygon class="st8" points="627.2,636.5 609.9,640.2 594.4,637.5 611.7,633.8 "/>
<polygon class="st8" points="647.5,632.2 630.4,635.8 614.8,633.1 632,629.5 "/>
<polygon class="st8" points="635.3,658.9 553.7,676.9 500.6,667.1 582.3,649.5 "/>
<polygon class="st9" points="1778.4,510.4 1157.6,510.1 1162.9,215.1 1794.3,216.9 "/>
<path class="st10" d="M1420.7,314.4l-39.8-0.1l25.7,25.4c1,1,2.6,1,3.7,0.1c6.8-5.8,11.4-13.8,13-22.6c0.2-1.4-0.8-2.7-2.1-2.8
	C1421,314.4,1420.8,314.3,1420.7,314.4L1420.7,314.4z"/>
<path class="st11" d="M1418.4,303.9c-0.8-19.3-16.3-34.7-36.4-36.1c-1.5-0.1-2.8,1.1-2.9,2.6c0,0,0,0,0,0l-1.1,36.1l37.6,0.1
	C1417.1,306.7,1418.3,305.5,1418.4,303.9C1418.4,303.9,1418.4,303.9,1418.4,303.9L1418.4,303.9z"/>
<path class="st12" d="M1369.7,314.3l1.1-38.3c0-1.4-1.1-2.6-2.5-2.6c-0.1,0-0.3,0-0.4,0c-20.1,2.7-35.9,19.5-35.8,39.5
	c0.2,20.6,18.2,37.5,39.7,37.3c8.1-0.1,16.1-2.5,22.9-7c1.2-0.8,1.5-2.3,0.7-3.4c-0.1-0.1-0.2-0.3-0.3-0.4L1369.7,314.3z"/>
<path class="st11" d="M1730.9,317.5h4.8c1.5-0.1,2.7-1.2,2.9-2.7l2.5-48.8c0-1.5-1.2-2.7-2.6-2.7h-4.8c-1.5,0.1-2.7,1.2-2.9,2.7
	l-2.5,48.8C1728.3,316.3,1729.4,317.5,1730.9,317.5z"/>
<path class="st12" d="M1689.4,317.5h4.8c1.5-0.1,2.7-1.2,2.9-2.7l2-42c0-1.5-1.2-2.7-2.6-2.7h-4.8c-1.5,0.1-2.7,1.2-2.9,2.7l-2,42
	C1686.8,316.2,1688,317.4,1689.4,317.5z"/>
<path class="st13" d="M1710.2,317.5h4.8c1.5-0.1,2.7-1.2,2.9-2.7l1.4-28.4c0-1.5-1.2-2.6-2.6-2.7h-4.8c-1.5,0.1-2.7,1.2-2.9,2.7
	l-1.4,28.5C1707.6,316.2,1708.7,317.4,1710.2,317.5z"/>
<path class="st14" d="M1751.8,327.7l-96.7-0.2l3.1-67.8c0.1-1.8-1.3-3.3-3.1-3.4c-0.1,0-0.1,0-0.2,0h-3.5c-1.9,0-3.5,1.5-3.6,3.4
	l-3.3,71.2c-0.2,3.6,2.6,6.6,6.2,6.8c0.1,0,0.3,0,0.4,0l100.1,0.2c1.9,0,3.5-1.5,3.6-3.4l0.2-3.4c0.1-1.8-1.3-3.3-3-3.4
	C1751.9,327.7,1751.9,327.7,1751.8,327.7z"/>
<path class="st13" d="M1668.7,317.4h4.8c1.5-0.1,2.7-1.2,2.9-2.7l0.7-14.9c0-1.5-1.2-2.6-2.6-2.7h-4.8c-1.5,0.1-2.7,1.2-2.9,2.7
	l-0.7,14.9C1666.1,316.2,1667.2,317.3,1668.7,317.4z"/>
<path class="st14" d="M1667.5,474c1.3-0.1,2.3,0.9,2.4,2.1c0,0,0,0.1,0,0.1l-0.4,7.5c-0.2,1.3-1.3,2.3-2.6,2.3l-102.9,0
	c-1.3,0.1-2.4-0.9-2.4-2.2c0,0,0-0.1,0-0.1l2.8-68c0.1-1.3,1.3-2.3,2.6-2.3h8.5c1.3-0.1,2.4,0.9,2.4,2.2c0,0,0,0.1,0,0.1l-2.4,58.2
	L1667.5,474z"/>
<path class="st10" d="M1642.6,431.6l-18.4,10.7l-17.1-21.5c-1-1.1-2.7-1.2-3.9-0.2c-0.1,0.1-0.3,0.3-0.4,0.4l-19.6,27.4l-0.8,19.6
	l81.1,0.1l-17.3-35.5C1645.5,431.2,1643.9,430.8,1642.6,431.6C1642.6,431.6,1642.6,431.6,1642.6,431.6z"/>
<path class="st14" d="M1422,467l-81.3-0.1l1.6-54.5c0-1.6-1.3-2.9-2.8-2.9c0,0-0.1,0-0.1,0h-6c-1.6-0.1-3,1.2-3.1,2.9l-1.7,60.2
	c0,3.1,2.5,5.7,5.7,5.7c0.1,0,0.1,0,0.2,0l87.2,0.1c1.6,0,3-1.2,3.1-2.9l0.2-5.7c0-1.6-1.2-2.8-2.8-2.9
	C1422.1,467,1422.1,467,1422,467z"/>
<path class="st11" d="M1417.7,415.3h-22.3c-4,0-6.2,4.6-3.4,7.4l5.9,5.8l-14.2,13.1l-13.4-13.2c-2.4-2.2-6.1-2.2-8.5,0l-13.3,12.3
	c-1.2,1-1.3,2.8-0.3,3.9c0,0.1,0.1,0.1,0.1,0.2l4.1,4c1.2,1.1,3.1,1.1,4.3,0l8.9-8.3l13.4,13.2c2.4,2.2,6.1,2.2,8.5,0l18.6-17.2
	l5.9,5.8c1.9,1.8,4.8,1.7,6.6-0.2c0.7-0.8,1.2-1.8,1.3-2.8l0.7-21.2c0.1-1.6-1.1-2.9-2.7-2.9
	C1417.9,415.3,1417.8,415.3,1417.7,415.3z"/>
<polygon class="st14" points="1279.8,509.3 1155.7,509.3 1160.9,214.2 1287.2,214.5 "/>
<polygon class="st15" points="1793.1,238.2 1161.5,236.6 1161.9,214.6 1794.3,216.4 "/>
<polygon class="st13" points="1523,299.6 1445.1,299.5 1445.4,290.2 1523.4,290.4 "/>
<polygon class="st13" points="1522.4,315 1444.6,314.8 1444.9,305.6 1522.8,305.8 "/>
<polygon class="st13" points="1521.8,330.3 1444.1,330.1 1444.4,321 1522.2,321.1 "/>
<polygon class="st13" points="1521.2,345.6 1443.6,345.5 1443.9,336.3 1521.6,336.4 "/>
<polygon class="st13" points="1522.1,273.7 1447.6,273.5 1448.1,259.6 1522.6,259.8 "/>
<polygon class="st13" points="1495.5,444.5 1442.7,444.4 1443,435.4 1495.8,435.4 "/>
<polygon class="st13" points="1494.9,459.6 1442.2,459.5 1442.5,450.5 1495.3,450.5 "/>
<polygon class="st13" points="1494.3,474.6 1441.7,474.6 1442,465.6 1494.7,465.6 "/>
<polygon class="st13" points="1762,420.2 1685,420.1 1685.4,411.1 1762.5,411.1 "/>
<polygon class="st13" points="1761.2,435.3 1684.3,435.3 1684.7,426.2 1761.7,426.3 "/>
<polygon class="st13" points="1760.4,450.4 1683.5,450.3 1684,441.3 1760.9,441.4 "/>
<polygon class="st13" points="1754.1,358.9 1640.8,358.7 1641.1,351.1 1754.5,351.3 "/>
<polygon class="st13" points="1631.1,306.1 1578.1,306 1578.4,296.8 1631.5,296.9 "/>
<polygon class="st13" points="1630.4,321.4 1577.4,321.3 1577.8,312.1 1630.8,312.2 "/>
<polygon class="st13" points="1629.8,336.7 1576.8,336.6 1577.2,327.4 1630.2,327.5 "/>
<polygon class="st16" points="1275.4,259.7 1170.5,259.4 1170.7,250.2 1275.6,250.4 "/>
<polygon class="st16" points="1275,275.1 1170.2,274.9 1170.4,265.6 1275.2,265.9 "/>
<polygon class="st16" points="1274.6,290.6 1169.9,290.4 1170.1,281.1 1274.9,281.4 "/>
<polygon class="st16" points="1274.3,306 1169.6,305.8 1169.8,296.5 1274.5,296.8 "/>
<polygon class="st16" points="1245.4,471.2 1167.5,471.1 1167.7,462.1 1245.6,462.2 "/>
<polygon class="st16" points="1225.9,485.8 1167.2,485.7 1167.4,477.2 1226.1,477.3 "/>
<polygon class="st16" points="1244.7,501.4 1166.9,501.3 1167.1,492.3 1244.9,492.4 "/>
<polygon class="st1" points="569.9,269.3 575.1,557 1119.4,540.4 1124.6,258.9 "/>
<polygon class="st9" points="1108.6,525.1 588,540.7 585.5,284.9 1111.5,275.3 "/>
<polygon class="st10" points="980.1,322.8 719.8,328 719.8,319.4 980.2,314.4 "/>
<polygon class="st13" points="941.2,339.6 733.1,343.9 733.1,335.9 941.3,331.7 "/>
<polygon class="st12" points="902.9,356.9 746.8,360.3 746.8,351.5 903,348.2 "/>
<polygon class="st12" points="941.6,370 746.4,374.3 746.4,366.7 941.6,362.5 "/>
<polygon class="st13" points="979.8,383.9 732.8,389.5 732.8,380.8 979.8,375.3 "/>
<polygon class="st10" points="902.5,401.8 720.4,406 720.4,397.6 902.5,393.4 "/>
<polygon class="st10" points="941.3,431.8 721.2,437.2 721.1,428.6 941.3,423.2 "/>
<polygon class="st13" points="979.9,443.8 733.5,450 733.5,441.4 980,435.3 "/>
<polygon class="st12" points="850.6,464.3 746.7,467 746.7,457.6 850.6,454.9 "/>
<polygon class="st13" points="902.3,477.1 747.2,481.3 747.2,473.3 902.3,469.2 "/>
<polygon class="st10" points="966.2,490.4 734.2,496.8 734.2,488.7 966.3,482.4 "/>
<polygon class="st12" points="901.8,510.8 720.6,516.1 720.6,507.7 901.9,502.5 "/>
<polygon class="st14" points="703.4,536.7 586.5,540.1 584,284.3 702.1,282.2 "/>
<polygon class="st15" points="1112.7,294.4 583.4,301.6 583.4,281.7 1111.6,273.5 "/>
<polygon class="st1" points="506.5,404.3 242.7,440.7 304,666.1 566.8,614.1 "/>
<polygon class="st9" points="553.2,592.8 305.2,641.6 256.4,453.4 500.5,418 "/>
<polygon class="st6" points="509.1,601.6 354.5,632.1 304.9,446.5 457,424.4 "/>
<polygon class="st15" points="504.5,429.4 259.2,465.9 256,453.4 501,417.8 "/>
<polygon class="st17" points="454.5,464 329.4,483.5 326.6,473.3 451.6,454.1 "/>
<polygon class="st17" points="458.8,480.1 333.5,500.2 330.7,489.9 455.9,470.1 "/>
<polygon class="st17" points="464,497 338.5,517.8 335.7,507.4 461.1,487 "/>
<polygon class="st17" points="468.4,513.3 342.7,534.7 339.9,524.2 465.5,503.2 "/>
<polygon class="st17" points="475.1,539.5 349,561.9 346.2,551.4 472.1,529.3 "/>
<polygon class="st17" points="479.5,556 353.2,579.1 350.4,568.4 476.5,545.8 "/>
<polygon class="st17" points="483.7,572.9 357.2,596.6 354.3,585.9 480.7,562.6 "/>
<polygon class="st17" points="489.1,590.3 362.4,614.7 359.5,604 486.1,580 "/>
<polygon class="st17" points="493.1,605.3 366.2,630.3 363.8,621.3 490.5,596.7 "/>
<polygon class="st11" points="1660.5,596.5 1750.9,638 1918.1,636 1811.2,591.3 "/>
</svg>
