<?xml version="1.0" encoding="utf-8"?>
<!-- Generator: Adobe Illustrator 23.0.0, SVG Export Plug-In . SVG Version: 6.00 Build 0)  -->
<svg version="1.1" id="Capa_1" xmlns="http://www.w3.org/2000/svg" xmlns:xlink="http://www.w3.org/1999/xlink" x="0px" y="0px"
	 viewBox="0 0 448 512" style="enable-background:new 0 0 448 512;" xml:space="preserve">
<style type="text/css">
	.st0{fill:#FFFFFF;}
</style>
<path class="st0" d="M0,198.5v307c0,3.6,2.9,6.5,6.5,6.5h435c3.6,0,6.5-2.9,6.5-6.5v-307c0-3.6-2.9-6.5-6.5-6.5H6.5
	C2.9,192,0,194.9,0,198.5z M320,313.5v-51c0-3.6,2.9-6.5,6.5-6.5h51c3.6,0,6.5,2.9,6.5,6.5v51c0,3.6-2.9,6.5-6.5,6.5h-51
	C322.9,320,320,317.1,320,313.5z M320,441.5v-51c0-3.6,2.9-6.5,6.5-6.5h51c3.6,0,6.5,2.9,6.5,6.5v51c0,3.6-2.9,6.5-6.5,6.5h-51
	C322.9,448,320,445.1,320,441.5z M192,313.5v-51c0-3.6,2.9-6.5,6.5-6.5h51c3.6,0,6.5,2.9,6.5,6.5v51c0,3.6-2.9,6.5-6.5,6.5h-51
	C194.9,320,192,317.1,192,313.5z M192,441.5v-51c0-3.6,2.9-6.5,6.5-6.5h51c3.6,0,6.5,2.9,6.5,6.5v51c0,3.6-2.9,6.5-6.5,6.5h-51
	C194.9,448,192,445.1,192,441.5z M64,313.5v-51c0-3.6,2.9-6.5,6.5-6.5h51c3.6,0,6.5,2.9,6.5,6.5v51c0,3.6-2.9,6.5-6.5,6.5h-51
	C66.9,320,64,317.1,64,313.5z M64,441.5v-51c0-3.6,2.9-6.5,6.5-6.5h51c3.6,0,6.5,2.9,6.5,6.5v51c0,3.6-2.9,6.5-6.5,6.5h-51
	C66.9,448,64,445.1,64,441.5z M441.5,64h-83c-3.6,0-6.5-2.9-6.5-6.5v-51c0-3.6-2.9-6.5-6.5-6.5h-51c-3.6,0-6.5,2.9-6.5,6.5v51
	c0,3.6-2.9,6.5-6.5,6.5h-115c-3.6,0-6.5-2.9-6.5-6.5v-51c0-3.6-2.9-6.5-6.5-6.5h-51C98.9,0,96,2.9,96,6.5v51c0,3.6-2.9,6.5-6.5,6.5
	h-83C2.9,64,0,66.9,0,70.5v83c0,3.6,2.9,6.5,6.5,6.5h435c3.6,0,6.5-2.9,6.5-6.5v-83C448,66.9,445.1,64,441.5,64z"/>
</svg>
