<?xml version="1.0" encoding="utf-8"?>
<!-- Generator: Adobe Illustrator 23.0.0, SVG Export Plug-In . SVG Version: 6.00 Build 0)  -->
<svg version="1.1" id="Capa_1" xmlns="http://www.w3.org/2000/svg" xmlns:xlink="http://www.w3.org/1999/xlink" x="0px" y="0px"
	 viewBox="0 0 512 512" style="enable-background:new 0 0 512 512;" xml:space="preserve">
<style type="text/css">
	.st0{fill:#FFFFFF;}
</style>
<g>
	<path class="st0" d="M290.6,131.1l90.2,90.2c3.8,3.8,3.8,10,0,13.8L162.4,453.5l-92.8,10.3c-12.4,1.4-22.9-9.1-21.5-21.5l10.3-92.8
		l218.4-218.4C280.6,127.3,286.8,127.3,290.6,131.1L290.6,131.1z"/>
	<path class="st0" d="M452.6,108.2l-48.8-48.8c-15.2-15.2-39.9-15.2-55.2,0l-35.4,35.4c-3.8,3.8-3.8,10,0,13.8l90.2,90.2
		c3.8,3.8,10,3.8,13.8,0l35.4-35.4C467.8,148.1,467.8,123.4,452.6,108.2z"/>
</g>
</svg>
