<?xml version="1.0" encoding="utf-8"?>
<!-- Generator: Adobe Illustrator 23.0.0, SVG Export Plug-In . SVG Version: 6.00 Build 0)  -->
<svg version="1.1" id="Capa_1" xmlns="http://www.w3.org/2000/svg" xmlns:xlink="http://www.w3.org/1999/xlink" x="0px" y="0px"
	 viewBox="0 0 448 512" style="enable-background:new 0 0 448 512;" xml:space="preserve">
<style type="text/css">
	.st0{fill:#01ff62;}
</style>
<path class="st0" d="M433.9,129.9l-83.9-83.9c-9-9-21.2-14.1-33.9-14.1H48C21.5,32,0,53.5,0,80v352c0,26.5,21.5,48,48,48h352
	c26.5,0,48-21.5,48-48V163.9C448,151.2,442.9,138.9,433.9,129.9L433.9,129.9z M272,80v80H144V80H272z M394,432H54c-3.3,0-6-2.7-6-6
	V86c0-3.3,2.7-6,6-6h42v104c0,13.3,10.7,24,24,24h176c13.3,0,24-10.7,24-24V83.9l78.2,78.2c1.1,1.1,1.8,2.7,1.8,4.2V426
	C400,429.3,397.3,432,394,432L394,432z M224,232c-48.5,0-88,39.5-88,88s39.5,88,88,88s88-39.5,88-88S272.5,232,224,232z M224,360
	c-22.1,0-40-17.9-40-40s17.9-40,40-40s40,17.9,40,40S246.1,360,224,360z"/>
</svg>
